<svg xmlns="http://www.w3.org/2000/svg" xmlns:xlink="http://www.w3.org/1999/xlink" width="265.98" height="104.048" viewBox="0 0 265.98 104.048">
  <defs>
    <linearGradient id="linear-gradient" y1="0.89" x2="1" y2="0.16" gradientUnits="objectBoundingBox">
      <stop offset="0" stop-color="#c13232"/>
      <stop offset="1" stop-color="#7a0000"/>
    </linearGradient>
  </defs>
  <path id="Path_2955" data-name="Path 2955" d="M13.91-18.2a1.6,1.6,0,0,1,1.144.416,1.43,1.43,0,0,1,.442,1.092,1.389,1.389,0,0,1-.442,1.079,1.632,1.632,0,0,1-1.144.4H9.828V-1.586A1.475,1.475,0,0,1,9.334-.455,1.736,1.736,0,0,1,8.112,0a1.645,1.645,0,0,1-1.2-.455,1.514,1.514,0,0,1-.468-1.131V-15.21H2.366a1.6,1.6,0,0,1-1.144-.416A1.43,1.43,0,0,1,.78-16.718a1.38,1.38,0,0,1,.455-1.066A1.613,1.613,0,0,1,2.366-18.2ZM32.5-2.548A1.531,1.531,0,0,1,33.033-2a1.386,1.386,0,0,1,.195.7,1.342,1.342,0,0,1-.312.858,1.468,1.468,0,0,1-1.2.468A2.334,2.334,0,0,1,30.576-.26Q28.7-1.326,28.7-4.6a1.887,1.887,0,0,0-.611-1.482,2.549,2.549,0,0,0-1.755-.546H21.476v5.044A1.7,1.7,0,0,1,21.1-.442,1.25,1.25,0,0,1,20.1,0a2.017,2.017,0,0,1-1.313-.455,1.4,1.4,0,0,1-.559-1.131V-16.614a1.535,1.535,0,0,1,.455-1.131,1.535,1.535,0,0,1,1.131-.455H27.3a4.819,4.819,0,0,1,2.548.728,5.373,5.373,0,0,1,1.911,2,5.742,5.742,0,0,1,.715,2.86,5.07,5.07,0,0,1-.7,2.535,5.594,5.594,0,0,1-1.82,1.963,3.984,3.984,0,0,1,1.794,3.068,4.371,4.371,0,0,1,.078.806,8.282,8.282,0,0,0,.208,1.157A.857.857,0,0,0,32.5-2.548Zm-5.33-6.76a1.294,1.294,0,0,0,.91-.442,3.355,3.355,0,0,0,.728-1.183,4.4,4.4,0,0,0,.286-1.6,3.119,3.119,0,0,0-.286-1.339,2.743,2.743,0,0,0-.728-.975,1.421,1.421,0,0,0-.91-.364H21.476v5.9Zm21.71-8.918a1.43,1.43,0,0,1,1.092.442,1.6,1.6,0,0,1,.416,1.144v9.412a7.837,7.837,0,0,1-.91,3.822,6.565,6.565,0,0,1-2.548,2.6A7.411,7.411,0,0,1,43.186.13a7.483,7.483,0,0,1-3.757-.936,6.541,6.541,0,0,1-2.561-2.6,7.837,7.837,0,0,1-.91-3.822V-16.64a1.514,1.514,0,0,1,.468-1.131,1.645,1.645,0,0,1,1.2-.455,1.518,1.518,0,0,1,1.092.455,1.514,1.514,0,0,1,.468,1.131v9.412a4.471,4.471,0,0,0,.546,2.223A3.809,3.809,0,0,0,41.2-3.51a3.986,3.986,0,0,0,1.989.52,4.381,4.381,0,0,0,2.093-.52,3.976,3.976,0,0,0,1.56-1.495,4.236,4.236,0,0,0,.585-2.223V-16.64a1.665,1.665,0,0,1,.39-1.144A1.349,1.349,0,0,1,48.88-18.226Zm18.3,1.56a1.736,1.736,0,0,1-.286.962L61.464-7.93v6.344a1.559,1.559,0,0,1-.442,1.131A1.432,1.432,0,0,1,59.956,0a1.5,1.5,0,0,1-1.1-.455A1.535,1.535,0,0,1,58.4-1.586V-8.294L52.988-15.47a2.045,2.045,0,0,1-.468-1.222,1.428,1.428,0,0,1,.533-1.131,1.717,1.717,0,0,1,1.131-.455,1.574,1.574,0,0,1,1.274.728l4.576,6.318,4.29-6.266a1.571,1.571,0,0,1,1.3-.78,1.5,1.5,0,0,1,1.092.468A1.556,1.556,0,0,1,67.184-16.666ZM79.82-2.99a1.535,1.535,0,0,1,1.131.455,1.446,1.446,0,0,1,.455,1.053,1.38,1.38,0,0,1-.455,1.066A1.613,1.613,0,0,1,79.82,0H71.11a1.535,1.535,0,0,1-1.131-.455,1.535,1.535,0,0,1-.455-1.131V-16.614a1.535,1.535,0,0,1,.455-1.131A1.535,1.535,0,0,1,71.11-18.2h8.71a1.585,1.585,0,0,1,1.131.429,1.451,1.451,0,0,1,.455,1.105,1.358,1.358,0,0,1-.442,1.053,1.632,1.632,0,0,1-1.144.4H72.774v4.42H78.65a1.585,1.585,0,0,1,1.131.429,1.451,1.451,0,0,1,.455,1.105A1.358,1.358,0,0,1,79.794-8.2a1.632,1.632,0,0,1-1.144.4H72.774v4.81Zm-.884-17.68a2.113,2.113,0,0,1,.312.416.8.8,0,0,1,.078.364.6.6,0,0,1-.234.442.83.83,0,0,1-.572.208,1.272,1.272,0,0,1-.52-.13,8.755,8.755,0,0,1-.806-.442L75.5-20.8l-1.69.988q-.416.234-.754.4a1.338,1.338,0,0,1-.572.169.83.83,0,0,1-.572-.208.6.6,0,0,1-.234-.442.8.8,0,0,1,.078-.364,2.113,2.113,0,0,1,.312-.416l1.638-1.872a2.321,2.321,0,0,1,.7-.572A1.96,1.96,0,0,1,75.3-23.3h.416a1.981,1.981,0,0,1,.871.182,2.261,2.261,0,0,1,.715.572Zm.39-2.132a1.337,1.337,0,0,1-.6-.156l-2.6-1.378a2.036,2.036,0,0,1-.715-.624,1.325,1.325,0,0,1-.247-.754,1.132,1.132,0,0,1,.442-.91,1.451,1.451,0,0,1,.936-.364,2.029,2.029,0,0,1,1.274.572l2.236,1.976a.968.968,0,0,1,.364.7.854.854,0,0,1-.3.676A1.166,1.166,0,0,1,79.326-22.8ZM98.2-18.2a1.326,1.326,0,0,1,1.014.416,1.462,1.462,0,0,1,.39,1.04V-1.586a1.535,1.535,0,0,1-.455,1.131A1.535,1.535,0,0,1,98.02,0a2.247,2.247,0,0,1-.715-.117A1.011,1.011,0,0,1,96.8-.442L87.256-12.558v11.1a1.435,1.435,0,0,1-.4,1.04A1.4,1.4,0,0,1,85.8,0a1.326,1.326,0,0,1-1.014-.416,1.462,1.462,0,0,1-.39-1.04V-16.614a1.535,1.535,0,0,1,.455-1.131,1.535,1.535,0,0,1,1.131-.455,1.99,1.99,0,0,1,.767.156,1.234,1.234,0,0,1,.559.416L96.772-5.564v-11.18a1.435,1.435,0,0,1,.4-1.04A1.368,1.368,0,0,1,98.2-18.2Zm24.544,0a1.6,1.6,0,0,1,1.144.416,1.43,1.43,0,0,1,.442,1.092,1.389,1.389,0,0,1-.442,1.079,1.632,1.632,0,0,1-1.144.4h-4.082V-1.586a1.475,1.475,0,0,1-.494,1.131A1.736,1.736,0,0,1,116.948,0a1.645,1.645,0,0,1-1.2-.455,1.514,1.514,0,0,1-.468-1.131V-15.21H111.2a1.6,1.6,0,0,1-1.144-.416,1.43,1.43,0,0,1-.442-1.092,1.38,1.38,0,0,1,.455-1.066A1.613,1.613,0,0,1,111.2-18.2Zm17.5,0a1.582,1.582,0,0,1,1.17.442,1.548,1.548,0,0,1,.442,1.144V-1.586a1.514,1.514,0,0,1-.468,1.131,1.645,1.645,0,0,1-1.2.455,1.548,1.548,0,0,1-1.118-.455,1.514,1.514,0,0,1-.468-1.131V-7.644h-8.294v6.058a1.475,1.475,0,0,1-.494,1.131A1.637,1.637,0,0,1,128.674,0a1.567,1.567,0,0,1-1.157-.455,1.535,1.535,0,0,1-.455-1.131V-16.614a1.514,1.514,0,0,1,.468-1.131,1.645,1.645,0,0,1,1.2-.455,1.548,1.548,0,0,1,1.118.455,1.514,1.514,0,0,1,.468,1.131v5.98h8.294v-5.98a1.475,1.475,0,0,1,.494-1.131A1.637,1.637,0,0,1,140.244-18.2ZM162.5-9.1a9.869,9.869,0,0,1-1.144,4.719A8.761,8.761,0,0,1,158.2-.988,8.441,8.441,0,0,1,153.66.26a8.441,8.441,0,0,1-4.537-1.248,8.666,8.666,0,0,1-3.146-3.393A9.96,9.96,0,0,1,144.846-9.1a9.96,9.96,0,0,1,1.131-4.719,8.666,8.666,0,0,1,3.146-3.393,8.441,8.441,0,0,1,4.537-1.248,8.441,8.441,0,0,1,4.537,1.248,8.761,8.761,0,0,1,3.159,3.393A9.869,9.869,0,0,1,162.5-9.1Zm-3.38,0a7.018,7.018,0,0,0-.7-3.159,5.666,5.666,0,0,0-1.95-2.249,4.949,4.949,0,0,0-2.808-.832,4.987,4.987,0,0,0-2.821.819,5.493,5.493,0,0,0-1.924,2.249,7.212,7.212,0,0,0-.689,3.172,7.212,7.212,0,0,0,.689,3.172,5.493,5.493,0,0,0,1.924,2.249,4.987,4.987,0,0,0,2.821.819,4.949,4.949,0,0,0,2.808-.832,5.666,5.666,0,0,0,1.95-2.249A7.018,7.018,0,0,0,159.12-9.1Zm-2.028-11.57a2.112,2.112,0,0,1,.312.416.8.8,0,0,1,.078.364.6.6,0,0,1-.234.442.83.83,0,0,1-.572.208,1.272,1.272,0,0,1-.52-.13,8.754,8.754,0,0,1-.806-.442l-1.69-.988-1.69.988q-.416.234-.754.4a1.338,1.338,0,0,1-.572.169.83.83,0,0,1-.572-.208.6.6,0,0,1-.234-.442.8.8,0,0,1,.078-.364,2.113,2.113,0,0,1,.312-.416l1.638-1.872a2.321,2.321,0,0,1,.7-.572,1.961,1.961,0,0,1,.884-.182h.416a1.981,1.981,0,0,1,.871.182,2.261,2.261,0,0,1,.715.572Zm22.2,2.47a1.326,1.326,0,0,1,1.014.416,1.462,1.462,0,0,1,.39,1.04V-1.586a1.535,1.535,0,0,1-.455,1.131A1.535,1.535,0,0,1,179.114,0a2.247,2.247,0,0,1-.715-.117,1.011,1.011,0,0,1-.507-.325L168.35-12.558v11.1a1.435,1.435,0,0,1-.4,1.04A1.4,1.4,0,0,1,166.894,0a1.326,1.326,0,0,1-1.014-.416,1.462,1.462,0,0,1-.39-1.04V-16.614a1.535,1.535,0,0,1,.455-1.131,1.535,1.535,0,0,1,1.131-.455,1.99,1.99,0,0,1,.767.156,1.234,1.234,0,0,1,.559.416l9.464,12.064v-11.18a1.435,1.435,0,0,1,.4-1.04A1.368,1.368,0,0,1,179.3-18.2Zm18.72,8.372a1.493,1.493,0,0,1,1.118.455,1.559,1.559,0,0,1,.442,1.131V-2.73a1.559,1.559,0,0,1-.806,1.4A10.373,10.373,0,0,1,193.18.26,9.35,9.35,0,0,1,188.422-1a9.445,9.445,0,0,1-3.458-3.406A9.023,9.023,0,0,1,183.69-9.1a9.023,9.023,0,0,1,1.274-4.693,9.445,9.445,0,0,1,3.458-3.406,9.35,9.35,0,0,1,4.758-1.261,9.166,9.166,0,0,1,4.472,1.04,1.431,1.431,0,0,1,.585.546,1.433,1.433,0,0,1,.195.728A1.644,1.644,0,0,1,198-15.015a1.357,1.357,0,0,1-1.053.481,2.133,2.133,0,0,1-.858-.208,7.359,7.359,0,0,0-2.912-.6,5.84,5.84,0,0,0-3.068.845,6.218,6.218,0,0,0-2.223,2.275,6.169,6.169,0,0,0-.819,3.12,6.169,6.169,0,0,0,.819,3.12,6.218,6.218,0,0,0,2.223,2.275,5.84,5.84,0,0,0,3.068.845,10.135,10.135,0,0,0,1.56-.13,9.062,9.062,0,0,0,1.456-.338v-3.38h-2.444a1.559,1.559,0,0,1-1.131-.442,1.493,1.493,0,0,1-.455-1.118,1.493,1.493,0,0,1,.455-1.118,1.559,1.559,0,0,1,1.131-.442ZM9.75,20.2a7.218,7.218,0,0,1,4.2,1.209,7.687,7.687,0,0,1,2.678,3.276A11.2,11.2,0,0,1,17.55,29.3a11.2,11.2,0,0,1-.923,4.615,7.687,7.687,0,0,1-2.678,3.276A7.218,7.218,0,0,1,9.75,38.4H3.536A1.555,1.555,0,0,1,1.95,36.814V21.786A1.555,1.555,0,0,1,3.536,20.2ZM9.49,35.41A3.956,3.956,0,0,0,13,33.681,7.653,7.653,0,0,0,14.17,29.3a7.59,7.59,0,0,0-1.183-4.381,3.963,3.963,0,0,0-3.5-1.729H5.2V35.41ZM37.284,29.3a9.869,9.869,0,0,1-1.144,4.719,8.761,8.761,0,0,1-3.159,3.393,8.871,8.871,0,0,1-9.074,0,8.666,8.666,0,0,1-3.146-3.393,10.41,10.41,0,0,1,0-9.438,8.666,8.666,0,0,1,3.146-3.393,8.871,8.871,0,0,1,9.074,0,8.761,8.761,0,0,1,3.159,3.393A9.869,9.869,0,0,1,37.284,29.3Zm-3.38,0a7.018,7.018,0,0,0-.7-3.159,5.666,5.666,0,0,0-1.95-2.249,5.211,5.211,0,0,0-5.629-.013A5.493,5.493,0,0,0,23.7,26.128a7.646,7.646,0,0,0,0,6.344,5.493,5.493,0,0,0,1.924,2.249,5.211,5.211,0,0,0,5.629-.013,5.666,5.666,0,0,0,1.95-2.249A7.018,7.018,0,0,0,33.9,29.3Zm20.514,7.072a1.75,1.75,0,0,1,.13.624,1.472,1.472,0,0,1-.442,1.1,1.415,1.415,0,0,1-1.014.429,1.364,1.364,0,0,1-.845-.286,1.859,1.859,0,0,1-.585-.78L50.31,34.318H42.562L41.21,37.49a1.6,1.6,0,0,1-.559.767,1.324,1.324,0,0,1-2.2-1.079,1.72,1.72,0,0,1,.078-.494l6.474-15.548a1.725,1.725,0,0,1,.624-.806,1.362,1.362,0,0,1,.936-.234,1.523,1.523,0,0,1,.871.273,1.54,1.54,0,0,1,.585.767ZM43.836,31.328h5.2L46.41,25.244ZM70.564,20.2a1.326,1.326,0,0,1,1.014.416,1.462,1.462,0,0,1,.39,1.04V36.814A1.555,1.555,0,0,1,70.382,38.4a2.247,2.247,0,0,1-.715-.117,1.011,1.011,0,0,1-.507-.325L59.618,25.842v11.1a1.435,1.435,0,0,1-.4,1.04,1.4,1.4,0,0,1-1.053.416,1.326,1.326,0,0,1-1.014-.416,1.462,1.462,0,0,1-.39-1.04V21.786A1.555,1.555,0,0,1,58.344,20.2a1.99,1.99,0,0,1,.767.156,1.234,1.234,0,0,1,.559.416l9.464,12.064V21.656a1.435,1.435,0,0,1,.4-1.04A1.368,1.368,0,0,1,70.564,20.2Zm18.486,0a1.582,1.582,0,0,1,1.17.442,1.548,1.548,0,0,1,.442,1.144V36.814a1.514,1.514,0,0,1-.468,1.131A1.645,1.645,0,0,1,89,38.4a1.548,1.548,0,0,1-1.118-.455,1.514,1.514,0,0,1-.468-1.131V30.756H79.118v6.058a1.475,1.475,0,0,1-.494,1.131,1.637,1.637,0,0,1-1.144.455,1.567,1.567,0,0,1-1.157-.455,1.535,1.535,0,0,1-.455-1.131V21.786a1.514,1.514,0,0,1,.468-1.131,1.645,1.645,0,0,1,1.2-.455,1.548,1.548,0,0,1,1.118.455,1.514,1.514,0,0,1,.468,1.131v5.98h8.294v-5.98a1.475,1.475,0,0,1,.494-1.131A1.637,1.637,0,0,1,89.05,20.2Zm26.6,0a1.326,1.326,0,0,1,1.014.416,1.462,1.462,0,0,1,.39,1.04V36.814a1.555,1.555,0,0,1-1.586,1.586,2.247,2.247,0,0,1-.715-.117,1.011,1.011,0,0,1-.507-.325L104.7,25.842v11.1a1.435,1.435,0,0,1-.4,1.04,1.4,1.4,0,0,1-1.053.416,1.326,1.326,0,0,1-1.014-.416,1.462,1.462,0,0,1-.39-1.04V21.786a1.555,1.555,0,0,1,1.586-1.586,1.99,1.99,0,0,1,.767.156,1.234,1.234,0,0,1,.559.416l9.464,12.064V21.656a1.435,1.435,0,0,1,.4-1.04A1.368,1.368,0,0,1,115.648,20.2Zm18.72,8.372a1.493,1.493,0,0,1,1.118.455,1.559,1.559,0,0,1,.442,1.131V35.67a1.559,1.559,0,0,1-.806,1.4,10.373,10.373,0,0,1-5.59,1.586,9.35,9.35,0,0,1-4.758-1.261,9.445,9.445,0,0,1-3.458-3.406,9.281,9.281,0,0,1,0-9.386,9.445,9.445,0,0,1,3.458-3.406,9.35,9.35,0,0,1,4.758-1.261A9.166,9.166,0,0,1,134,20.98a1.41,1.41,0,0,1,.78,1.274,1.644,1.644,0,0,1-.429,1.131,1.357,1.357,0,0,1-1.053.481,2.133,2.133,0,0,1-.858-.208,7.359,7.359,0,0,0-2.912-.6,5.84,5.84,0,0,0-3.068.845,6.3,6.3,0,0,0,0,10.79,5.84,5.84,0,0,0,3.068.845,10.135,10.135,0,0,0,1.56-.13,9.061,9.061,0,0,0,1.456-.338v-3.38H130.1a1.559,1.559,0,0,1-1.131-.442,1.6,1.6,0,0,1,0-2.236,1.559,1.559,0,0,1,1.131-.442ZM152.23,20.2a1.582,1.582,0,0,1,1.17.442,1.548,1.548,0,0,1,.442,1.144V36.814a1.514,1.514,0,0,1-.468,1.131,1.645,1.645,0,0,1-1.2.455,1.548,1.548,0,0,1-1.118-.455,1.514,1.514,0,0,1-.468-1.131V30.756H142.3v6.058a1.475,1.475,0,0,1-.494,1.131,1.637,1.637,0,0,1-1.144.455,1.567,1.567,0,0,1-1.157-.455,1.535,1.535,0,0,1-.455-1.131V21.786a1.514,1.514,0,0,1,.468-1.131,1.645,1.645,0,0,1,1.2-.455,1.548,1.548,0,0,1,1.118.455,1.514,1.514,0,0,1,.468,1.131v5.98h8.294v-5.98a1.475,1.475,0,0,1,.494-1.131A1.637,1.637,0,0,1,152.23,20.2Zm8.762,16.614a1.475,1.475,0,0,1-.494,1.131,1.637,1.637,0,0,1-1.144.455,1.567,1.567,0,0,1-1.157-.455,1.535,1.535,0,0,1-.455-1.131V21.786a1.514,1.514,0,0,1,.468-1.131,1.645,1.645,0,0,1,1.2-.455,1.548,1.548,0,0,1,1.118.455,1.514,1.514,0,0,1,.468,1.131Zm14.2-1.4a1.535,1.535,0,0,1,1.131.455,1.446,1.446,0,0,1,.455,1.053,1.38,1.38,0,0,1-.455,1.066,1.613,1.613,0,0,1-1.131.416h-8.71a1.555,1.555,0,0,1-1.586-1.586V21.786a1.555,1.555,0,0,1,1.586-1.586h8.71a1.585,1.585,0,0,1,1.131.429,1.451,1.451,0,0,1,.455,1.105,1.358,1.358,0,0,1-.442,1.053,1.632,1.632,0,0,1-1.144.4h-7.046v4.42h5.876a1.585,1.585,0,0,1,1.131.429,1.451,1.451,0,0,1,.455,1.1,1.358,1.358,0,0,1-.442,1.053,1.632,1.632,0,0,1-1.144.4h-5.876v4.81Zm-4.862,6.812a2.01,2.01,0,0,1-1.222-.286,1.222,1.222,0,0,1-.364-1.014v-.494a1.179,1.179,0,0,1,.39-1.014,2.027,2.027,0,0,1,1.2-.286,2.238,2.238,0,0,1,1.326.286,1.222,1.222,0,0,1,.364,1.014v.494a1.174,1.174,0,0,1-.39,1.027A2.34,2.34,0,0,1,170.326,42.222ZM174.3,17.73a2.112,2.112,0,0,1,.312.416.8.8,0,0,1,.078.364.6.6,0,0,1-.234.442.83.83,0,0,1-.572.208,1.273,1.273,0,0,1-.52-.13,8.756,8.756,0,0,1-.806-.442l-1.69-.988-1.69.988q-.416.234-.754.4a1.338,1.338,0,0,1-.572.169.83.83,0,0,1-.572-.208.6.6,0,0,1-.234-.442.8.8,0,0,1,.078-.364,2.113,2.113,0,0,1,.312-.416l1.638-1.872a2.321,2.321,0,0,1,.7-.572,1.96,1.96,0,0,1,.884-.182h.416a1.981,1.981,0,0,1,.871.182,2.261,2.261,0,0,1,.715.572Zm12.974,2.47a4.491,4.491,0,0,1,2.522.793,5.869,5.869,0,0,1,1.924,2.132,6.214,6.214,0,0,1,0,5.837,5.841,5.841,0,0,1-1.924,2.145,4.491,4.491,0,0,1-2.522.793h-4.524v4.914a1.6,1.6,0,0,1-.416,1.144,1.43,1.43,0,0,1-1.092.442,1.38,1.38,0,0,1-1.066-.455,1.613,1.613,0,0,1-.416-1.131V21.786A1.555,1.555,0,0,1,181.35,20.2Zm0,8.736a1.491,1.491,0,0,0,.975-.416,3.066,3.066,0,0,0,.78-1.079,3.385,3.385,0,0,0,0-2.782,2.937,2.937,0,0,0-.78-1.066,1.515,1.515,0,0,0-.975-.4h-4.524v5.746ZM14.69,59.484A1.392,1.392,0,0,1,15.5,60.81a1.76,1.76,0,0,1-.39,1.066,1.284,1.284,0,0,1-1.066.546,1.875,1.875,0,0,1-.884-.234,6.4,6.4,0,0,0-2.756-.6,6.321,6.321,0,0,0-3.172.767,5.2,5.2,0,0,0-2.08,2.158A6.767,6.767,0,0,0,4.42,67.7a6.16,6.16,0,0,0,1.651,4.654A5.987,5.987,0,0,0,10.4,73.94a5.982,5.982,0,0,0,2.756-.6,2.089,2.089,0,0,1,.832-.208,1.427,1.427,0,0,1,1.144.572,1.687,1.687,0,0,1,.39,1.066,1.41,1.41,0,0,1-.208.754,1.353,1.353,0,0,1-.6.52A9.521,9.521,0,0,1,10.4,77.06a10.214,10.214,0,0,1-4.68-1.079A8.3,8.3,0,0,1,2.314,72.8,9.669,9.669,0,0,1,1.04,67.7a9.383,9.383,0,0,1,1.209-4.758A8.583,8.583,0,0,1,5.59,59.653,9.745,9.745,0,0,1,10.4,58.47,9.259,9.259,0,0,1,14.69,59.484ZM35,67.7a9.869,9.869,0,0,1-1.144,4.719,8.761,8.761,0,0,1-3.159,3.393,8.871,8.871,0,0,1-9.074,0,8.666,8.666,0,0,1-3.146-3.393,10.41,10.41,0,0,1,0-9.438,8.666,8.666,0,0,1,3.146-3.393,8.871,8.871,0,0,1,9.074,0,8.761,8.761,0,0,1,3.159,3.393A9.869,9.869,0,0,1,35,67.7Zm-3.38,0a7.018,7.018,0,0,0-.7-3.159,5.666,5.666,0,0,0-1.95-2.249,5.211,5.211,0,0,0-5.629-.013,5.493,5.493,0,0,0-1.924,2.249,7.646,7.646,0,0,0,0,6.344,5.493,5.493,0,0,0,1.924,2.249,5.211,5.211,0,0,0,5.629-.013,5.666,5.666,0,0,0,1.95-2.249A7.018,7.018,0,0,0,31.616,67.7Zm20.176-9.1a1.326,1.326,0,0,1,1.014.416,1.462,1.462,0,0,1,.39,1.04V75.214A1.555,1.555,0,0,1,51.61,76.8a2.247,2.247,0,0,1-.715-.117,1.011,1.011,0,0,1-.507-.325L40.846,64.242v11.1a1.435,1.435,0,0,1-.4,1.04,1.4,1.4,0,0,1-1.053.416,1.326,1.326,0,0,1-1.014-.416,1.462,1.462,0,0,1-.39-1.04V60.186A1.555,1.555,0,0,1,39.572,58.6a1.99,1.99,0,0,1,.767.156,1.234,1.234,0,0,1,.559.416l9.464,12.064V60.056a1.435,1.435,0,0,1,.4-1.04A1.368,1.368,0,0,1,51.792,58.6ZM62.946,77.06a10.868,10.868,0,0,1-3.328-.468,7.7,7.7,0,0,1-2.73-1.586,1.826,1.826,0,0,1-.7-1.378,1.466,1.466,0,0,1,.442-1.053,1.432,1.432,0,0,1,1.066-.455,1.377,1.377,0,0,1,.884.312,7.654,7.654,0,0,0,2.028,1.248,6.361,6.361,0,0,0,2.34.39,4.682,4.682,0,0,0,2.509-.65,1.883,1.883,0,0,0,1.053-1.612,2.067,2.067,0,0,0-1.04-1.833,8.814,8.814,0,0,0-3.3-1q-5.694-.832-5.694-5.3a4.791,4.791,0,0,1,.858-2.847,5.418,5.418,0,0,1,2.34-1.846,8.279,8.279,0,0,1,3.3-.637,9.448,9.448,0,0,1,3.081.494,7.471,7.471,0,0,1,2.405,1.3,1.735,1.735,0,0,1,.754,1.378,1.466,1.466,0,0,1-.442,1.053,1.4,1.4,0,0,1-1.04.455,1.141,1.141,0,0,1-.7-.234,6.867,6.867,0,0,0-1.885-1,6.248,6.248,0,0,0-2.171-.455,4.473,4.473,0,0,0-2.535.611,1.941,1.941,0,0,0,.026,3.289,8.756,8.756,0,0,0,2.9.936,15.037,15.037,0,0,1,3.575,1,4.562,4.562,0,0,1,2.015,1.664,5.112,5.112,0,0,1,.676,2.795,4.668,4.668,0,0,1-.923,2.873,5.934,5.934,0,0,1-2.457,1.9A8.233,8.233,0,0,1,62.946,77.06ZM85.54,58.574a1.43,1.43,0,0,1,1.092.442,1.6,1.6,0,0,1,.416,1.144v9.412a7.837,7.837,0,0,1-.91,3.822,6.565,6.565,0,0,1-2.548,2.6,7.982,7.982,0,0,1-7.5,0,6.541,6.541,0,0,1-2.561-2.6,7.837,7.837,0,0,1-.91-3.822V60.16a1.514,1.514,0,0,1,.468-1.131,1.645,1.645,0,0,1,1.2-.455,1.576,1.576,0,0,1,1.56,1.586v9.412a4.471,4.471,0,0,0,.546,2.223,3.809,3.809,0,0,0,1.469,1.495,3.986,3.986,0,0,0,1.989.52,4.381,4.381,0,0,0,2.093-.52A3.976,3.976,0,0,0,83.5,71.8a4.236,4.236,0,0,0,.585-2.223V60.16a1.665,1.665,0,0,1,.39-1.144A1.349,1.349,0,0,1,85.54,58.574Zm15.444,15.184a1.585,1.585,0,0,1,1.131.429,1.451,1.451,0,0,1,.455,1.1,1.42,1.42,0,0,1-.455,1.079,1.585,1.585,0,0,1-1.131.429h-8.45a1.555,1.555,0,0,1-1.586-1.586V60.186a1.514,1.514,0,0,1,.468-1.131,1.645,1.645,0,0,1,1.2-.455,1.548,1.548,0,0,1,1.118.455,1.514,1.514,0,0,1,.468,1.131V73.758ZM114.92,58.6a1.6,1.6,0,0,1,1.144.416,1.43,1.43,0,0,1,.442,1.092,1.389,1.389,0,0,1-.442,1.079,1.632,1.632,0,0,1-1.144.4h-4.082V75.214a1.475,1.475,0,0,1-.494,1.131,1.736,1.736,0,0,1-1.222.455,1.645,1.645,0,0,1-1.2-.455,1.514,1.514,0,0,1-.468-1.131V61.59h-4.082a1.6,1.6,0,0,1-1.144-.416,1.43,1.43,0,0,1-.442-1.092,1.38,1.38,0,0,1,.455-1.066,1.613,1.613,0,0,1,1.131-.416Zm14.846,16.614a1.475,1.475,0,0,1-.494,1.131,1.637,1.637,0,0,1-1.144.455,1.567,1.567,0,0,1-1.157-.455,1.535,1.535,0,0,1-.455-1.131V60.186a1.514,1.514,0,0,1,.468-1.131,1.645,1.645,0,0,1,1.2-.455,1.548,1.548,0,0,1,1.118.455,1.514,1.514,0,0,1,.468,1.131ZM147.472,58.6a1.326,1.326,0,0,1,1.014.416,1.462,1.462,0,0,1,.39,1.04V75.214A1.555,1.555,0,0,1,147.29,76.8a2.247,2.247,0,0,1-.715-.117,1.011,1.011,0,0,1-.507-.325l-9.542-12.116v11.1a1.435,1.435,0,0,1-.4,1.04,1.4,1.4,0,0,1-1.053.416,1.326,1.326,0,0,1-1.014-.416,1.462,1.462,0,0,1-.39-1.04V60.186a1.555,1.555,0,0,1,1.586-1.586,1.99,1.99,0,0,1,.767.156,1.234,1.234,0,0,1,.559.416l9.464,12.064V60.056a1.435,1.435,0,0,1,.4-1.04A1.368,1.368,0,0,1,147.472,58.6Zm13.1,0a7.218,7.218,0,0,1,4.2,1.209,7.687,7.687,0,0,1,2.678,3.276,12,12,0,0,1,0,9.23,7.687,7.687,0,0,1-2.678,3.276,7.218,7.218,0,0,1-4.2,1.209h-6.214a1.555,1.555,0,0,1-1.586-1.586V60.186a1.555,1.555,0,0,1,1.586-1.586Zm-.26,15.21a3.956,3.956,0,0,0,3.51-1.729,8.745,8.745,0,0,0-.013-8.762,3.963,3.963,0,0,0-3.5-1.729h-4.29V73.81ZM188.11,67.7a9.869,9.869,0,0,1-1.144,4.719,8.761,8.761,0,0,1-3.159,3.393,8.871,8.871,0,0,1-9.074,0,8.666,8.666,0,0,1-3.146-3.393,10.41,10.41,0,0,1,0-9.438,8.666,8.666,0,0,1,3.146-3.393,8.871,8.871,0,0,1,9.074,0,8.761,8.761,0,0,1,3.159,3.393A9.869,9.869,0,0,1,188.11,67.7Zm-3.38,0a7.018,7.018,0,0,0-.7-3.159,5.666,5.666,0,0,0-1.95-2.249,5.211,5.211,0,0,0-5.629-.013,5.493,5.493,0,0,0-1.924,2.249,7.646,7.646,0,0,0,0,6.344,5.493,5.493,0,0,0,1.924,2.249,5.211,5.211,0,0,0,5.629-.013,5.666,5.666,0,0,0,1.95-2.249A7.018,7.018,0,0,0,184.73,67.7Zm19.11-8.216a1.392,1.392,0,0,1,.806,1.326,1.76,1.76,0,0,1-.39,1.066,1.284,1.284,0,0,1-1.066.546,1.875,1.875,0,0,1-.884-.234,6.4,6.4,0,0,0-2.756-.6,6.321,6.321,0,0,0-3.172.767,5.2,5.2,0,0,0-2.08,2.158,6.767,6.767,0,0,0-.728,3.185,6.16,6.16,0,0,0,1.651,4.654,6.682,6.682,0,0,0,7.085.988,2.089,2.089,0,0,1,.832-.208,1.427,1.427,0,0,1,1.144.572,1.687,1.687,0,0,1,.39,1.066,1.41,1.41,0,0,1-.208.754,1.353,1.353,0,0,1-.6.52,9.521,9.521,0,0,1-4.316,1.014,10.214,10.214,0,0,1-4.68-1.079,8.3,8.3,0,0,1-3.406-3.185,9.669,9.669,0,0,1-1.274-5.1,9.383,9.383,0,0,1,1.209-4.758,8.583,8.583,0,0,1,3.341-3.289,9.745,9.745,0,0,1,4.81-1.183A9.259,9.259,0,0,1,203.84,59.484Zm16.744-.884a1.582,1.582,0,0,1,1.17.442,1.548,1.548,0,0,1,.442,1.144V75.214a1.514,1.514,0,0,1-.468,1.131,1.645,1.645,0,0,1-1.2.455,1.548,1.548,0,0,1-1.118-.455,1.514,1.514,0,0,1-.468-1.131V69.156h-8.294v6.058a1.475,1.475,0,0,1-.494,1.131,1.637,1.637,0,0,1-1.144.455,1.567,1.567,0,0,1-1.157-.455,1.535,1.535,0,0,1-.455-1.131V60.186a1.514,1.514,0,0,1,.468-1.131,1.645,1.645,0,0,1,1.2-.455,1.548,1.548,0,0,1,1.118.455,1.514,1.514,0,0,1,.468,1.131v5.98h8.294v-5.98a1.475,1.475,0,0,1,.494-1.131A1.637,1.637,0,0,1,220.584,58.6Zm8.762,16.614a1.475,1.475,0,0,1-.494,1.131,1.637,1.637,0,0,1-1.144.455,1.567,1.567,0,0,1-1.157-.455,1.535,1.535,0,0,1-.455-1.131V60.186a1.514,1.514,0,0,1,.468-1.131,1.645,1.645,0,0,1,1.2-.455,1.548,1.548,0,0,1,1.118.455,1.514,1.514,0,0,1,.468,1.131ZM247.052,58.6a1.326,1.326,0,0,1,1.014.416,1.462,1.462,0,0,1,.39,1.04V75.214A1.555,1.555,0,0,1,246.87,76.8a2.247,2.247,0,0,1-.715-.117,1.011,1.011,0,0,1-.507-.325l-9.542-12.116v11.1a1.435,1.435,0,0,1-.4,1.04,1.4,1.4,0,0,1-1.053.416,1.326,1.326,0,0,1-1.014-.416,1.462,1.462,0,0,1-.39-1.04V60.186a1.555,1.555,0,0,1,1.586-1.586,1.99,1.99,0,0,1,.767.156,1.234,1.234,0,0,1,.559.416l9.464,12.064V60.056a1.435,1.435,0,0,1,.4-1.04A1.368,1.368,0,0,1,247.052,58.6ZM266.63,74.772a1.75,1.75,0,0,1,.13.624,1.472,1.472,0,0,1-.442,1.1,1.415,1.415,0,0,1-1.014.429,1.364,1.364,0,0,1-.845-.286,1.859,1.859,0,0,1-.585-.78l-1.352-3.146h-7.748l-1.352,3.172a1.6,1.6,0,0,1-.559.767,1.324,1.324,0,0,1-2.2-1.079,1.72,1.72,0,0,1,.078-.494l6.474-15.548a1.726,1.726,0,0,1,.624-.806,1.362,1.362,0,0,1,.936-.234,1.523,1.523,0,0,1,.871.273,1.54,1.54,0,0,1,.585.767Zm-10.582-5.044h5.2l-2.626-6.084Z" transform="translate(-0.78 26.988)" fill="url(#linear-gradient)"/>
</svg>
