<svg xmlns="http://www.w3.org/2000/svg" xmlns:xlink="http://www.w3.org/1999/xlink" width="437.528" height="220.896" viewBox="0 0 437.528 220.896">
  <defs>
    <linearGradient id="linear-gradient" y1="1" x2="0.789" gradientUnits="objectBoundingBox">
      <stop offset="0" stop-color="#c13232"/>
      <stop offset="1" stop-color="#7a0000"/>
    </linearGradient>
  </defs>
  <path id="Path_2957" data-name="Path 2957" d="M27.82-36.4a3.2,3.2,0,0,1,2.288.832,2.86,2.86,0,0,1,.884,2.184,2.778,2.778,0,0,1-.884,2.158,3.264,3.264,0,0,1-2.288.806H19.656V-3.172A2.95,2.95,0,0,1,18.668-.91,3.472,3.472,0,0,1,16.224,0a3.289,3.289,0,0,1-2.392-.91A3.027,3.027,0,0,1,12.9-3.172V-30.42H4.732a3.2,3.2,0,0,1-2.288-.832,2.86,2.86,0,0,1-.884-2.184,2.759,2.759,0,0,1,.91-2.132A3.226,3.226,0,0,1,4.732-36.4ZM65-5.1A3.063,3.063,0,0,1,66.066-4a2.772,2.772,0,0,1,.39,1.4,2.685,2.685,0,0,1-.624,1.716A2.937,2.937,0,0,1,63.44.052,4.669,4.669,0,0,1,61.152-.52Q57.408-2.652,57.408-9.2a3.775,3.775,0,0,0-1.222-2.964,5.1,5.1,0,0,0-3.51-1.092H42.952V-3.172A3.4,3.4,0,0,1,42.2-.884,2.5,2.5,0,0,1,40.2,0,4.034,4.034,0,0,1,37.57-.91a2.806,2.806,0,0,1-1.118-2.262V-33.228a3.071,3.071,0,0,1,.91-2.262,3.071,3.071,0,0,1,2.262-.91H54.6a9.638,9.638,0,0,1,5.1,1.456,10.746,10.746,0,0,1,3.822,4,11.484,11.484,0,0,1,1.43,5.72,10.14,10.14,0,0,1-1.4,5.07,11.188,11.188,0,0,1-3.64,3.926,7.967,7.967,0,0,1,3.588,6.136,8.743,8.743,0,0,1,.156,1.612,16.564,16.564,0,0,0,.416,2.314A1.715,1.715,0,0,0,65-5.1ZM54.34-18.616a2.589,2.589,0,0,0,1.82-.884,6.711,6.711,0,0,0,1.456-2.366,8.806,8.806,0,0,0,.572-3.2,6.238,6.238,0,0,0-.572-2.678,5.486,5.486,0,0,0-1.456-1.95,2.842,2.842,0,0,0-1.82-.728H42.952v11.8ZM97.76-36.452a2.86,2.86,0,0,1,2.184.884,3.2,3.2,0,0,1,.832,2.288v18.824a15.673,15.673,0,0,1-1.82,7.644,13.13,13.13,0,0,1-5.1,5.2A14.823,14.823,0,0,1,86.372.26a14.966,14.966,0,0,1-7.514-1.872,13.081,13.081,0,0,1-5.122-5.2,15.673,15.673,0,0,1-1.82-7.644V-33.28a3.027,3.027,0,0,1,.936-2.262,3.289,3.289,0,0,1,2.392-.91,3.035,3.035,0,0,1,2.184.91,3.027,3.027,0,0,1,.936,2.262v18.824a8.943,8.943,0,0,0,1.092,4.446,7.619,7.619,0,0,0,2.938,2.99,7.972,7.972,0,0,0,3.978,1.04,8.762,8.762,0,0,0,4.186-1.04,7.952,7.952,0,0,0,3.12-2.99,8.472,8.472,0,0,0,1.17-4.446V-33.28a3.33,3.33,0,0,1,.78-2.288A2.7,2.7,0,0,1,97.76-36.452Zm36.608,3.12a3.473,3.473,0,0,1-.572,1.924L122.928-15.86V-3.172a3.118,3.118,0,0,1-.884,2.262,2.864,2.864,0,0,1-2.132.91,3.009,3.009,0,0,1-2.21-.91,3.071,3.071,0,0,1-.91-2.262V-16.588L105.976-30.94a4.09,4.09,0,0,1-.936-2.444,2.856,2.856,0,0,1,1.066-2.262,3.435,3.435,0,0,1,2.262-.91,3.149,3.149,0,0,1,2.548,1.456l9.152,12.636L128.648-35a3.142,3.142,0,0,1,2.6-1.56,2.993,2.993,0,0,1,2.184.936A3.112,3.112,0,0,1,134.368-33.332ZM159.64-5.98a3.071,3.071,0,0,1,2.262.91,2.891,2.891,0,0,1,.91,2.106,2.759,2.759,0,0,1-.91,2.132A3.226,3.226,0,0,1,159.64,0H142.22a3.071,3.071,0,0,1-2.262-.91,3.071,3.071,0,0,1-.91-2.262V-33.228a3.071,3.071,0,0,1,.91-2.262,3.071,3.071,0,0,1,2.262-.91h17.42a3.17,3.17,0,0,1,2.262.858,2.9,2.9,0,0,1,.91,2.21,2.716,2.716,0,0,1-.884,2.106,3.264,3.264,0,0,1-2.288.806H145.548v8.84H157.3a3.17,3.17,0,0,1,2.262.858,2.9,2.9,0,0,1,.91,2.21,2.716,2.716,0,0,1-.884,2.106,3.264,3.264,0,0,1-2.288.806H145.548v9.62Zm-1.768-35.36a4.225,4.225,0,0,1,.624.832,1.609,1.609,0,0,1,.156.728,1.189,1.189,0,0,1-.468.884,1.661,1.661,0,0,1-1.144.416,2.545,2.545,0,0,1-1.04-.26,17.51,17.51,0,0,1-1.612-.884l-3.38-1.976-3.38,1.976q-.832.468-1.508.806a2.676,2.676,0,0,1-1.144.338,1.661,1.661,0,0,1-1.144-.416,1.189,1.189,0,0,1-.468-.884,1.608,1.608,0,0,1,.156-.728,4.225,4.225,0,0,1,.624-.832l3.276-3.744a4.642,4.642,0,0,1,1.4-1.144,3.921,3.921,0,0,1,1.768-.364h.832a3.961,3.961,0,0,1,1.742.364,4.522,4.522,0,0,1,1.43,1.144Zm.78-4.264a2.674,2.674,0,0,1-1.2-.312l-5.2-2.756a4.072,4.072,0,0,1-1.43-1.248,2.651,2.651,0,0,1-.494-1.508,2.264,2.264,0,0,1,.884-1.82,2.9,2.9,0,0,1,1.872-.728,4.059,4.059,0,0,1,2.548,1.144l4.472,3.952a1.936,1.936,0,0,1,.728,1.4,1.707,1.707,0,0,1-.6,1.352A2.331,2.331,0,0,1,158.652-45.6ZM196.4-36.4a2.653,2.653,0,0,1,2.028.832,2.923,2.923,0,0,1,.78,2.08V-3.172A3.071,3.071,0,0,1,198.3-.91,3.071,3.071,0,0,1,196.04,0a4.494,4.494,0,0,1-1.43-.234,2.023,2.023,0,0,1-1.014-.65L174.512-25.116v22.2a2.87,2.87,0,0,1-.806,2.08A2.8,2.8,0,0,1,171.6,0a2.653,2.653,0,0,1-2.028-.832,2.923,2.923,0,0,1-.78-2.08V-33.228a3.071,3.071,0,0,1,.91-2.262,3.071,3.071,0,0,1,2.262-.91,3.979,3.979,0,0,1,1.534.312,2.469,2.469,0,0,1,1.118.832l18.928,24.128v-22.36a2.87,2.87,0,0,1,.806-2.08A2.736,2.736,0,0,1,196.4-36.4Zm49.088,0a3.2,3.2,0,0,1,2.288.832,2.86,2.86,0,0,1,.884,2.184,2.778,2.778,0,0,1-.884,2.158,3.264,3.264,0,0,1-2.288.806h-8.164V-3.172A2.95,2.95,0,0,1,236.34-.91,3.472,3.472,0,0,1,233.9,0,3.289,3.289,0,0,1,231.5-.91a3.027,3.027,0,0,1-.936-2.262V-30.42H222.4a3.2,3.2,0,0,1-2.288-.832,2.86,2.86,0,0,1-.884-2.184,2.759,2.759,0,0,1,.91-2.132A3.226,3.226,0,0,1,222.4-36.4Zm35,0a3.163,3.163,0,0,1,2.34.884,3.1,3.1,0,0,1,.884,2.288V-3.172a3.027,3.027,0,0,1-.936,2.262,3.289,3.289,0,0,1-2.392.91,3.1,3.1,0,0,1-2.236-.91,3.027,3.027,0,0,1-.936-2.262V-15.288H260.624V-3.172a2.95,2.95,0,0,1-.988,2.262,3.275,3.275,0,0,1-2.288.91,3.135,3.135,0,0,1-2.314-.91,3.071,3.071,0,0,1-.91-2.262V-33.228a3.027,3.027,0,0,1,.936-2.262,3.289,3.289,0,0,1,2.392-.91,3.1,3.1,0,0,1,2.236.91,3.027,3.027,0,0,1,.936,2.262v11.96h16.588v-11.96a2.95,2.95,0,0,1,.988-2.262A3.275,3.275,0,0,1,280.488-36.4ZM325-18.2a19.739,19.739,0,0,1-2.288,9.438,17.522,17.522,0,0,1-6.318,6.786A16.881,16.881,0,0,1,307.32.52a16.881,16.881,0,0,1-9.074-2.5,17.331,17.331,0,0,1-6.292-6.786,19.921,19.921,0,0,1-2.262-9.438,19.921,19.921,0,0,1,2.262-9.438,17.331,17.331,0,0,1,6.292-6.786,16.881,16.881,0,0,1,9.074-2.5,16.881,16.881,0,0,1,9.074,2.5,17.522,17.522,0,0,1,6.318,6.786A19.739,19.739,0,0,1,325-18.2Zm-6.76,0a14.036,14.036,0,0,0-1.4-6.318,11.331,11.331,0,0,0-3.9-4.5,9.9,9.9,0,0,0-5.616-1.664,9.975,9.975,0,0,0-5.642,1.638,10.986,10.986,0,0,0-3.848,4.5,14.424,14.424,0,0,0-1.378,6.344,14.424,14.424,0,0,0,1.378,6.344,10.986,10.986,0,0,0,3.848,4.5A9.975,9.975,0,0,0,307.32-5.72a9.9,9.9,0,0,0,5.616-1.664,11.331,11.331,0,0,0,3.9-4.5A14.036,14.036,0,0,0,318.24-18.2Zm-4.056-23.14a4.223,4.223,0,0,1,.624.832,1.608,1.608,0,0,1,.156.728,1.189,1.189,0,0,1-.468.884,1.661,1.661,0,0,1-1.144.416,2.545,2.545,0,0,1-1.04-.26,17.508,17.508,0,0,1-1.612-.884L307.32-41.6l-3.38,1.976q-.832.468-1.508.806a2.676,2.676,0,0,1-1.144.338,1.661,1.661,0,0,1-1.144-.416,1.189,1.189,0,0,1-.468-.884,1.608,1.608,0,0,1,.156-.728,4.226,4.226,0,0,1,.624-.832l3.276-3.744a4.642,4.642,0,0,1,1.4-1.144,3.921,3.921,0,0,1,1.768-.364h.832a3.961,3.961,0,0,1,1.742.364,4.522,4.522,0,0,1,1.43,1.144Zm44.408,4.94a2.653,2.653,0,0,1,2.028.832,2.923,2.923,0,0,1,.78,2.08V-3.172a3.071,3.071,0,0,1-.91,2.262,3.071,3.071,0,0,1-2.262.91,4.494,4.494,0,0,1-1.43-.234,2.022,2.022,0,0,1-1.014-.65L336.7-25.116v22.2a2.87,2.87,0,0,1-.806,2.08A2.8,2.8,0,0,1,333.788,0a2.653,2.653,0,0,1-2.028-.832,2.923,2.923,0,0,1-.78-2.08V-33.228a3.071,3.071,0,0,1,.91-2.262,3.071,3.071,0,0,1,2.262-.91,3.979,3.979,0,0,1,1.534.312,2.469,2.469,0,0,1,1.118.832l18.928,24.128v-22.36a2.87,2.87,0,0,1,.806-2.08A2.736,2.736,0,0,1,358.592-36.4Zm37.44,16.744a2.985,2.985,0,0,1,2.236.91,3.118,3.118,0,0,1,.884,2.262V-5.46a3.119,3.119,0,0,1-1.612,2.808A20.747,20.747,0,0,1,386.36.52,18.7,18.7,0,0,1,376.844-2a18.891,18.891,0,0,1-6.916-6.812A18.045,18.045,0,0,1,367.38-18.2a18.045,18.045,0,0,1,2.548-9.386,18.891,18.891,0,0,1,6.916-6.812,18.7,18.7,0,0,1,9.516-2.522,18.332,18.332,0,0,1,8.944,2.08,2.862,2.862,0,0,1,1.17,1.092,2.865,2.865,0,0,1,.39,1.456,3.289,3.289,0,0,1-.858,2.262,2.714,2.714,0,0,1-2.106.962,4.267,4.267,0,0,1-1.716-.416,14.718,14.718,0,0,0-5.824-1.2,11.68,11.68,0,0,0-6.136,1.69,12.437,12.437,0,0,0-4.446,4.55,12.339,12.339,0,0,0-1.638,6.24,12.339,12.339,0,0,0,1.638,6.24,12.437,12.437,0,0,0,4.446,4.55,11.68,11.68,0,0,0,6.136,1.69,20.27,20.27,0,0,0,3.12-.26,18.123,18.123,0,0,0,2.912-.676v-6.76H387.5a3.118,3.118,0,0,1-2.262-.884,2.985,2.985,0,0,1-.91-2.236,2.985,2.985,0,0,1,.91-2.236,3.118,3.118,0,0,1,2.262-.884ZM27.82,46.8a3.2,3.2,0,0,1,2.288.832,2.86,2.86,0,0,1,.884,2.184,2.778,2.778,0,0,1-.884,2.158,3.264,3.264,0,0,1-2.288.806H19.656V80.028a2.95,2.95,0,0,1-.988,2.262,3.472,3.472,0,0,1-2.444.91,3.289,3.289,0,0,1-2.392-.91,3.027,3.027,0,0,1-.936-2.262V52.78H4.732a3.2,3.2,0,0,1-2.288-.832,2.86,2.86,0,0,1-.884-2.184,2.759,2.759,0,0,1,.91-2.132A3.226,3.226,0,0,1,4.732,46.8Zm35,0a3.163,3.163,0,0,1,2.34.884,3.1,3.1,0,0,1,.884,2.288V80.028A3.027,3.027,0,0,1,65.1,82.29a3.289,3.289,0,0,1-2.392.91,3.1,3.1,0,0,1-2.236-.91,3.027,3.027,0,0,1-.936-2.262V67.912H42.952V80.028a2.95,2.95,0,0,1-.988,2.262,3.275,3.275,0,0,1-2.288.91,3.135,3.135,0,0,1-2.314-.91,3.071,3.071,0,0,1-.91-2.262V49.972a3.027,3.027,0,0,1,.936-2.262,3.289,3.289,0,0,1,2.392-.91,3.1,3.1,0,0,1,2.236.91,3.027,3.027,0,0,1,.936,2.262v11.96H59.54V49.972a2.95,2.95,0,0,1,.988-2.262A3.275,3.275,0,0,1,62.816,46.8Zm45.864-3.224a8.527,8.527,0,0,1-1.482,4.992,7.741,7.741,0,0,1-4.5,2.964V68.744a15.673,15.673,0,0,1-1.82,7.644,13.13,13.13,0,0,1-5.1,5.2,15.964,15.964,0,0,1-15,0,13.081,13.081,0,0,1-5.122-5.2,15.673,15.673,0,0,1-1.82-7.644V49.92a3.027,3.027,0,0,1,.936-2.262,3.289,3.289,0,0,1,2.392-.91,3.152,3.152,0,0,1,3.12,3.172V68.744A8.943,8.943,0,0,0,81.38,73.19a7.619,7.619,0,0,0,2.938,2.99A7.972,7.972,0,0,0,88.3,77.22a8.761,8.761,0,0,0,4.186-1.04,7.952,7.952,0,0,0,3.12-2.99,8.472,8.472,0,0,0,1.17-4.446V49.92a3.473,3.473,0,0,1,.6-2.08,2.589,2.589,0,0,1,1.69-1.04h.052a2.093,2.093,0,0,1,.572-.052h.26q3.536-.312,3.536-3.172a2.927,2.927,0,0,1,.7-1.9,2.381,2.381,0,0,1,1.95-.858,2.22,2.22,0,0,1,1.924.858A3.153,3.153,0,0,1,108.68,43.576Zm28.444,6.448a17.472,17.472,0,0,1,5.044,6.474,19.966,19.966,0,0,1,1.82,8.5,19.739,19.739,0,0,1-2.288,9.438,17.523,17.523,0,0,1-6.318,6.786,17.742,17.742,0,0,1-18.148,0,17.331,17.331,0,0,1-6.292-6.786,20.821,20.821,0,0,1,0-18.876,17.331,17.331,0,0,1,6.292-6.786,16.881,16.881,0,0,1,9.074-2.5,18.1,18.1,0,0,1,4.784.624q3.484-.364,3.484-3.172a2.927,2.927,0,0,1,.7-1.9,2.381,2.381,0,0,1,1.95-.858,2.22,2.22,0,0,1,1.924.858,3.153,3.153,0,0,1,.624,1.9,9.429,9.429,0,0,1-.65,3.51A6.95,6.95,0,0,1,137.124,50.024ZM126.308,77.48a9.9,9.9,0,0,0,5.616-1.664,11.332,11.332,0,0,0,3.9-4.5,14.917,14.917,0,0,0,0-12.636,11.331,11.331,0,0,0-3.9-4.5,10.421,10.421,0,0,0-11.258-.026,10.986,10.986,0,0,0-3.848,4.5,15.292,15.292,0,0,0,0,12.688,10.986,10.986,0,0,0,3.848,4.5A9.975,9.975,0,0,0,126.308,77.48ZM177.58,46.8a2.653,2.653,0,0,1,2.028.832,2.923,2.923,0,0,1,.78,2.08V80.028a3.109,3.109,0,0,1-3.172,3.172,4.494,4.494,0,0,1-1.43-.234,2.023,2.023,0,0,1-1.014-.65L155.688,58.084v22.2a2.87,2.87,0,0,1-.806,2.08,2.8,2.8,0,0,1-2.106.832,2.653,2.653,0,0,1-2.028-.832,2.923,2.923,0,0,1-.78-2.08V49.972A3.109,3.109,0,0,1,153.14,46.8a3.979,3.979,0,0,1,1.534.312,2.469,2.469,0,0,1,1.118.832L174.72,72.072V49.712a2.87,2.87,0,0,1,.806-2.08A2.736,2.736,0,0,1,177.58,46.8Zm37.44,16.744a2.985,2.985,0,0,1,2.236.91,3.118,3.118,0,0,1,.884,2.262V77.74a3.119,3.119,0,0,1-1.612,2.808,20.747,20.747,0,0,1-11.18,3.172,18.7,18.7,0,0,1-9.516-2.522,18.891,18.891,0,0,1-6.916-6.812,18.561,18.561,0,0,1,0-18.772,18.891,18.891,0,0,1,6.916-6.812,18.7,18.7,0,0,1,9.516-2.522,18.332,18.332,0,0,1,8.944,2.08,2.821,2.821,0,0,1,1.56,2.548,3.289,3.289,0,0,1-.858,2.262,2.714,2.714,0,0,1-2.106.962,4.267,4.267,0,0,1-1.716-.416,14.718,14.718,0,0,0-5.824-1.2,11.68,11.68,0,0,0-6.136,1.69,12.592,12.592,0,0,0,0,21.58,11.68,11.68,0,0,0,6.136,1.69,20.27,20.27,0,0,0,3.12-.26,18.123,18.123,0,0,0,2.912-.676v-6.76h-4.888a3.118,3.118,0,0,1-2.262-.884,3.2,3.2,0,0,1,0-4.472,3.118,3.118,0,0,1,2.262-.884ZM265.3,46.8a3.163,3.163,0,0,1,2.34.884,3.1,3.1,0,0,1,.884,2.288V80.028a3.027,3.027,0,0,1-.936,2.262,3.289,3.289,0,0,1-2.392.91,3.1,3.1,0,0,1-2.236-.91,3.027,3.027,0,0,1-.936-2.262V67.912H245.44V80.028a2.95,2.95,0,0,1-.988,2.262,3.275,3.275,0,0,1-2.288.91,3.135,3.135,0,0,1-2.314-.91,3.071,3.071,0,0,1-.91-2.262V49.972a3.027,3.027,0,0,1,.936-2.262,3.289,3.289,0,0,1,2.392-.91,3.1,3.1,0,0,1,2.236.91,3.027,3.027,0,0,1,.936,2.262v11.96h16.588V49.972a2.95,2.95,0,0,1,.988-2.262A3.275,3.275,0,0,1,265.3,46.8Zm17.524,33.228a2.95,2.95,0,0,1-.988,2.262,3.275,3.275,0,0,1-2.288.91,3.135,3.135,0,0,1-2.314-.91,3.071,3.071,0,0,1-.91-2.262V49.972a3.027,3.027,0,0,1,.936-2.262,3.289,3.289,0,0,1,2.392-.91,3.1,3.1,0,0,1,2.236.91,3.027,3.027,0,0,1,.936,2.262ZM311.22,77.22a3.071,3.071,0,0,1,2.262.91,2.891,2.891,0,0,1,.91,2.106,2.759,2.759,0,0,1-.91,2.132,3.226,3.226,0,0,1-2.262.832H293.8a3.109,3.109,0,0,1-3.172-3.172V49.972A3.109,3.109,0,0,1,293.8,46.8h17.42a3.17,3.17,0,0,1,2.262.858,2.9,2.9,0,0,1,.91,2.21,2.716,2.716,0,0,1-.884,2.106,3.264,3.264,0,0,1-2.288.806H297.128v8.84H308.88a3.17,3.17,0,0,1,2.262.858,2.9,2.9,0,0,1,.91,2.21,2.716,2.716,0,0,1-.884,2.106,3.264,3.264,0,0,1-2.288.806H297.128v9.62ZM301.5,90.844a4.02,4.02,0,0,1-2.444-.572,2.443,2.443,0,0,1-.728-2.028v-.988a2.357,2.357,0,0,1,.78-2.028,4.055,4.055,0,0,1,2.392-.572,4.476,4.476,0,0,1,2.652.572,2.443,2.443,0,0,1,.728,2.028v.988a2.348,2.348,0,0,1-.78,2.054A4.679,4.679,0,0,1,301.5,90.844Zm7.956-48.984a4.226,4.226,0,0,1,.624.832,1.608,1.608,0,0,1,.156.728,1.189,1.189,0,0,1-.468.884,1.661,1.661,0,0,1-1.144.416,2.545,2.545,0,0,1-1.04-.26,17.512,17.512,0,0,1-1.612-.884l-3.38-1.976-3.38,1.976q-.832.468-1.508.806a2.676,2.676,0,0,1-1.144.338,1.661,1.661,0,0,1-1.144-.416,1.189,1.189,0,0,1-.468-.884,1.608,1.608,0,0,1,.156-.728,4.223,4.223,0,0,1,.624-.832L299,38.116a4.642,4.642,0,0,1,1.4-1.144,3.921,3.921,0,0,1,1.768-.364H303a3.961,3.961,0,0,1,1.742.364,4.522,4.522,0,0,1,1.43,1.144Zm36.764,4.888a2.86,2.86,0,0,1,2.184.884,3.2,3.2,0,0,1,.832,2.288V68.744a15.673,15.673,0,0,1-1.82,7.644,13.13,13.13,0,0,1-5.1,5.2,15.964,15.964,0,0,1-15,0,13.081,13.081,0,0,1-5.122-5.2,15.673,15.673,0,0,1-1.82-7.644V49.92a3.027,3.027,0,0,1,.936-2.262,3.289,3.289,0,0,1,2.392-.91,3.152,3.152,0,0,1,3.12,3.172V68.744a8.943,8.943,0,0,0,1.092,4.446,7.619,7.619,0,0,0,2.938,2.99,7.972,7.972,0,0,0,3.978,1.04,8.761,8.761,0,0,0,4.186-1.04,7.951,7.951,0,0,0,3.12-2.99,8.472,8.472,0,0,0,1.17-4.446V49.92a3.33,3.33,0,0,1,.78-2.288A2.7,2.7,0,0,1,346.216,46.748ZM27.82,130a3.2,3.2,0,0,1,2.288.832,2.86,2.86,0,0,1,.884,2.184,2.778,2.778,0,0,1-.884,2.158,3.264,3.264,0,0,1-2.288.806H19.656v27.248a2.95,2.95,0,0,1-.988,2.262,3.472,3.472,0,0,1-2.444.91,3.289,3.289,0,0,1-2.392-.91,3.027,3.027,0,0,1-.936-2.262V135.98H4.732a3.2,3.2,0,0,1-2.288-.832,2.86,2.86,0,0,1-.884-2.184,2.759,2.759,0,0,1,.91-2.132A3.226,3.226,0,0,1,4.732,130Zm35,0a3.163,3.163,0,0,1,2.34.884,3.1,3.1,0,0,1,.884,2.288v30.056a3.027,3.027,0,0,1-.936,2.262,3.289,3.289,0,0,1-2.392.91,3.1,3.1,0,0,1-2.236-.91,3.027,3.027,0,0,1-.936-2.262V151.112H42.952v12.116a2.95,2.95,0,0,1-.988,2.262,3.275,3.275,0,0,1-2.288.91,3.135,3.135,0,0,1-2.314-.91,3.071,3.071,0,0,1-.91-2.262V133.172a3.027,3.027,0,0,1,.936-2.262A3.289,3.289,0,0,1,39.78,130a3.1,3.1,0,0,1,2.236.91,3.027,3.027,0,0,1,.936,2.262v11.96H59.54v-11.96a2.95,2.95,0,0,1,.988-2.262A3.275,3.275,0,0,1,62.816,130Zm31.616,30.42a3.071,3.071,0,0,1,2.262.91,2.891,2.891,0,0,1,.91,2.106,2.759,2.759,0,0,1-.91,2.132,3.226,3.226,0,0,1-2.262.832H77.012a3.109,3.109,0,0,1-3.172-3.172V133.172A3.109,3.109,0,0,1,77.012,130h17.42a3.17,3.17,0,0,1,2.262.858,2.9,2.9,0,0,1,.91,2.21,2.716,2.716,0,0,1-.884,2.106,3.264,3.264,0,0,1-2.288.806H80.34v8.84H92.092a3.17,3.17,0,0,1,2.262.858,2.9,2.9,0,0,1,.91,2.21,2.716,2.716,0,0,1-.884,2.106,3.264,3.264,0,0,1-2.288.806H80.34v9.62Zm45.552-14.2a10.469,10.469,0,0,1,4.5,3.328,9.119,9.119,0,0,1,1.742,5.772q0,6.188-3.536,8.632a14.446,14.446,0,0,1-8.424,2.444H121.316a3.109,3.109,0,0,1-3.172-3.172V133.172A3.109,3.109,0,0,1,121.316,130h13.1q9.88,0,9.88,9.256a7.653,7.653,0,0,1-1.118,4.134A7.739,7.739,0,0,1,139.984,146.224ZM137.54,140.4a4.343,4.343,0,0,0-1.066-3.2,4.042,4.042,0,0,0-2.99-1.066H124.9v8.112h8.736a3.981,3.981,0,0,0,2.73-1.04A3.568,3.568,0,0,0,137.54,140.4Zm-3.276,20.02a5.348,5.348,0,0,0,3.822-1.3,4.971,4.971,0,0,0,1.378-3.8q0-3.068-1.612-4a7.754,7.754,0,0,0-3.952-.936h-9V160.42Zm46.488,1.924a3.5,3.5,0,0,1,.26,1.248,2.944,2.944,0,0,1-.884,2.21,2.83,2.83,0,0,1-2.028.858,2.727,2.727,0,0,1-1.69-.572,3.717,3.717,0,0,1-1.17-1.56l-2.7-6.292h-15.5l-2.7,6.344a3.2,3.2,0,0,1-1.118,1.534,2.647,2.647,0,0,1-4.394-2.158,3.441,3.441,0,0,1,.156-.988l12.948-31.1a3.451,3.451,0,0,1,1.248-1.612,2.724,2.724,0,0,1,1.872-.468,3.046,3.046,0,0,1,1.742.546,3.08,3.08,0,0,1,1.17,1.534Zm-21.164-10.088h10.4l-5.252-12.168Zm51.064-20.488a2.784,2.784,0,0,1,1.612,2.652,3.52,3.52,0,0,1-.78,2.132,2.568,2.568,0,0,1-2.132,1.092,3.749,3.749,0,0,1-1.768-.468,12.809,12.809,0,0,0-5.512-1.2,12.641,12.641,0,0,0-6.344,1.534,10.4,10.4,0,0,0-4.16,4.316,13.535,13.535,0,0,0-1.456,6.37q0,6.136,3.3,9.308a13.364,13.364,0,0,0,14.17,1.976,4.178,4.178,0,0,1,1.664-.416,2.855,2.855,0,0,1,2.288,1.144,3.374,3.374,0,0,1,.78,2.132,2.82,2.82,0,0,1-.416,1.508,2.706,2.706,0,0,1-1.2,1.04,19.043,19.043,0,0,1-8.632,2.028,20.428,20.428,0,0,1-9.36-2.158,16.607,16.607,0,0,1-6.812-6.37,19.337,19.337,0,0,1-2.548-10.192,18.767,18.767,0,0,1,2.418-9.516,17.166,17.166,0,0,1,6.682-6.578,19.489,19.489,0,0,1,9.62-2.366A18.518,18.518,0,0,1,210.652,131.768ZM244.14,130a3.163,3.163,0,0,1,2.34.884,3.1,3.1,0,0,1,.884,2.288v30.056a3.027,3.027,0,0,1-.936,2.262,3.289,3.289,0,0,1-2.392.91,3.1,3.1,0,0,1-2.236-.91,3.027,3.027,0,0,1-.936-2.262V151.112H224.276v12.116a2.95,2.95,0,0,1-.988,2.262,3.275,3.275,0,0,1-2.288.91,3.135,3.135,0,0,1-2.314-.91,3.071,3.071,0,0,1-.91-2.262V133.172a3.027,3.027,0,0,1,.936-2.262A3.289,3.289,0,0,1,221.1,130a3.1,3.1,0,0,1,2.236.91,3.027,3.027,0,0,1,.936,2.262v11.96h16.588v-11.96a2.95,2.95,0,0,1,.988-2.262A3.275,3.275,0,0,1,244.14,130Zm37.284,36.92a21.736,21.736,0,0,1-6.656-.936,15.408,15.408,0,0,1-5.46-3.172,3.651,3.651,0,0,1-1.4-2.756,2.932,2.932,0,0,1,.884-2.106,2.864,2.864,0,0,1,2.132-.91,2.755,2.755,0,0,1,1.768.624,15.307,15.307,0,0,0,4.056,2.5,12.723,12.723,0,0,0,4.68.78,9.364,9.364,0,0,0,5.018-1.3,3.766,3.766,0,0,0,2.106-3.224,4.134,4.134,0,0,0-2.08-3.666,17.629,17.629,0,0,0-6.6-2q-11.388-1.664-11.388-10.608a9.583,9.583,0,0,1,1.716-5.694,10.835,10.835,0,0,1,4.68-3.692,16.558,16.558,0,0,1,6.6-1.274,18.9,18.9,0,0,1,6.162.988,14.942,14.942,0,0,1,4.81,2.6,3.47,3.47,0,0,1,1.508,2.756,2.932,2.932,0,0,1-.884,2.106,2.807,2.807,0,0,1-2.08.91,2.282,2.282,0,0,1-1.4-.468,13.735,13.735,0,0,0-3.77-2,12.5,12.5,0,0,0-4.342-.91,8.946,8.946,0,0,0-5.07,1.222,3.881,3.881,0,0,0,.052,6.578,17.511,17.511,0,0,0,5.8,1.872,30.074,30.074,0,0,1,7.15,2,9.125,9.125,0,0,1,4.03,3.328,10.224,10.224,0,0,1,1.352,5.59,9.336,9.336,0,0,1-1.846,5.746,11.869,11.869,0,0,1-4.914,3.8A16.465,16.465,0,0,1,281.424,166.92Zm45.188-36.972a2.86,2.86,0,0,1,2.184.884,3.2,3.2,0,0,1,.832,2.288v18.824a15.673,15.673,0,0,1-1.82,7.644,13.13,13.13,0,0,1-5.1,5.2,15.964,15.964,0,0,1-15,0,13.081,13.081,0,0,1-5.122-5.2,15.673,15.673,0,0,1-1.82-7.644V133.12a3.027,3.027,0,0,1,.936-2.262,3.289,3.289,0,0,1,2.392-.91,3.152,3.152,0,0,1,3.12,3.172v18.824a8.943,8.943,0,0,0,1.092,4.446,7.619,7.619,0,0,0,2.938,2.99,7.972,7.972,0,0,0,3.978,1.04,8.761,8.761,0,0,0,4.186-1.04,7.951,7.951,0,0,0,3.12-2.99,8.472,8.472,0,0,0,1.17-4.446V133.12a3.33,3.33,0,0,1,.78-2.288A2.7,2.7,0,0,1,326.612,129.948Zm17.316,33.28a2.95,2.95,0,0,1-.988,2.262,3.275,3.275,0,0,1-2.288.91,3.135,3.135,0,0,1-2.314-.91,3.071,3.071,0,0,1-.91-2.262V133.172a3.027,3.027,0,0,1,.936-2.262,3.289,3.289,0,0,1,2.392-.91,3.1,3.1,0,0,1,2.236.91,3.027,3.027,0,0,1,.936,2.262ZM375.648,130a3.2,3.2,0,0,1,2.288.832,2.86,2.86,0,0,1,.884,2.184,2.778,2.778,0,0,1-.884,2.158,3.264,3.264,0,0,1-2.288.806h-8.164v27.248a2.95,2.95,0,0,1-.988,2.262,3.472,3.472,0,0,1-2.444.91,3.289,3.289,0,0,1-2.392-.91,3.027,3.027,0,0,1-.936-2.262V135.98H352.56a3.2,3.2,0,0,1-2.288-.832,2.86,2.86,0,0,1-.884-2.184,2.759,2.759,0,0,1,.91-2.132A3.226,3.226,0,0,1,352.56,130Zm29.224,30.42a3.071,3.071,0,0,1,2.262.91,2.891,2.891,0,0,1,.91,2.106,2.759,2.759,0,0,1-.91,2.132,3.226,3.226,0,0,1-2.262.832h-17.42a3.109,3.109,0,0,1-3.172-3.172V133.172A3.109,3.109,0,0,1,387.452,130h17.42a3.17,3.17,0,0,1,2.262.858,2.9,2.9,0,0,1,.91,2.21,2.716,2.716,0,0,1-.884,2.106,3.264,3.264,0,0,1-2.288.806H390.78v8.84h11.752a3.17,3.17,0,0,1,2.262.858,2.9,2.9,0,0,1,.91,2.21,2.716,2.716,0,0,1-.884,2.106,3.264,3.264,0,0,1-2.288.806H390.78v9.62Zm20.852,6.5a21.736,21.736,0,0,1-6.656-.936,15.408,15.408,0,0,1-5.46-3.172,3.651,3.651,0,0,1-1.4-2.756,2.932,2.932,0,0,1,.884-2.106,2.864,2.864,0,0,1,2.132-.91,2.755,2.755,0,0,1,1.768.624,15.307,15.307,0,0,0,4.056,2.5,12.723,12.723,0,0,0,4.68.78,9.364,9.364,0,0,0,5.018-1.3,3.766,3.766,0,0,0,2.106-3.224,4.134,4.134,0,0,0-2.08-3.666,17.629,17.629,0,0,0-6.6-2q-11.388-1.664-11.388-10.608a9.583,9.583,0,0,1,1.716-5.694,10.835,10.835,0,0,1,4.68-3.692,16.558,16.558,0,0,1,6.6-1.274,18.9,18.9,0,0,1,6.162.988,14.942,14.942,0,0,1,4.81,2.6,3.47,3.47,0,0,1,1.508,2.756,2.932,2.932,0,0,1-.884,2.106,2.807,2.807,0,0,1-2.08.91,2.282,2.282,0,0,1-1.4-.468,13.735,13.735,0,0,0-3.77-2,12.5,12.5,0,0,0-4.342-.91,8.946,8.946,0,0,0-5.07,1.222,3.881,3.881,0,0,0,.052,6.578,17.511,17.511,0,0,0,5.8,1.872,30.074,30.074,0,0,1,7.15,2,9.125,9.125,0,0,1,4.03,3.328,10.224,10.224,0,0,1,1.352,5.59,9.336,9.336,0,0,1-1.846,5.746,11.869,11.869,0,0,1-4.914,3.8A16.465,16.465,0,0,1,425.724,166.92Z" transform="translate(-1.56 53.976)" fill="url(#linear-gradient)"/>
</svg>
