<svg xmlns="http://www.w3.org/2000/svg" xmlns:xlink="http://www.w3.org/1999/xlink" width="418.992" height="114.576" viewBox="0 0 418.992 114.576">
  <defs>
    <linearGradient id="linear-gradient" x1="0.027" y1="1" x2="0.957" y2="0.201" gradientUnits="objectBoundingBox">
      <stop offset="0" stop-color="#7a0000"/>
      <stop offset="1" stop-color="#c13232"/>
    </linearGradient>
  </defs>
  <path id="Path_2946" data-name="Path 2946" d="M25.68,14.4a2.957,2.957,0,0,1,2.112.768,2.64,2.64,0,0,1,.816,2.016,2.564,2.564,0,0,1-.816,1.992,3.013,3.013,0,0,1-2.112.744H18.144V45.072a2.723,2.723,0,0,1-.912,2.088,3.2,3.2,0,0,1-2.256.84,3.036,3.036,0,0,1-2.208-.84,2.794,2.794,0,0,1-.864-2.088V19.92H4.368a2.957,2.957,0,0,1-2.112-.768,2.64,2.64,0,0,1-.816-2.016,2.547,2.547,0,0,1,.84-1.968A2.978,2.978,0,0,1,4.368,14.4Zm32.3,0a2.92,2.92,0,0,1,2.16.816,2.858,2.858,0,0,1,.816,2.112V45.072A2.794,2.794,0,0,1,60.1,47.16a3.036,3.036,0,0,1-2.208.84,2.857,2.857,0,0,1-2.064-.84,2.794,2.794,0,0,1-.864-2.088V33.888H39.648V45.072a2.723,2.723,0,0,1-.912,2.088,3.023,3.023,0,0,1-2.112.84,2.894,2.894,0,0,1-2.136-.84,2.835,2.835,0,0,1-.84-2.088V17.328a2.794,2.794,0,0,1,.864-2.088,3.036,3.036,0,0,1,2.208-.84,2.857,2.857,0,0,1,2.064.84,2.794,2.794,0,0,1,.864,2.088v11.04H54.96V17.328a2.723,2.723,0,0,1,.912-2.088A3.023,3.023,0,0,1,57.984,14.4ZM74.16,45.072a2.723,2.723,0,0,1-.912,2.088,3.023,3.023,0,0,1-2.112.84A2.894,2.894,0,0,1,69,47.16a2.835,2.835,0,0,1-.84-2.088V17.328a2.794,2.794,0,0,1,.864-2.088,3.036,3.036,0,0,1,2.208-.84,2.857,2.857,0,0,1,2.064.84,2.794,2.794,0,0,1,.864,2.088Zm26.208-2.592a2.835,2.835,0,0,1,2.088.84,2.669,2.669,0,0,1,.84,1.944,2.547,2.547,0,0,1-.84,1.968,2.978,2.978,0,0,1-2.088.768H84.288a2.87,2.87,0,0,1-2.928-2.928V17.328A2.87,2.87,0,0,1,84.288,14.4h16.08a2.926,2.926,0,0,1,2.088.792,2.678,2.678,0,0,1,.84,2.04,2.507,2.507,0,0,1-.816,1.944,3.013,3.013,0,0,1-2.112.744H87.36v8.16H98.208a2.926,2.926,0,0,1,2.088.792,2.678,2.678,0,0,1,.84,2.04,2.507,2.507,0,0,1-.816,1.944,3.013,3.013,0,0,1-2.112.744H87.36v8.88ZM98.736,9.84a3.9,3.9,0,0,1,.576.768,1.485,1.485,0,0,1,.144.672,1.1,1.1,0,0,1-.432.816,1.533,1.533,0,0,1-1.056.384,2.349,2.349,0,0,1-.96-.24,16.164,16.164,0,0,1-1.488-.816L92.4,9.6l-3.12,1.824q-.768.432-1.392.744a2.47,2.47,0,0,1-1.056.312,1.533,1.533,0,0,1-1.056-.384,1.1,1.1,0,0,1-.432-.816,1.485,1.485,0,0,1,.144-.672,3.9,3.9,0,0,1,.576-.768l3.024-3.456a4.285,4.285,0,0,1,1.3-1.056,3.619,3.619,0,0,1,1.632-.336h.768a3.657,3.657,0,0,1,1.608.336,4.174,4.174,0,0,1,1.32,1.056Zm2.3-1.008a2.152,2.152,0,0,1-1.464-.48A1.576,1.576,0,0,1,99.024,7.1a1.787,1.787,0,0,1,.672-1.3l4.128-3.648A3.747,3.747,0,0,1,106.176,1.1a2.678,2.678,0,0,1,1.728.672,2.09,2.09,0,0,1,.816,1.68,2.558,2.558,0,0,1-.456,1.416A3.29,3.29,0,0,1,106.944,6l-4.8,2.544A2.1,2.1,0,0,1,101.04,8.832ZM130.9,14.4a2.957,2.957,0,0,1,2.112.768,2.64,2.64,0,0,1,.816,2.016,2.564,2.564,0,0,1-.816,1.992,3.013,3.013,0,0,1-2.112.744H123.36V45.072a2.723,2.723,0,0,1-.912,2.088,3.2,3.2,0,0,1-2.256.84,3.036,3.036,0,0,1-2.208-.84,2.794,2.794,0,0,1-.864-2.088V19.92h-7.536a2.957,2.957,0,0,1-2.112-.768,2.64,2.64,0,0,1-.816-2.016,2.547,2.547,0,0,1,.84-1.968,2.978,2.978,0,0,1,2.088-.768Zm47.136,28.608a3.425,3.425,0,0,1,.48.936,3.152,3.152,0,0,1,.192,1.032,2.756,2.756,0,0,1-.984,2.16,3.351,3.351,0,0,1-2.28.864,2.651,2.651,0,0,1-1.2-.288,2.622,2.622,0,0,1-.96-.816L162.864,33.168l-4.56,4.368v7.536a2.814,2.814,0,0,1-.84,2.112A3,3,0,0,1,155.28,48a2.894,2.894,0,0,1-2.136-.84,2.835,2.835,0,0,1-.84-2.088V17.328a2.794,2.794,0,0,1,.864-2.088,3.036,3.036,0,0,1,2.208-.84,2.8,2.8,0,0,1,2.928,2.928V30.384l15.36-15.12a3.3,3.3,0,0,1,2.352-1.1,2.362,2.362,0,0,1,1.872.912,2.943,2.943,0,0,1,.768,1.92,2.614,2.614,0,0,1-.864,1.872l-10.464,9.984Zm24.72-.528a2.835,2.835,0,0,1,2.088.84,2.669,2.669,0,0,1,.84,1.944,2.547,2.547,0,0,1-.84,1.968,2.978,2.978,0,0,1-2.088.768h-16.08a2.87,2.87,0,0,1-2.928-2.928V17.328a2.87,2.87,0,0,1,2.928-2.928h16.08a2.926,2.926,0,0,1,2.088.792,2.678,2.678,0,0,1,.84,2.04,2.507,2.507,0,0,1-.816,1.944,3.013,3.013,0,0,1-2.112.744H189.744v8.16h10.848a2.926,2.926,0,0,1,2.088.792,2.678,2.678,0,0,1,.84,2.04,2.507,2.507,0,0,1-.816,1.944,3.013,3.013,0,0,1-2.112.744H189.744v8.88ZM201.12,9.84a3.9,3.9,0,0,1,.576.768,1.485,1.485,0,0,1,.144.672,1.1,1.1,0,0,1-.432.816,1.533,1.533,0,0,1-1.056.384,2.349,2.349,0,0,1-.96-.24,16.163,16.163,0,0,1-1.488-.816L194.784,9.6l-3.12,1.824q-.768.432-1.392.744a2.47,2.47,0,0,1-1.056.312,1.533,1.533,0,0,1-1.056-.384,1.1,1.1,0,0,1-.432-.816,1.485,1.485,0,0,1,.144-.672,3.9,3.9,0,0,1,.576-.768l3.024-3.456a4.285,4.285,0,0,1,1.3-1.056,3.619,3.619,0,0,1,1.632-.336h.768a3.657,3.657,0,0,1,1.608.336,4.174,4.174,0,0,1,1.32,1.056Zm2.3-1.008a2.152,2.152,0,0,1-1.464-.48,1.576,1.576,0,0,1-.552-1.248,1.787,1.787,0,0,1,.672-1.3l4.128-3.648A3.747,3.747,0,0,1,208.56,1.1a2.678,2.678,0,0,1,1.728.672,2.09,2.09,0,0,1,.816,1.68,2.558,2.558,0,0,1-.456,1.416A3.29,3.29,0,0,1,209.328,6l-4.8,2.544A2.1,2.1,0,0,1,203.424,8.832ZM249.168,14.3a2.986,2.986,0,0,1,2.088.816,2.578,2.578,0,0,1,.888,1.968,3.284,3.284,0,0,1-.288,1.3L240,46.128a3.212,3.212,0,0,1-1.2,1.392,2.753,2.753,0,0,1-3.144-.024,2.969,2.969,0,0,1-1.08-1.32L222.72,18.336a2.672,2.672,0,0,1-.24-1.2,2.574,2.574,0,0,1,.96-2.088,3.074,3.074,0,0,1,1.968-.792,2.72,2.72,0,0,1,1.536.48,3.031,3.031,0,0,1,1.1,1.392l9.648,22.7,8.832-22.7a3.066,3.066,0,0,1,1.1-1.344A2.72,2.72,0,0,1,249.168,14.3Zm34.368,29.952a3.231,3.231,0,0,1,.24,1.152,2.718,2.718,0,0,1-.816,2.04,2.612,2.612,0,0,1-1.872.792,2.517,2.517,0,0,1-1.56-.528,3.431,3.431,0,0,1-1.08-1.44l-2.5-5.808h-14.3l-2.5,5.856a2.953,2.953,0,0,1-1.032,1.416,2.443,2.443,0,0,1-4.056-1.992,3.176,3.176,0,0,1,.144-.912l11.952-28.7a3.186,3.186,0,0,1,1.152-1.488,2.515,2.515,0,0,1,1.728-.432,2.812,2.812,0,0,1,1.608.5,2.843,2.843,0,0,1,1.08,1.416ZM264,34.944h9.6l-4.848-11.232Zm4.944-22.56a2.469,2.469,0,0,1-1.1-.288l-4.8-2.544A3.759,3.759,0,0,1,261.72,8.4a2.447,2.447,0,0,1-.456-1.392,2.09,2.09,0,0,1,.816-1.68,2.678,2.678,0,0,1,1.728-.672,3.747,3.747,0,0,1,2.352,1.056l4.128,3.648a1.787,1.787,0,0,1,.672,1.3,1.576,1.576,0,0,1-.552,1.248A2.152,2.152,0,0,1,268.944,12.384ZM315.168,14.4a8.29,8.29,0,0,1,4.656,1.464,10.835,10.835,0,0,1,3.552,3.936,11.472,11.472,0,0,1,0,10.776,10.783,10.783,0,0,1-3.552,3.96A8.29,8.29,0,0,1,315.168,36h-8.352v9.072a2.957,2.957,0,0,1-.768,2.112,2.64,2.64,0,0,1-2.016.816,2.547,2.547,0,0,1-1.968-.84,2.978,2.978,0,0,1-.768-2.088V17.328a2.87,2.87,0,0,1,2.928-2.928Zm0,16.128a2.752,2.752,0,0,0,1.8-.768,5.661,5.661,0,0,0,1.44-1.992,6.249,6.249,0,0,0,0-5.136,5.423,5.423,0,0,0-1.44-1.968,2.8,2.8,0,0,0-1.8-.744h-8.352V30.528ZM354.576,14.4a2.92,2.92,0,0,1,2.16.816,2.858,2.858,0,0,1,.816,2.112V45.072a2.794,2.794,0,0,1-.864,2.088,3.036,3.036,0,0,1-2.208.84,2.857,2.857,0,0,1-2.064-.84,2.794,2.794,0,0,1-.864-2.088V33.888H336.24V45.072a2.723,2.723,0,0,1-.912,2.088,3.023,3.023,0,0,1-2.112.84,2.894,2.894,0,0,1-2.136-.84,2.835,2.835,0,0,1-.84-2.088V17.328a2.794,2.794,0,0,1,.864-2.088,3.036,3.036,0,0,1,2.208-.84,2.857,2.857,0,0,1,2.064.84,2.794,2.794,0,0,1,.864,2.088v11.04h15.312V17.328a2.723,2.723,0,0,1,.912-2.088A3.023,3.023,0,0,1,354.576,14.4ZM391.1,44.256a3.231,3.231,0,0,1,.24,1.152,2.718,2.718,0,0,1-.816,2.04,2.612,2.612,0,0,1-1.872.792,2.517,2.517,0,0,1-1.56-.528,3.431,3.431,0,0,1-1.08-1.44l-2.5-5.808h-14.3l-2.5,5.856a2.953,2.953,0,0,1-1.032,1.416,2.443,2.443,0,0,1-4.056-1.992,3.176,3.176,0,0,1,.144-.912l11.952-28.7a3.186,3.186,0,0,1,1.152-1.488,2.515,2.515,0,0,1,1.728-.432,2.812,2.812,0,0,1,1.608.5,2.843,2.843,0,0,1,1.08,1.416Zm-19.536-9.312h9.6L376.32,23.712Zm5.088-22.368a2.152,2.152,0,0,1-1.464-.48,1.576,1.576,0,0,1-.552-1.248,1.787,1.787,0,0,1,.672-1.3L379.44,5.9a3.747,3.747,0,0,1,2.352-1.056,2.678,2.678,0,0,1,1.728.672,2.09,2.09,0,0,1,.816,1.68,2.558,2.558,0,0,1-.456,1.416,3.289,3.289,0,0,1-1.32,1.128l-4.8,2.544A2.1,2.1,0,0,1,376.656,12.576ZM417.5,14.4a2.957,2.957,0,0,1,2.112.768,2.64,2.64,0,0,1,.816,2.016,2.564,2.564,0,0,1-.816,1.992,3.013,3.013,0,0,1-2.112.744h-7.536V45.072a2.723,2.723,0,0,1-.912,2.088A3.2,3.2,0,0,1,406.8,48a3.036,3.036,0,0,1-2.208-.84,2.794,2.794,0,0,1-.864-2.088V19.92h-7.536a2.957,2.957,0,0,1-2.112-.768,2.64,2.64,0,0,1-.816-2.016,2.547,2.547,0,0,1,.84-1.968,2.978,2.978,0,0,1,2.088-.768ZM25.68,81.6a2.957,2.957,0,0,1,2.112.768,2.64,2.64,0,0,1,.816,2.016,2.564,2.564,0,0,1-.816,1.992,3.013,3.013,0,0,1-2.112.744H18.144v25.152a2.723,2.723,0,0,1-.912,2.088,3.2,3.2,0,0,1-2.256.84,3.036,3.036,0,0,1-2.208-.84,2.794,2.794,0,0,1-.864-2.088V87.12H4.368a2.957,2.957,0,0,1-2.112-.768,2.64,2.64,0,0,1-.816-2.016,2.547,2.547,0,0,1,.84-1.968A2.978,2.978,0,0,1,4.368,81.6ZM60,110.5a2.827,2.827,0,0,1,.984,1.008,2.559,2.559,0,0,1,.36,1.3,2.478,2.478,0,0,1-.576,1.584,2.711,2.711,0,0,1-2.208.864,4.31,4.31,0,0,1-2.112-.528q-3.456-1.968-3.456-8.016a3.484,3.484,0,0,0-1.128-2.736,4.707,4.707,0,0,0-3.24-1.008H39.648v9.312a3.141,3.141,0,0,1-.7,2.112,2.308,2.308,0,0,1-1.848.816,3.723,3.723,0,0,1-2.424-.84,2.59,2.59,0,0,1-1.032-2.088V84.528A2.87,2.87,0,0,1,36.576,81.6H50.4a8.9,8.9,0,0,1,4.7,1.344,9.92,9.92,0,0,1,3.528,3.7,10.6,10.6,0,0,1,1.32,5.28,9.36,9.36,0,0,1-1.3,4.68,10.327,10.327,0,0,1-3.36,3.624,7.354,7.354,0,0,1,3.312,5.664,8.071,8.071,0,0,1,.144,1.488,15.289,15.289,0,0,0,.384,2.136A1.583,1.583,0,0,0,60,110.5Zm-9.84-12.48a2.39,2.39,0,0,0,1.68-.816,6.194,6.194,0,0,0,1.344-2.184,8.128,8.128,0,0,0,.528-2.952,5.758,5.758,0,0,0-.528-2.472,5.064,5.064,0,0,0-1.344-1.8,2.623,2.623,0,0,0-1.68-.672H39.648v10.9Zm22.464,14.256a2.723,2.723,0,0,1-.912,2.088,3.023,3.023,0,0,1-2.112.84,2.894,2.894,0,0,1-2.136-.84,2.835,2.835,0,0,1-.84-2.088V84.528a2.794,2.794,0,0,1,.864-2.088A3.036,3.036,0,0,1,69.7,81.6a2.857,2.857,0,0,1,2.064.84,2.794,2.794,0,0,1,.864,2.088Zm26.208-2.592a2.835,2.835,0,0,1,2.088.84,2.669,2.669,0,0,1,.84,1.944,2.547,2.547,0,0,1-.84,1.968,2.978,2.978,0,0,1-2.088.768H82.752a2.87,2.87,0,0,1-2.928-2.928V84.528A2.87,2.87,0,0,1,82.752,81.6h16.08a2.926,2.926,0,0,1,2.088.792,2.678,2.678,0,0,1,.84,2.04,2.507,2.507,0,0,1-.816,1.944,3.013,3.013,0,0,1-2.112.744H85.824v8.16H96.672a2.926,2.926,0,0,1,2.088.792,2.678,2.678,0,0,1,.84,2.04,2.507,2.507,0,0,1-.816,1.944,3.013,3.013,0,0,1-2.112.744H85.824v8.88ZM97.2,77.04a3.9,3.9,0,0,1,.576.768,1.485,1.485,0,0,1,.144.672,1.1,1.1,0,0,1-.432.816,1.533,1.533,0,0,1-1.056.384,2.349,2.349,0,0,1-.96-.24,16.163,16.163,0,0,1-1.488-.816L90.864,76.8l-3.12,1.824q-.768.432-1.392.744a2.47,2.47,0,0,1-1.056.312A1.533,1.533,0,0,1,84.24,79.3a1.1,1.1,0,0,1-.432-.816,1.485,1.485,0,0,1,.144-.672,3.9,3.9,0,0,1,.576-.768l3.024-3.456a4.285,4.285,0,0,1,1.3-1.056,3.619,3.619,0,0,1,1.632-.336h.768a3.657,3.657,0,0,1,1.608.336,4.175,4.175,0,0,1,1.32,1.056ZM86.256,59.808a7.583,7.583,0,0,1,1.728-1.032,5.352,5.352,0,0,1,2.064-.36,4.893,4.893,0,0,1,3.816,1.272,4.254,4.254,0,0,1,1.128,2.9,4.024,4.024,0,0,1-.216,1.368,4.569,4.569,0,0,1-.7,1.224q-.1.144-.456.576a5.636,5.636,0,0,0-.528.72,1.065,1.065,0,0,0-.168.528.879.879,0,0,1-.528.84,3.127,3.127,0,0,1-1.392.264,1.685,1.685,0,0,1-.936-.264.927.927,0,0,1-.408-.84,3.171,3.171,0,0,1,.768-1.872,4.718,4.718,0,0,0,1.1-2.064,1.118,1.118,0,0,0-.48-.936,1.865,1.865,0,0,0-1.152-.36,2.116,2.116,0,0,0-.96.216q-.432.216-1.056.6a1.641,1.641,0,0,1-.768.288,1.764,1.764,0,0,1-1.2-.624,1.382,1.382,0,0,1-.432-1.008A1.921,1.921,0,0,1,86.256,59.808ZM132.768,81.6a2.449,2.449,0,0,1,1.872.768,2.7,2.7,0,0,1,.72,1.92v27.984a2.87,2.87,0,0,1-2.928,2.928,4.148,4.148,0,0,1-1.32-.216,1.867,1.867,0,0,1-.936-.6L112.56,92.016v20.5a2.65,2.65,0,0,1-.744,1.92,2.585,2.585,0,0,1-1.944.768,2.449,2.449,0,0,1-1.872-.768,2.7,2.7,0,0,1-.72-1.92V84.528a2.87,2.87,0,0,1,2.928-2.928,3.673,3.673,0,0,1,1.416.288,2.279,2.279,0,0,1,1.032.768l17.472,22.272V84.288a2.65,2.65,0,0,1,.744-1.92A2.526,2.526,0,0,1,132.768,81.6Zm61.008-.144a3.131,3.131,0,0,1,2.136.888,2.879,2.879,0,0,1,.984,2.232,3.679,3.679,0,0,1-.144.96l-9.456,27.84a2.531,2.531,0,0,1-1.008,1.3,3.118,3.118,0,0,1-1.584.528,3.028,3.028,0,0,1-1.632-.48,3.212,3.212,0,0,1-1.2-1.392l-6.816-15.5-6.864,15.5a3.212,3.212,0,0,1-1.2,1.392,3.028,3.028,0,0,1-1.632.48,3.118,3.118,0,0,1-1.584-.528,2.531,2.531,0,0,1-1.008-1.3l-9.456-27.84a3.679,3.679,0,0,1-.144-.96,2.879,2.879,0,0,1,.984-2.232,3.185,3.185,0,0,1,2.184-.888,3.08,3.08,0,0,1,1.728.5,2.564,2.564,0,0,1,1.056,1.368l7.152,21.7,6.24-14.976a3.229,3.229,0,0,1,1.1-1.368,2.534,2.534,0,0,1,1.632-.456,2.441,2.441,0,0,1,1.608.456,3.3,3.3,0,0,1,1.08,1.368l5.9,14.832,7.1-21.552a2.532,2.532,0,0,1,1.08-1.368A3.2,3.2,0,0,1,193.776,81.456Zm26.5,28.224a2.835,2.835,0,0,1,2.088.84,2.669,2.669,0,0,1,.84,1.944,2.547,2.547,0,0,1-.84,1.968,2.978,2.978,0,0,1-2.088.768h-16.08a2.87,2.87,0,0,1-2.928-2.928V84.528a2.87,2.87,0,0,1,2.928-2.928h16.08a2.926,2.926,0,0,1,2.088.792,2.678,2.678,0,0,1,.84,2.04,2.507,2.507,0,0,1-.816,1.944,3.013,3.013,0,0,1-2.112.744H207.264v8.16h10.848a2.926,2.926,0,0,1,2.088.792,2.678,2.678,0,0,1,.84,2.04,2.507,2.507,0,0,1-.816,1.944,3.013,3.013,0,0,1-2.112.744H207.264v8.88Zm28.608-13.1a9.664,9.664,0,0,1,4.152,3.072,8.417,8.417,0,0,1,1.608,5.328q0,5.712-3.264,7.968A13.335,13.335,0,0,1,243.6,115.2H231.648a2.87,2.87,0,0,1-2.928-2.928V84.528a2.87,2.87,0,0,1,2.928-2.928h12.1q9.12,0,9.12,8.544a7.064,7.064,0,0,1-1.032,3.816A7.143,7.143,0,0,1,248.88,96.576ZM246.624,91.2a4.009,4.009,0,0,0-.984-2.952,3.731,3.731,0,0,0-2.76-.984h-7.92v7.488h8.064a3.675,3.675,0,0,0,2.52-.96A3.294,3.294,0,0,0,246.624,91.2ZM243.6,109.68a4.937,4.937,0,0,0,3.528-1.2,4.589,4.589,0,0,0,1.272-3.5q0-2.832-1.488-3.7a7.158,7.158,0,0,0-3.648-.864h-8.3v9.264Zm27.36,6a20.064,20.064,0,0,1-6.144-.864,14.222,14.222,0,0,1-5.04-2.928,3.371,3.371,0,0,1-1.3-2.544,2.707,2.707,0,0,1,.816-1.944,2.644,2.644,0,0,1,1.968-.84,2.543,2.543,0,0,1,1.632.576,14.13,14.13,0,0,0,3.744,2.3,11.744,11.744,0,0,0,4.32.72,8.644,8.644,0,0,0,4.632-1.2,3.477,3.477,0,0,0,1.944-2.976,3.816,3.816,0,0,0-1.92-3.384,16.272,16.272,0,0,0-6.1-1.848q-10.512-1.536-10.512-9.792a8.846,8.846,0,0,1,1.584-5.256,10,10,0,0,1,4.32-3.408,15.285,15.285,0,0,1,6.1-1.176,17.443,17.443,0,0,1,5.688.912,13.793,13.793,0,0,1,4.44,2.4,3.2,3.2,0,0,1,1.392,2.544,2.707,2.707,0,0,1-.816,1.944,2.591,2.591,0,0,1-1.92.84,2.106,2.106,0,0,1-1.3-.432,12.678,12.678,0,0,0-3.48-1.848,11.535,11.535,0,0,0-4.008-.84,8.258,8.258,0,0,0-4.68,1.128,3.583,3.583,0,0,0,.048,6.072,16.164,16.164,0,0,0,5.352,1.728,27.761,27.761,0,0,1,6.6,1.848,8.423,8.423,0,0,1,3.72,3.072,9.438,9.438,0,0,1,1.248,5.16,8.618,8.618,0,0,1-1.7,5.3,10.956,10.956,0,0,1-4.536,3.5A15.2,15.2,0,0,1,270.96,115.68Zm23.856-3.408a2.723,2.723,0,0,1-.912,2.088,3.023,3.023,0,0,1-2.112.84,2.894,2.894,0,0,1-2.136-.84,2.835,2.835,0,0,1-.84-2.088V84.528a2.794,2.794,0,0,1,.864-2.088,3.036,3.036,0,0,1,2.208-.84,2.857,2.857,0,0,1,2.064.84,2.794,2.794,0,0,1,.864,2.088ZM324.1,81.6a2.957,2.957,0,0,1,2.112.768,2.64,2.64,0,0,1,.816,2.016,2.564,2.564,0,0,1-.816,1.992,3.013,3.013,0,0,1-2.112.744H316.56v25.152a2.723,2.723,0,0,1-.912,2.088,3.2,3.2,0,0,1-2.256.84,3.036,3.036,0,0,1-2.208-.84,2.794,2.794,0,0,1-.864-2.088V87.12h-7.536a2.957,2.957,0,0,1-2.112-.768,2.64,2.64,0,0,1-.816-2.016,2.547,2.547,0,0,1,.84-1.968,2.978,2.978,0,0,1,2.088-.768Zm26.976,28.08a2.835,2.835,0,0,1,2.088.84,2.669,2.669,0,0,1,.84,1.944,2.547,2.547,0,0,1-.84,1.968,2.978,2.978,0,0,1-2.088.768h-16.08a2.87,2.87,0,0,1-2.928-2.928V84.528a2.87,2.87,0,0,1,2.928-2.928h16.08a2.926,2.926,0,0,1,2.088.792,2.678,2.678,0,0,1,.84,2.04,2.507,2.507,0,0,1-.816,1.944,3.013,3.013,0,0,1-2.112.744H338.064v8.16h10.848a2.926,2.926,0,0,1,2.088.792,2.678,2.678,0,0,1,.84,2.04,2.507,2.507,0,0,1-.816,1.944,3.013,3.013,0,0,1-2.112.744H338.064v8.88Z" transform="translate(-1.44 -1.104)" fill="url(#linear-gradient)"/>
</svg>
