<svg xmlns="http://www.w3.org/2000/svg" xmlns:xlink="http://www.w3.org/1999/xlink" width="444.624" height="121.152" viewBox="0 0 444.624 121.152">
  <defs>
    <linearGradient id="linear-gradient" y1="1" x2="1" gradientUnits="objectBoundingBox">
      <stop offset="0" stop-color="#7a0000"/>
      <stop offset="1" stop-color="#c13232"/>
    </linearGradient>
  </defs>
  <path id="Path_2944" data-name="Path 2944" d="M25.68,14.4a2.957,2.957,0,0,1,2.112.768,2.64,2.64,0,0,1,.816,2.016,2.564,2.564,0,0,1-.816,1.992,3.013,3.013,0,0,1-2.112.744H18.144V45.072a2.723,2.723,0,0,1-.912,2.088,3.2,3.2,0,0,1-2.256.84,3.036,3.036,0,0,1-2.208-.84,2.794,2.794,0,0,1-.864-2.088V19.92H4.368a2.957,2.957,0,0,1-2.112-.768,2.64,2.64,0,0,1-.816-2.016,2.547,2.547,0,0,1,.84-1.968A2.978,2.978,0,0,1,4.368,14.4Zm32.3,0a2.92,2.92,0,0,1,2.16.816,2.858,2.858,0,0,1,.816,2.112V45.072A2.794,2.794,0,0,1,60.1,47.16a3.036,3.036,0,0,1-2.208.84,2.857,2.857,0,0,1-2.064-.84,2.794,2.794,0,0,1-.864-2.088V33.888H39.648V45.072a2.723,2.723,0,0,1-.912,2.088,3.023,3.023,0,0,1-2.112.84,2.894,2.894,0,0,1-2.136-.84,2.835,2.835,0,0,1-.84-2.088V17.328a2.794,2.794,0,0,1,.864-2.088,3.036,3.036,0,0,1,2.208-.84,2.857,2.857,0,0,1,2.064.84,2.794,2.794,0,0,1,.864,2.088v11.04H54.96V17.328a2.723,2.723,0,0,1,.912-2.088A3.023,3.023,0,0,1,57.984,14.4ZM74.16,45.072a2.723,2.723,0,0,1-.912,2.088,3.023,3.023,0,0,1-2.112.84A2.894,2.894,0,0,1,69,47.16a2.835,2.835,0,0,1-.84-2.088V17.328a2.794,2.794,0,0,1,.864-2.088,3.036,3.036,0,0,1,2.208-.84,2.857,2.857,0,0,1,2.064.84,2.794,2.794,0,0,1,.864,2.088Zm26.208-2.592a2.835,2.835,0,0,1,2.088.84,2.669,2.669,0,0,1,.84,1.944,2.547,2.547,0,0,1-.84,1.968,2.978,2.978,0,0,1-2.088.768H84.288a2.87,2.87,0,0,1-2.928-2.928V17.328A2.87,2.87,0,0,1,84.288,14.4h16.08a2.926,2.926,0,0,1,2.088.792,2.678,2.678,0,0,1,.84,2.04,2.507,2.507,0,0,1-.816,1.944,3.013,3.013,0,0,1-2.112.744H87.36v8.16H98.208a2.926,2.926,0,0,1,2.088.792,2.678,2.678,0,0,1,.84,2.04,2.507,2.507,0,0,1-.816,1.944,3.013,3.013,0,0,1-2.112.744H87.36v8.88ZM98.736,9.84a3.9,3.9,0,0,1,.576.768,1.485,1.485,0,0,1,.144.672,1.1,1.1,0,0,1-.432.816,1.533,1.533,0,0,1-1.056.384,2.349,2.349,0,0,1-.96-.24,16.164,16.164,0,0,1-1.488-.816L92.4,9.6l-3.12,1.824q-.768.432-1.392.744a2.47,2.47,0,0,1-1.056.312,1.533,1.533,0,0,1-1.056-.384,1.1,1.1,0,0,1-.432-.816,1.485,1.485,0,0,1,.144-.672,3.9,3.9,0,0,1,.576-.768l3.024-3.456a4.285,4.285,0,0,1,1.3-1.056,3.619,3.619,0,0,1,1.632-.336h.768a3.657,3.657,0,0,1,1.608.336,4.174,4.174,0,0,1,1.32,1.056Zm2.3-1.008a2.152,2.152,0,0,1-1.464-.48A1.576,1.576,0,0,1,99.024,7.1a1.787,1.787,0,0,1,.672-1.3l4.128-3.648A3.747,3.747,0,0,1,106.176,1.1a2.678,2.678,0,0,1,1.728.672,2.09,2.09,0,0,1,.816,1.68,2.558,2.558,0,0,1-.456,1.416A3.29,3.29,0,0,1,106.944,6l-4.8,2.544A2.1,2.1,0,0,1,101.04,8.832ZM130.9,14.4a2.957,2.957,0,0,1,2.112.768,2.64,2.64,0,0,1,.816,2.016,2.564,2.564,0,0,1-.816,1.992,3.013,3.013,0,0,1-2.112.744H123.36V45.072a2.723,2.723,0,0,1-.912,2.088,3.2,3.2,0,0,1-2.256.84,3.036,3.036,0,0,1-2.208-.84,2.794,2.794,0,0,1-.864-2.088V19.92h-7.536a2.957,2.957,0,0,1-2.112-.768,2.64,2.64,0,0,1-.816-2.016,2.547,2.547,0,0,1,.84-1.968,2.978,2.978,0,0,1,2.088-.768Zm47.136,28.608a3.425,3.425,0,0,1,.48.936,3.152,3.152,0,0,1,.192,1.032,2.756,2.756,0,0,1-.984,2.16,3.351,3.351,0,0,1-2.28.864,2.651,2.651,0,0,1-1.2-.288,2.622,2.622,0,0,1-.96-.816L162.864,33.168l-4.56,4.368v7.536a2.814,2.814,0,0,1-.84,2.112A3,3,0,0,1,155.28,48a2.894,2.894,0,0,1-2.136-.84,2.835,2.835,0,0,1-.84-2.088V17.328a2.794,2.794,0,0,1,.864-2.088,3.036,3.036,0,0,1,2.208-.84,2.8,2.8,0,0,1,2.928,2.928V30.384l15.36-15.12a3.3,3.3,0,0,1,2.352-1.1,2.362,2.362,0,0,1,1.872.912,2.943,2.943,0,0,1,.768,1.92,2.614,2.614,0,0,1-.864,1.872l-10.464,9.984Zm24.72-.528a2.835,2.835,0,0,1,2.088.84,2.669,2.669,0,0,1,.84,1.944,2.547,2.547,0,0,1-.84,1.968,2.978,2.978,0,0,1-2.088.768h-16.08a2.87,2.87,0,0,1-2.928-2.928V17.328a2.87,2.87,0,0,1,2.928-2.928h16.08a2.926,2.926,0,0,1,2.088.792,2.678,2.678,0,0,1,.84,2.04,2.507,2.507,0,0,1-.816,1.944,3.013,3.013,0,0,1-2.112.744H189.744v8.16h10.848a2.926,2.926,0,0,1,2.088.792,2.678,2.678,0,0,1,.84,2.04,2.507,2.507,0,0,1-.816,1.944,3.013,3.013,0,0,1-2.112.744H189.744v8.88ZM201.12,9.84a3.9,3.9,0,0,1,.576.768,1.485,1.485,0,0,1,.144.672,1.1,1.1,0,0,1-.432.816,1.533,1.533,0,0,1-1.056.384,2.349,2.349,0,0,1-.96-.24,16.163,16.163,0,0,1-1.488-.816L194.784,9.6l-3.12,1.824q-.768.432-1.392.744a2.47,2.47,0,0,1-1.056.312,1.533,1.533,0,0,1-1.056-.384,1.1,1.1,0,0,1-.432-.816,1.485,1.485,0,0,1,.144-.672,3.9,3.9,0,0,1,.576-.768l3.024-3.456a4.285,4.285,0,0,1,1.3-1.056,3.619,3.619,0,0,1,1.632-.336h.768a3.657,3.657,0,0,1,1.608.336,4.174,4.174,0,0,1,1.32,1.056Zm2.3-1.008a2.152,2.152,0,0,1-1.464-.48,1.576,1.576,0,0,1-.552-1.248,1.787,1.787,0,0,1,.672-1.3l4.128-3.648A3.747,3.747,0,0,1,208.56,1.1a2.678,2.678,0,0,1,1.728.672,2.09,2.09,0,0,1,.816,1.68,2.558,2.558,0,0,1-.456,1.416A3.29,3.29,0,0,1,209.328,6l-4.8,2.544A2.1,2.1,0,0,1,203.424,8.832ZM244.8,29.376a9.664,9.664,0,0,1,4.152,3.072,8.417,8.417,0,0,1,1.608,5.328q0,5.712-3.264,7.968A13.335,13.335,0,0,1,239.52,48H227.568a2.87,2.87,0,0,1-2.928-2.928V17.328a2.87,2.87,0,0,1,2.928-2.928h12.1q9.12,0,9.12,8.544a7.064,7.064,0,0,1-1.032,3.816A7.143,7.143,0,0,1,244.8,29.376ZM242.544,24a4.009,4.009,0,0,0-.984-2.952,3.731,3.731,0,0,0-2.76-.984h-7.92v7.488h8.064a3.675,3.675,0,0,0,2.52-.96A3.294,3.294,0,0,0,242.544,24ZM239.52,42.48a4.937,4.937,0,0,0,3.528-1.2,4.589,4.589,0,0,0,1.272-3.5q0-2.832-1.488-3.7a7.158,7.158,0,0,0-3.648-.864h-8.3V42.48ZM286.992,31.2a18.22,18.22,0,0,1-2.112,8.712,16.174,16.174,0,0,1-5.832,6.264,16.377,16.377,0,0,1-16.752,0,16,16,0,0,1-5.808-6.264A18.389,18.389,0,0,1,254.4,31.2a18.389,18.389,0,0,1,2.088-8.712,16,16,0,0,1,5.808-6.264,16.377,16.377,0,0,1,16.752,0,16.175,16.175,0,0,1,5.832,6.264A18.22,18.22,0,0,1,286.992,31.2Zm-6.24,0a12.957,12.957,0,0,0-1.3-5.832,10.46,10.46,0,0,0-3.6-4.152,9.62,9.62,0,0,0-10.392-.024,10.141,10.141,0,0,0-3.552,4.152A13.315,13.315,0,0,0,260.64,31.2a13.315,13.315,0,0,0,1.272,5.856,10.141,10.141,0,0,0,3.552,4.152,9.62,9.62,0,0,0,10.392-.024,10.46,10.46,0,0,0,3.6-4.152A12.956,12.956,0,0,0,280.752,31.2ZM270.624,55.056a3.711,3.711,0,0,1-2.256-.528,2.255,2.255,0,0,1-.672-1.872v-.912a2.176,2.176,0,0,1,.72-1.872,3.743,3.743,0,0,1,2.208-.528,4.132,4.132,0,0,1,2.448.528,2.255,2.255,0,0,1,.672,1.872v.912a2.167,2.167,0,0,1-.72,1.9A4.32,4.32,0,0,1,270.624,55.056ZM277.008,9.84a3.9,3.9,0,0,1,.576.768,1.485,1.485,0,0,1,.144.672,1.1,1.1,0,0,1-.432.816,1.533,1.533,0,0,1-1.056.384,2.349,2.349,0,0,1-.96-.24,16.159,16.159,0,0,1-1.488-.816L270.672,9.6l-3.12,1.824q-.768.432-1.392.744a2.47,2.47,0,0,1-1.056.312,1.533,1.533,0,0,1-1.056-.384,1.1,1.1,0,0,1-.432-.816,1.485,1.485,0,0,1,.144-.672,3.9,3.9,0,0,1,.576-.768l3.024-3.456a4.286,4.286,0,0,1,1.3-1.056,3.619,3.619,0,0,1,1.632-.336h.768a3.657,3.657,0,0,1,1.608.336,4.175,4.175,0,0,1,1.32,1.056ZM331.44,14.4a2.449,2.449,0,0,1,1.872.768,2.7,2.7,0,0,1,.72,1.92V45.072A2.87,2.87,0,0,1,331.1,48a4.149,4.149,0,0,1-1.32-.216,1.867,1.867,0,0,1-.936-.6L311.232,24.816v20.5a2.65,2.65,0,0,1-.744,1.92,2.585,2.585,0,0,1-1.944.768,2.449,2.449,0,0,1-1.872-.768,2.7,2.7,0,0,1-.72-1.92V17.328A2.87,2.87,0,0,1,308.88,14.4a3.673,3.673,0,0,1,1.416.288,2.279,2.279,0,0,1,1.032.768L328.8,37.728V17.088a2.65,2.65,0,0,1,.744-1.92A2.526,2.526,0,0,1,331.44,14.4Zm34.128,0a2.92,2.92,0,0,1,2.16.816,2.858,2.858,0,0,1,.816,2.112V45.072a2.794,2.794,0,0,1-.864,2.088,3.036,3.036,0,0,1-2.208.84,2.857,2.857,0,0,1-2.064-.84,2.794,2.794,0,0,1-.864-2.088V33.888H347.232V45.072a2.723,2.723,0,0,1-.912,2.088,3.023,3.023,0,0,1-2.112.84,2.894,2.894,0,0,1-2.136-.84,2.835,2.835,0,0,1-.84-2.088V17.328a2.794,2.794,0,0,1,.864-2.088,3.036,3.036,0,0,1,2.208-.84,2.857,2.857,0,0,1,2.064.84,2.794,2.794,0,0,1,.864,2.088v11.04h15.312V17.328a2.723,2.723,0,0,1,.912-2.088A3.023,3.023,0,0,1,365.568,14.4ZM402.1,44.256a3.231,3.231,0,0,1,.24,1.152,2.718,2.718,0,0,1-.816,2.04,2.612,2.612,0,0,1-1.872.792,2.517,2.517,0,0,1-1.56-.528,3.431,3.431,0,0,1-1.08-1.44l-2.5-5.808h-14.3l-2.5,5.856a2.953,2.953,0,0,1-1.032,1.416,2.443,2.443,0,0,1-4.056-1.992,3.176,3.176,0,0,1,.144-.912l11.952-28.7a3.186,3.186,0,0,1,1.152-1.488,2.515,2.515,0,0,1,1.728-.432,2.812,2.812,0,0,1,1.608.5,2.843,2.843,0,0,1,1.08,1.416ZM382.56,34.944h9.6l-4.848-11.232ZM387.5,55.056a3.711,3.711,0,0,1-2.256-.528,2.255,2.255,0,0,1-.672-1.872v-.912a2.176,2.176,0,0,1,.72-1.872,3.743,3.743,0,0,1,2.208-.528,4.132,4.132,0,0,1,2.448.528,2.255,2.255,0,0,1,.672,1.872v.912a2.167,2.167,0,0,1-.72,1.9A4.32,4.32,0,0,1,387.5,55.056ZM393.888,9.84a3.9,3.9,0,0,1,.576.768,1.485,1.485,0,0,1,.144.672,1.1,1.1,0,0,1-.432.816,1.533,1.533,0,0,1-1.056.384,2.349,2.349,0,0,1-.96-.24,16.163,16.163,0,0,1-1.488-.816L387.552,9.6l-3.12,1.824q-.768.432-1.392.744a2.47,2.47,0,0,1-1.056.312,1.533,1.533,0,0,1-1.056-.384,1.1,1.1,0,0,1-.432-.816,1.485,1.485,0,0,1,.144-.672,3.9,3.9,0,0,1,.576-.768l3.024-3.456a4.285,4.285,0,0,1,1.3-1.056,3.619,3.619,0,0,1,1.632-.336h.768a3.657,3.657,0,0,1,1.608.336,4.174,4.174,0,0,1,1.32,1.056ZM431.9,14.4a2.449,2.449,0,0,1,1.872.768,2.7,2.7,0,0,1,.72,1.92V45.072A2.87,2.87,0,0,1,431.568,48a4.149,4.149,0,0,1-1.32-.216,1.867,1.867,0,0,1-.936-.6L411.7,24.816v20.5a2.65,2.65,0,0,1-.744,1.92,2.585,2.585,0,0,1-1.944.768,2.449,2.449,0,0,1-1.872-.768,2.7,2.7,0,0,1-.72-1.92V17.328a2.87,2.87,0,0,1,2.928-2.928,3.673,3.673,0,0,1,1.416.288,2.279,2.279,0,0,1,1.032.768l17.472,22.272V17.088a2.65,2.65,0,0,1,.744-1.92A2.526,2.526,0,0,1,431.9,14.4ZM18,81.6a13.326,13.326,0,0,1,7.752,2.232A14.191,14.191,0,0,1,30.7,89.88a22.152,22.152,0,0,1,0,17.04,14.191,14.191,0,0,1-4.944,6.048A13.326,13.326,0,0,1,18,115.2H6.528A2.87,2.87,0,0,1,3.6,112.272V84.528A2.87,2.87,0,0,1,6.528,81.6Zm-.48,28.08A7.3,7.3,0,0,0,24,106.488,14.129,14.129,0,0,0,26.16,98.4a14.012,14.012,0,0,0-2.184-8.088A7.316,7.316,0,0,0,17.52,87.12H9.6v22.56Zm26.4,2.592a2.723,2.723,0,0,1-.912,2.088,3.023,3.023,0,0,1-2.112.84,2.894,2.894,0,0,1-2.136-.84,2.835,2.835,0,0,1-.84-2.088V84.528a2.794,2.794,0,0,1,.864-2.088,3.036,3.036,0,0,1,2.208-.84,2.857,2.857,0,0,1,2.064.84,2.794,2.794,0,0,1,.864,2.088Zm26.208-2.592a2.835,2.835,0,0,1,2.088.84,2.669,2.669,0,0,1,.84,1.944,2.547,2.547,0,0,1-.84,1.968,2.978,2.978,0,0,1-2.088.768H54.048a2.87,2.87,0,0,1-2.928-2.928V84.528A2.87,2.87,0,0,1,54.048,81.6h16.08a2.926,2.926,0,0,1,2.088.792,2.678,2.678,0,0,1,.84,2.04,2.507,2.507,0,0,1-.816,1.944,3.013,3.013,0,0,1-2.112.744H57.12v8.16H67.968a2.926,2.926,0,0,1,2.088.792,2.678,2.678,0,0,1,.84,2.04,2.507,2.507,0,0,1-.816,1.944,3.013,3.013,0,0,1-2.112.744H57.12v8.88Zm-8.976,12.576a3.711,3.711,0,0,1-2.256-.528,2.255,2.255,0,0,1-.672-1.872v-.912a2.176,2.176,0,0,1,.72-1.872,3.743,3.743,0,0,1,2.208-.528,4.132,4.132,0,0,1,2.448.528,2.255,2.255,0,0,1,.672,1.872v.912a2.167,2.167,0,0,1-.72,1.9A4.319,4.319,0,0,1,61.152,122.256ZM68.5,77.04a3.9,3.9,0,0,1,.576.768,1.485,1.485,0,0,1,.144.672,1.1,1.1,0,0,1-.432.816,1.533,1.533,0,0,1-1.056.384,2.349,2.349,0,0,1-.96-.24,16.164,16.164,0,0,1-1.488-.816L62.16,76.8l-3.12,1.824q-.768.432-1.392.744a2.47,2.47,0,0,1-1.056.312,1.533,1.533,0,0,1-1.056-.384,1.1,1.1,0,0,1-.432-.816,1.485,1.485,0,0,1,.144-.672,3.9,3.9,0,0,1,.576-.768l3.024-3.456a4.285,4.285,0,0,1,1.3-1.056,3.619,3.619,0,0,1,1.632-.336h.768a3.657,3.657,0,0,1,1.608.336,4.175,4.175,0,0,1,1.32,1.056Zm35.568,4.56a2.449,2.449,0,0,1,1.872.768,2.7,2.7,0,0,1,.72,1.92v27.984a2.87,2.87,0,0,1-2.928,2.928,4.148,4.148,0,0,1-1.32-.216,1.867,1.867,0,0,1-.936-.6L83.856,92.016v20.5a2.65,2.65,0,0,1-.744,1.92,2.585,2.585,0,0,1-1.944.768,2.449,2.449,0,0,1-1.872-.768,2.7,2.7,0,0,1-.72-1.92V84.528A2.87,2.87,0,0,1,81.5,81.6a3.673,3.673,0,0,1,1.416.288,2.279,2.279,0,0,1,1.032.768l17.472,22.272V84.288a2.65,2.65,0,0,1,.744-1.92A2.526,2.526,0,0,1,104.064,81.6Zm45.312,0a2.957,2.957,0,0,1,2.112.768,2.64,2.64,0,0,1,.816,2.016,2.564,2.564,0,0,1-.816,1.992,3.013,3.013,0,0,1-2.112.744H141.84v25.152a2.723,2.723,0,0,1-.912,2.088,3.205,3.205,0,0,1-2.256.84,3.036,3.036,0,0,1-2.208-.84,2.794,2.794,0,0,1-.864-2.088V87.12h-7.536a2.957,2.957,0,0,1-2.112-.768,2.64,2.64,0,0,1-.816-2.016,2.547,2.547,0,0,1,.84-1.968,2.978,2.978,0,0,1,2.088-.768Zm32.3,0a2.92,2.92,0,0,1,2.16.816,2.858,2.858,0,0,1,.816,2.112v27.744a2.794,2.794,0,0,1-.864,2.088,3.036,3.036,0,0,1-2.208.84,2.857,2.857,0,0,1-2.064-.84,2.794,2.794,0,0,1-.864-2.088V101.088H163.344v11.184a2.723,2.723,0,0,1-.912,2.088,3.023,3.023,0,0,1-2.112.84,2.894,2.894,0,0,1-2.136-.84,2.835,2.835,0,0,1-.84-2.088V84.528a2.794,2.794,0,0,1,.864-2.088,3.036,3.036,0,0,1,2.208-.84,2.858,2.858,0,0,1,2.064.84,2.794,2.794,0,0,1,.864,2.088v11.04h15.312V84.528a2.723,2.723,0,0,1,.912-2.088A3.023,3.023,0,0,1,181.68,81.6Zm42.336-2.976a7.871,7.871,0,0,1-1.368,4.608,7.145,7.145,0,0,1-4.152,2.736v15.888a14.467,14.467,0,0,1-1.68,7.056,12.12,12.12,0,0,1-4.7,4.8,14.736,14.736,0,0,1-13.848,0,12.075,12.075,0,0,1-4.728-4.8,14.468,14.468,0,0,1-1.68-7.056V84.48a2.794,2.794,0,0,1,.864-2.088,3.036,3.036,0,0,1,2.208-.84,2.909,2.909,0,0,1,2.88,2.928v17.376a8.255,8.255,0,0,0,1.008,4.1,7.033,7.033,0,0,0,2.712,2.76,7.359,7.359,0,0,0,3.672.96,8.088,8.088,0,0,0,3.864-.96,7.34,7.34,0,0,0,2.88-2.76,7.82,7.82,0,0,0,1.08-4.1V84.48a3.205,3.205,0,0,1,.552-1.92,2.39,2.39,0,0,1,1.56-.96h.048a1.932,1.932,0,0,1,.528-.048h.24q3.264-.288,3.264-2.928a2.7,2.7,0,0,1,.648-1.752,2.2,2.2,0,0,1,1.8-.792,2.05,2.05,0,0,1,1.776.792A2.911,2.911,0,0,1,224.016,78.624Zm26.256,5.952a16.128,16.128,0,0,1,4.656,5.976,18.43,18.43,0,0,1,1.68,7.848,18.22,18.22,0,0,1-2.112,8.712,16.175,16.175,0,0,1-5.832,6.264,16.377,16.377,0,0,1-16.752,0,16,16,0,0,1-5.808-6.264,19.219,19.219,0,0,1,0-17.424,16,16,0,0,1,5.808-6.264,15.583,15.583,0,0,1,8.376-2.3,16.71,16.71,0,0,1,4.416.576q3.216-.336,3.216-2.928a2.7,2.7,0,0,1,.648-1.752,2.2,2.2,0,0,1,1.8-.792,2.05,2.05,0,0,1,1.776.792,2.911,2.911,0,0,1,.576,1.752,8.7,8.7,0,0,1-.6,3.24A6.416,6.416,0,0,1,250.272,84.576Zm-9.984,25.344a9.136,9.136,0,0,0,5.184-1.536,10.46,10.46,0,0,0,3.6-4.152,13.77,13.77,0,0,0,0-11.664,10.46,10.46,0,0,0-3.6-4.152,9.62,9.62,0,0,0-10.392-.024,10.141,10.141,0,0,0-3.552,4.152,14.116,14.116,0,0,0,0,11.712,10.141,10.141,0,0,0,3.552,4.152A9.207,9.207,0,0,0,240.288,109.92ZM287.616,81.6a2.449,2.449,0,0,1,1.872.768,2.7,2.7,0,0,1,.72,1.92v27.984a2.87,2.87,0,0,1-2.928,2.928,4.148,4.148,0,0,1-1.32-.216,1.867,1.867,0,0,1-.936-.6L267.408,92.016v20.5a2.65,2.65,0,0,1-.744,1.92,2.585,2.585,0,0,1-1.944.768,2.449,2.449,0,0,1-1.872-.768,2.7,2.7,0,0,1-.72-1.92V84.528a2.87,2.87,0,0,1,2.928-2.928,3.673,3.673,0,0,1,1.416.288,2.279,2.279,0,0,1,1.032.768l17.472,22.272V84.288a2.65,2.65,0,0,1,.744-1.92A2.526,2.526,0,0,1,287.616,81.6Zm34.56,15.456a2.756,2.756,0,0,1,2.064.84,2.879,2.879,0,0,1,.816,2.088V110.16a2.879,2.879,0,0,1-1.488,2.592,19.151,19.151,0,0,1-10.32,2.928,17.262,17.262,0,0,1-8.784-2.328,17.438,17.438,0,0,1-6.384-6.288,17.134,17.134,0,0,1,0-17.328,17.438,17.438,0,0,1,6.384-6.288,17.262,17.262,0,0,1,8.784-2.328,16.922,16.922,0,0,1,8.256,1.92,2.6,2.6,0,0,1,1.44,2.352,3.036,3.036,0,0,1-.792,2.088,2.505,2.505,0,0,1-1.944.888,3.938,3.938,0,0,1-1.584-.384,13.586,13.586,0,0,0-5.376-1.1,10.782,10.782,0,0,0-5.664,1.56,11.623,11.623,0,0,0,0,19.92,10.782,10.782,0,0,0,5.664,1.56,18.711,18.711,0,0,0,2.88-.24,16.73,16.73,0,0,0,2.688-.624v-6.24H314.3a2.878,2.878,0,0,1-2.088-.816,2.956,2.956,0,0,1,0-4.128,2.878,2.878,0,0,1,2.088-.816ZM368.592,81.6a2.92,2.92,0,0,1,2.16.816,2.858,2.858,0,0,1,.816,2.112v27.744a2.794,2.794,0,0,1-.864,2.088,3.036,3.036,0,0,1-2.208.84,2.857,2.857,0,0,1-2.064-.84,2.794,2.794,0,0,1-.864-2.088V101.088H350.256v11.184a2.723,2.723,0,0,1-.912,2.088,3.023,3.023,0,0,1-2.112.84,2.894,2.894,0,0,1-2.136-.84,2.835,2.835,0,0,1-.84-2.088V84.528a2.794,2.794,0,0,1,.864-2.088,3.036,3.036,0,0,1,2.208-.84,2.857,2.857,0,0,1,2.064.84,2.794,2.794,0,0,1,.864,2.088v11.04h15.312V84.528a2.723,2.723,0,0,1,.912-2.088A3.023,3.023,0,0,1,368.592,81.6Zm16.176,30.672a2.723,2.723,0,0,1-.912,2.088,3.023,3.023,0,0,1-2.112.84,2.894,2.894,0,0,1-2.136-.84,2.835,2.835,0,0,1-.84-2.088V84.528a2.794,2.794,0,0,1,.864-2.088,3.036,3.036,0,0,1,2.208-.84,2.857,2.857,0,0,1,2.064.84,2.794,2.794,0,0,1,.864,2.088Zm26.208-2.592a2.835,2.835,0,0,1,2.088.84,2.669,2.669,0,0,1,.84,1.944,2.547,2.547,0,0,1-.84,1.968,2.978,2.978,0,0,1-2.088.768H394.9a2.87,2.87,0,0,1-2.928-2.928V84.528A2.87,2.87,0,0,1,394.9,81.6h16.08a2.926,2.926,0,0,1,2.088.792,2.678,2.678,0,0,1,.84,2.04,2.507,2.507,0,0,1-.816,1.944,3.013,3.013,0,0,1-2.112.744H397.968v8.16h10.848a2.926,2.926,0,0,1,2.088.792,2.678,2.678,0,0,1,.84,2.04,2.507,2.507,0,0,1-.816,1.944,3.013,3.013,0,0,1-2.112.744H397.968v8.88ZM402,122.256a3.711,3.711,0,0,1-2.256-.528,2.255,2.255,0,0,1-.672-1.872v-.912a2.176,2.176,0,0,1,.72-1.872,3.743,3.743,0,0,1,2.208-.528,4.132,4.132,0,0,1,2.448.528,2.255,2.255,0,0,1,.672,1.872v.912a2.168,2.168,0,0,1-.72,1.9A4.32,4.32,0,0,1,402,122.256Zm7.344-45.216a3.9,3.9,0,0,1,.576.768,1.484,1.484,0,0,1,.144.672,1.1,1.1,0,0,1-.432.816,1.533,1.533,0,0,1-1.056.384,2.349,2.349,0,0,1-.96-.24,16.158,16.158,0,0,1-1.488-.816l-3.12-1.824-3.12,1.824q-.768.432-1.392.744a2.47,2.47,0,0,1-1.056.312,1.533,1.533,0,0,1-1.056-.384,1.1,1.1,0,0,1-.432-.816,1.485,1.485,0,0,1,.144-.672,3.9,3.9,0,0,1,.576-.768l3.024-3.456a4.285,4.285,0,0,1,1.3-1.056,3.619,3.619,0,0,1,1.632-.336h.768a3.657,3.657,0,0,1,1.608.336,4.174,4.174,0,0,1,1.32,1.056Zm33.936,4.512a2.64,2.64,0,0,1,2.016.816,2.957,2.957,0,0,1,.768,2.112v17.376a14.468,14.468,0,0,1-1.68,7.056,12.12,12.12,0,0,1-4.7,4.8,14.736,14.736,0,0,1-13.848,0,12.075,12.075,0,0,1-4.728-4.8,14.468,14.468,0,0,1-1.68-7.056V84.48a2.794,2.794,0,0,1,.864-2.088,3.036,3.036,0,0,1,2.208-.84,2.909,2.909,0,0,1,2.88,2.928v17.376a8.255,8.255,0,0,0,1.008,4.1,7.033,7.033,0,0,0,2.712,2.76,7.359,7.359,0,0,0,3.672.96,8.088,8.088,0,0,0,3.864-.96,7.34,7.34,0,0,0,2.88-2.76,7.82,7.82,0,0,0,1.08-4.1V84.48a3.074,3.074,0,0,1,.72-2.112A2.49,2.49,0,0,1,443.28,81.552Z" transform="translate(-1.44 -1.104)" fill="url(#linear-gradient)"/>
</svg>
