<svg xmlns="http://www.w3.org/2000/svg" xmlns:xlink="http://www.w3.org/1999/xlink" width="381.456" height="121.344" viewBox="0 0 381.456 121.344">
  <defs>
    <linearGradient id="linear-gradient" x1="0.738" x2="0.036" y2="1.159" gradientUnits="objectBoundingBox">
      <stop offset="0" stop-color="#c13232"/>
      <stop offset="1" stop-color="#7a0000"/>
    </linearGradient>
  </defs>
  <path id="Path_2943" data-name="Path 2943" d="M25.68,14.4a2.957,2.957,0,0,1,2.112.768,2.64,2.64,0,0,1,.816,2.016,2.564,2.564,0,0,1-.816,1.992,3.013,3.013,0,0,1-2.112.744H18.144V45.072a2.723,2.723,0,0,1-.912,2.088,3.2,3.2,0,0,1-2.256.84,3.036,3.036,0,0,1-2.208-.84,2.794,2.794,0,0,1-.864-2.088V19.92H4.368a2.957,2.957,0,0,1-2.112-.768,2.64,2.64,0,0,1-.816-2.016,2.547,2.547,0,0,1,.84-1.968A2.978,2.978,0,0,1,4.368,14.4Zm40.128-2.976a7.871,7.871,0,0,1-1.368,4.608,7.145,7.145,0,0,1-4.152,2.736V34.656a14.467,14.467,0,0,1-1.68,7.056,12.12,12.12,0,0,1-4.7,4.8,13.682,13.682,0,0,1-6.912,1.728,13.815,13.815,0,0,1-6.936-1.728,12.075,12.075,0,0,1-4.728-4.8,14.467,14.467,0,0,1-1.68-7.056V17.28a2.794,2.794,0,0,1,.864-2.088,3.036,3.036,0,0,1,2.208-.84A2.909,2.909,0,0,1,39.6,17.28V34.656a8.255,8.255,0,0,0,1.008,4.1,7.033,7.033,0,0,0,2.712,2.76,7.359,7.359,0,0,0,3.672.96,8.088,8.088,0,0,0,3.864-.96,7.34,7.34,0,0,0,2.88-2.76,7.82,7.82,0,0,0,1.08-4.1V17.28a3.205,3.205,0,0,1,.552-1.92,2.39,2.39,0,0,1,1.56-.96h.048a1.932,1.932,0,0,1,.528-.048h.24q3.264-.288,3.264-2.928a2.7,2.7,0,0,1,.648-1.752,2.2,2.2,0,0,1,1.8-.792,2.05,2.05,0,0,1,1.776.792A2.911,2.911,0,0,1,65.808,11.424Zm39.648,2.88a2.986,2.986,0,0,1,2.088.816,2.578,2.578,0,0,1,.888,1.968,3.284,3.284,0,0,1-.288,1.3L96.288,46.128a3.212,3.212,0,0,1-1.2,1.392,2.753,2.753,0,0,1-3.144-.024,2.969,2.969,0,0,1-1.08-1.32L79.008,18.336a2.672,2.672,0,0,1-.24-1.2,2.574,2.574,0,0,1,.96-2.088,3.074,3.074,0,0,1,1.968-.792,2.72,2.72,0,0,1,1.536.48,3.031,3.031,0,0,1,1.1,1.392l9.648,22.7,8.832-22.7a3.066,3.066,0,0,1,1.1-1.344A2.72,2.72,0,0,1,105.456,14.3Zm32.736,29.952a3.23,3.23,0,0,1,.24,1.152,2.718,2.718,0,0,1-.816,2.04,2.612,2.612,0,0,1-1.872.792,2.517,2.517,0,0,1-1.56-.528,3.431,3.431,0,0,1-1.08-1.44l-2.5-5.808H116.3l-2.5,5.856a2.953,2.953,0,0,1-1.032,1.416,2.443,2.443,0,0,1-4.056-1.992,3.175,3.175,0,0,1,.144-.912l11.952-28.7a3.185,3.185,0,0,1,1.152-1.488,2.515,2.515,0,0,1,1.728-.432,2.812,2.812,0,0,1,1.608.5,2.843,2.843,0,0,1,1.08,1.416Zm-19.536-9.312h9.6l-4.848-11.232Zm11.328-25.1a3.9,3.9,0,0,1,.576.768,1.485,1.485,0,0,1,.144.672,1.1,1.1,0,0,1-.432.816,1.533,1.533,0,0,1-1.056.384,2.349,2.349,0,0,1-.96-.24,16.163,16.163,0,0,1-1.488-.816L123.648,9.6l-3.12,1.824q-.768.432-1.392.744a2.47,2.47,0,0,1-1.056.312,1.533,1.533,0,0,1-1.056-.384,1.1,1.1,0,0,1-.432-.816,1.485,1.485,0,0,1,.144-.672,3.9,3.9,0,0,1,.576-.768l3.024-3.456a4.285,4.285,0,0,1,1.3-1.056,3.619,3.619,0,0,1,1.632-.336h.768a3.657,3.657,0,0,1,1.608.336,4.175,4.175,0,0,1,1.32,1.056Zm1.68-1.2a2.152,2.152,0,0,1-1.464-.48,1.576,1.576,0,0,1-.552-1.248,1.787,1.787,0,0,1,.672-1.3l4.128-3.648A3.747,3.747,0,0,1,136.8.912a2.678,2.678,0,0,1,1.728.672,2.09,2.09,0,0,1,.816,1.68,2.558,2.558,0,0,1-.456,1.416,3.29,3.29,0,0,1-1.32,1.128l-4.8,2.544A2.1,2.1,0,0,1,131.664,8.64ZM168,14.4a2.449,2.449,0,0,1,1.872.768,2.7,2.7,0,0,1,.72,1.92V45.072A2.87,2.87,0,0,1,167.664,48a4.149,4.149,0,0,1-1.32-.216,1.867,1.867,0,0,1-.936-.6L147.792,24.816v20.5a2.649,2.649,0,0,1-.744,1.92A2.585,2.585,0,0,1,145.1,48a2.449,2.449,0,0,1-1.872-.768,2.7,2.7,0,0,1-.72-1.92V17.328A2.87,2.87,0,0,1,145.44,14.4a3.673,3.673,0,0,1,1.416.288,2.279,2.279,0,0,1,1.032.768L165.36,37.728V17.088a2.65,2.65,0,0,1,.744-1.92A2.526,2.526,0,0,1,168,14.4Zm37.632,0a13.326,13.326,0,0,1,7.752,2.232,14.191,14.191,0,0,1,4.944,6.048,20.67,20.67,0,0,1,1.7,8.52,20.67,20.67,0,0,1-1.7,8.52,14.191,14.191,0,0,1-4.944,6.048A13.326,13.326,0,0,1,205.632,48H194.16a2.87,2.87,0,0,1-2.928-2.928V33.744h-.864A3.035,3.035,0,0,1,188.28,33a2.474,2.474,0,0,1-.84-1.944,2.369,2.369,0,0,1,.84-1.848,3.035,3.035,0,0,1,2.088-.744h.864V17.328A2.87,2.87,0,0,1,194.16,14.4Zm-.48,28.08a7.3,7.3,0,0,0,6.48-3.192,14.129,14.129,0,0,0,2.16-8.088,14.012,14.012,0,0,0-2.184-8.088,7.316,7.316,0,0,0-6.456-3.192h-7.92v8.544h1.488a3.035,3.035,0,0,1,2.088.744,2.369,2.369,0,0,1,.84,1.848,2.474,2.474,0,0,1-.84,1.944,3.035,3.035,0,0,1-2.088.744h-1.488V42.48ZM251.9,44.256a3.23,3.23,0,0,1,.24,1.152,2.718,2.718,0,0,1-.816,2.04,2.612,2.612,0,0,1-1.872.792,2.517,2.517,0,0,1-1.56-.528,3.431,3.431,0,0,1-1.08-1.44l-2.5-5.808h-14.3l-2.5,5.856a2.953,2.953,0,0,1-1.032,1.416,2.443,2.443,0,0,1-4.056-1.992,3.176,3.176,0,0,1,.144-.912l11.952-28.7a3.185,3.185,0,0,1,1.152-1.488,2.515,2.515,0,0,1,1.728-.432,2.812,2.812,0,0,1,1.608.5,2.843,2.843,0,0,1,1.08,1.416Zm-19.536-9.312h9.6L237.12,23.712Zm4.944,20.112a3.711,3.711,0,0,1-2.256-.528,2.255,2.255,0,0,1-.672-1.872v-.912a2.176,2.176,0,0,1,.72-1.872,3.743,3.743,0,0,1,2.208-.528,4.131,4.131,0,0,1,2.448.528,2.255,2.255,0,0,1,.672,1.872v.912a2.167,2.167,0,0,1-.72,1.9A4.319,4.319,0,0,1,237.312,55.056Zm.1-43.44a9.036,9.036,0,0,1-4.68-1.176,6.912,6.912,0,0,1-2.9-3.288,3.049,3.049,0,0,1-.24-1.056,1.512,1.512,0,0,1,.456-1.152,1.64,1.64,0,0,1,1.176-.432A2.634,2.634,0,0,1,232.7,4.9,7.425,7.425,0,0,1,234.1,6.24a4.2,4.2,0,0,0,3.312,1.3,3.94,3.94,0,0,0,3.312-1.3,6.362,6.362,0,0,1,1.32-1.32,2.722,2.722,0,0,1,1.56-.408,1.7,1.7,0,0,1,1.176.408,1.436,1.436,0,0,1,.456,1.128,2.948,2.948,0,0,1-.192,1.008,6.851,6.851,0,0,1-2.9,3.384A9.133,9.133,0,0,1,237.408,11.616ZM275.9,14.4a2.957,2.957,0,0,1,2.112.768,2.64,2.64,0,0,1,.816,2.016,2.564,2.564,0,0,1-.816,1.992,3.013,3.013,0,0,1-2.112.744h-7.536V45.072a2.723,2.723,0,0,1-.912,2.088A3.2,3.2,0,0,1,265.2,48a3.036,3.036,0,0,1-2.208-.84,2.794,2.794,0,0,1-.864-2.088V19.92h-7.536a2.957,2.957,0,0,1-2.112-.768,2.64,2.64,0,0,1-.816-2.016,2.547,2.547,0,0,1,.84-1.968,2.978,2.978,0,0,1,2.088-.768Zm43.488,0a2.957,2.957,0,0,1,2.112.768,2.64,2.64,0,0,1,.816,2.016,2.564,2.564,0,0,1-.816,1.992,3.013,3.013,0,0,1-2.112.744h-7.536V45.072a2.723,2.723,0,0,1-.912,2.088,3.2,3.2,0,0,1-2.256.84,3.036,3.036,0,0,1-2.208-.84,2.794,2.794,0,0,1-.864-2.088V19.92H298.08a2.957,2.957,0,0,1-2.112-.768,2.64,2.64,0,0,1-.816-2.016,2.547,2.547,0,0,1,.84-1.968,2.978,2.978,0,0,1,2.088-.768Zm26.976,28.08a2.835,2.835,0,0,1,2.088.84,2.669,2.669,0,0,1,.84,1.944,2.547,2.547,0,0,1-.84,1.968,2.978,2.978,0,0,1-2.088.768h-16.08a2.87,2.87,0,0,1-2.928-2.928V17.328a2.87,2.87,0,0,1,2.928-2.928h16.08a2.926,2.926,0,0,1,2.088.792,2.678,2.678,0,0,1,.84,2.04,2.507,2.507,0,0,1-.816,1.944,3.013,3.013,0,0,1-2.112.744H333.36v8.16h10.848a2.926,2.926,0,0,1,2.088.792,2.678,2.678,0,0,1,.84,2.04,2.507,2.507,0,0,1-.816,1.944,3.013,3.013,0,0,1-2.112.744H333.36v8.88ZM344.736,9.84a3.9,3.9,0,0,1,.576.768,1.485,1.485,0,0,1,.144.672,1.1,1.1,0,0,1-.432.816,1.533,1.533,0,0,1-1.056.384,2.349,2.349,0,0,1-.96-.24,16.163,16.163,0,0,1-1.488-.816L338.4,9.6l-3.12,1.824q-.768.432-1.392.744a2.47,2.47,0,0,1-1.056.312,1.533,1.533,0,0,1-1.056-.384,1.1,1.1,0,0,1-.432-.816,1.484,1.484,0,0,1,.144-.672,3.9,3.9,0,0,1,.576-.768l3.024-3.456a4.285,4.285,0,0,1,1.3-1.056,3.619,3.619,0,0,1,1.632-.336h.768a3.657,3.657,0,0,1,1.608.336,4.174,4.174,0,0,1,1.32,1.056ZM380.3,14.4a2.449,2.449,0,0,1,1.872.768,2.7,2.7,0,0,1,.72,1.92V45.072A2.87,2.87,0,0,1,379.968,48a4.149,4.149,0,0,1-1.32-.216,1.867,1.867,0,0,1-.936-.6L360.1,24.816v20.5a2.65,2.65,0,0,1-.744,1.92,2.585,2.585,0,0,1-1.944.768,2.449,2.449,0,0,1-1.872-.768,2.7,2.7,0,0,1-.72-1.92V17.328a2.87,2.87,0,0,1,2.928-2.928,3.673,3.673,0,0,1,1.416.288,2.279,2.279,0,0,1,1.032.768l17.472,22.272V17.088a2.65,2.65,0,0,1,.744-1.92A2.526,2.526,0,0,1,380.3,14.4ZM25.68,81.6a2.957,2.957,0,0,1,2.112.768,2.64,2.64,0,0,1,.816,2.016,2.564,2.564,0,0,1-.816,1.992,3.013,3.013,0,0,1-2.112.744H18.144v25.152a2.723,2.723,0,0,1-.912,2.088,3.2,3.2,0,0,1-2.256.84,3.036,3.036,0,0,1-2.208-.84,2.794,2.794,0,0,1-.864-2.088V87.12H4.368a2.957,2.957,0,0,1-2.112-.768,2.64,2.64,0,0,1-.816-2.016,2.547,2.547,0,0,1,.84-1.968A2.978,2.978,0,0,1,4.368,81.6Zm32.3,0a2.92,2.92,0,0,1,2.16.816,2.858,2.858,0,0,1,.816,2.112v27.744a2.794,2.794,0,0,1-.864,2.088,3.036,3.036,0,0,1-2.208.84,2.857,2.857,0,0,1-2.064-.84,2.794,2.794,0,0,1-.864-2.088V101.088H39.648v11.184a2.723,2.723,0,0,1-.912,2.088,3.023,3.023,0,0,1-2.112.84,2.894,2.894,0,0,1-2.136-.84,2.835,2.835,0,0,1-.84-2.088V84.528a2.794,2.794,0,0,1,.864-2.088,3.036,3.036,0,0,1,2.208-.84,2.857,2.857,0,0,1,2.064.84,2.794,2.794,0,0,1,.864,2.088v11.04H54.96V84.528a2.723,2.723,0,0,1,.912-2.088A3.023,3.023,0,0,1,57.984,81.6Zm42.336-2.976a7.871,7.871,0,0,1-1.368,4.608A7.145,7.145,0,0,1,94.8,85.968v15.888a14.467,14.467,0,0,1-1.68,7.056,12.12,12.12,0,0,1-4.7,4.8,14.736,14.736,0,0,1-13.848,0,12.075,12.075,0,0,1-4.728-4.8,14.467,14.467,0,0,1-1.68-7.056V84.48a2.794,2.794,0,0,1,.864-2.088,3.036,3.036,0,0,1,2.208-.84,2.909,2.909,0,0,1,2.88,2.928v17.376a8.255,8.255,0,0,0,1.008,4.1,7.033,7.033,0,0,0,2.712,2.76,7.359,7.359,0,0,0,3.672.96,8.088,8.088,0,0,0,3.864-.96,7.34,7.34,0,0,0,2.88-2.76,7.82,7.82,0,0,0,1.08-4.1V84.48a3.205,3.205,0,0,1,.552-1.92,2.39,2.39,0,0,1,1.56-.96h.048a1.933,1.933,0,0,1,.528-.048h.24q3.264-.288,3.264-2.928a2.7,2.7,0,0,1,.648-1.752,2.2,2.2,0,0,1,1.8-.792,2.05,2.05,0,0,1,1.776.792A2.911,2.911,0,0,1,100.32,78.624Zm26.256,5.952a16.128,16.128,0,0,1,4.656,5.976,18.43,18.43,0,0,1,1.68,7.848,18.22,18.22,0,0,1-2.112,8.712,16.175,16.175,0,0,1-5.832,6.264,16.377,16.377,0,0,1-16.752,0,16,16,0,0,1-5.808-6.264,19.219,19.219,0,0,1,0-17.424,16,16,0,0,1,5.808-6.264,15.583,15.583,0,0,1,8.376-2.3,16.71,16.71,0,0,1,4.416.576q3.216-.336,3.216-2.928a2.7,2.7,0,0,1,.648-1.752,2.2,2.2,0,0,1,1.8-.792,2.05,2.05,0,0,1,1.776.792,2.911,2.911,0,0,1,.576,1.752,8.7,8.7,0,0,1-.6,3.24A6.416,6.416,0,0,1,126.576,84.576Zm-9.984,25.344a9.136,9.136,0,0,0,5.184-1.536,10.46,10.46,0,0,0,3.6-4.152,13.77,13.77,0,0,0,0-11.664,10.46,10.46,0,0,0-3.6-4.152,9.62,9.62,0,0,0-10.392-.024,10.141,10.141,0,0,0-3.552,4.152,14.116,14.116,0,0,0,0,11.712,10.141,10.141,0,0,0,3.552,4.152A9.207,9.207,0,0,0,116.592,109.92ZM163.92,81.6a2.449,2.449,0,0,1,1.872.768,2.7,2.7,0,0,1,.72,1.92v27.984a2.87,2.87,0,0,1-2.928,2.928,4.148,4.148,0,0,1-1.32-.216,1.867,1.867,0,0,1-.936-.6L143.712,92.016v20.5a2.65,2.65,0,0,1-.744,1.92,2.585,2.585,0,0,1-1.944.768,2.449,2.449,0,0,1-1.872-.768,2.7,2.7,0,0,1-.72-1.92V84.528A2.87,2.87,0,0,1,141.36,81.6a3.673,3.673,0,0,1,1.416.288,2.279,2.279,0,0,1,1.032.768l17.472,22.272V84.288a2.65,2.65,0,0,1,.744-1.92A2.526,2.526,0,0,1,163.92,81.6Zm34.56,15.456a2.756,2.756,0,0,1,2.064.84,2.878,2.878,0,0,1,.816,2.088V110.16a2.879,2.879,0,0,1-1.488,2.592,19.151,19.151,0,0,1-10.32,2.928,17.262,17.262,0,0,1-8.784-2.328,17.438,17.438,0,0,1-6.384-6.288,17.134,17.134,0,0,1,0-17.328,17.438,17.438,0,0,1,6.384-6.288,17.262,17.262,0,0,1,8.784-2.328,16.922,16.922,0,0,1,8.256,1.92,2.6,2.6,0,0,1,1.44,2.352,3.036,3.036,0,0,1-.792,2.088,2.505,2.505,0,0,1-1.944.888,3.938,3.938,0,0,1-1.584-.384,13.586,13.586,0,0,0-5.376-1.1,10.782,10.782,0,0,0-5.664,1.56,11.623,11.623,0,0,0,0,19.92,10.782,10.782,0,0,0,5.664,1.56,18.711,18.711,0,0,0,2.88-.24,16.73,16.73,0,0,0,2.688-.624v-6.24h-4.512A2.878,2.878,0,0,1,188.52,102a2.956,2.956,0,0,1,0-4.128,2.878,2.878,0,0,1,2.088-.816ZM244.9,81.6a2.92,2.92,0,0,1,2.16.816,2.858,2.858,0,0,1,.816,2.112v27.744a2.794,2.794,0,0,1-.864,2.088,3.036,3.036,0,0,1-2.208.84,2.857,2.857,0,0,1-2.064-.84,2.794,2.794,0,0,1-.864-2.088V101.088H226.56v11.184a2.723,2.723,0,0,1-.912,2.088,3.023,3.023,0,0,1-2.112.84,2.894,2.894,0,0,1-2.136-.84,2.835,2.835,0,0,1-.84-2.088V84.528a2.794,2.794,0,0,1,.864-2.088,3.036,3.036,0,0,1,2.208-.84,2.858,2.858,0,0,1,2.064.84,5.1,5.1,0,0,1,.864,2.088v11.04h15.312V84.528a2.723,2.723,0,0,1,.912-2.088A3.023,3.023,0,0,1,244.9,81.6Zm16.176,30.672a2.723,2.723,0,0,1-.912,2.088,3.023,3.023,0,0,1-2.112.84,2.894,2.894,0,0,1-2.136-.84,2.835,2.835,0,0,1-.84-2.088V84.528a2.794,2.794,0,0,1,.864-2.088,3.036,3.036,0,0,1,2.208-.84,2.857,2.857,0,0,1,2.064.84,2.794,2.794,0,0,1,.864,2.088Zm26.208-2.592a2.835,2.835,0,0,1,2.088.84,2.669,2.669,0,0,1,.84,1.944,2.547,2.547,0,0,1-.84,1.968,2.978,2.978,0,0,1-2.088.768H271.2a2.87,2.87,0,0,1-2.928-2.928V84.528A2.87,2.87,0,0,1,271.2,81.6h16.08a2.926,2.926,0,0,1,2.088.792,2.678,2.678,0,0,1,.84,2.04,2.507,2.507,0,0,1-.816,1.944,3.013,3.013,0,0,1-2.112.744H274.272v8.16H285.12a2.926,2.926,0,0,1,2.088.792,2.678,2.678,0,0,1,.84,2.04,2.507,2.507,0,0,1-.816,1.944,3.013,3.013,0,0,1-2.112.744H274.272v8.88ZM278.3,122.256a3.711,3.711,0,0,1-2.256-.528,2.255,2.255,0,0,1-.672-1.872v-.912a2.176,2.176,0,0,1,.72-1.872,3.743,3.743,0,0,1,2.208-.528,4.132,4.132,0,0,1,2.448.528,2.255,2.255,0,0,1,.672,1.872v.912a2.168,2.168,0,0,1-.72,1.9A4.32,4.32,0,0,1,278.3,122.256Zm7.344-45.216a3.9,3.9,0,0,1,.576.768,1.484,1.484,0,0,1,.144.672,1.1,1.1,0,0,1-.432.816,1.533,1.533,0,0,1-1.056.384,2.349,2.349,0,0,1-.96-.24,16.158,16.158,0,0,1-1.488-.816l-3.12-1.824-3.12,1.824q-.768.432-1.392.744a2.47,2.47,0,0,1-1.056.312,1.533,1.533,0,0,1-1.056-.384,1.1,1.1,0,0,1-.432-.816,1.485,1.485,0,0,1,.144-.672,3.9,3.9,0,0,1,.576-.768L276,73.584a4.285,4.285,0,0,1,1.3-1.056,3.619,3.619,0,0,1,1.632-.336h.768a3.657,3.657,0,0,1,1.608.336,4.174,4.174,0,0,1,1.32,1.056Zm33.936,4.512a2.64,2.64,0,0,1,2.016.816,2.957,2.957,0,0,1,.768,2.112v17.376a14.468,14.468,0,0,1-1.68,7.056,12.12,12.12,0,0,1-4.7,4.8,14.736,14.736,0,0,1-13.848,0,12.075,12.075,0,0,1-4.728-4.8,14.468,14.468,0,0,1-1.68-7.056V84.48a2.794,2.794,0,0,1,.864-2.088,3.036,3.036,0,0,1,2.208-.84,2.909,2.909,0,0,1,2.88,2.928v17.376a8.255,8.255,0,0,0,1.008,4.1,7.033,7.033,0,0,0,2.712,2.76,7.359,7.359,0,0,0,3.672.96,8.088,8.088,0,0,0,3.864-.96,7.34,7.34,0,0,0,2.88-2.76,7.82,7.82,0,0,0,1.08-4.1V84.48a3.074,3.074,0,0,1,.72-2.112A2.49,2.49,0,0,1,319.584,81.552Z" transform="translate(-1.44 -0.912)" fill="url(#linear-gradient)"/>
</svg>
