<svg xmlns="http://www.w3.org/2000/svg" xmlns:xlink="http://www.w3.org/1999/xlink" width="70.603" height="665.863" viewBox="0 0 70.603 665.863">
  <defs>
    <filter id="Union_23" x="0" y="207" width="70.603" height="70.603" filterUnits="userSpaceOnUse">
      <feOffset dx="2" dy="2" input="SourceAlpha"/>
      <feGaussianBlur stdDeviation="2" result="blur"/>
      <feFlood/>
      <feComposite operator="in" in2="blur"/>
      <feComposite in="SourceGraphic"/>
    </filter>
  </defs>
  <g id="Group_5444" data-name="Group 5444" transform="translate(-926.699 -1609)">
    <path id="Path_3339" data-name="Path 3339" d="M-3452,1620v664.863" transform="translate(4412 -10.5)" fill="none" stroke="#bfa871" stroke-linecap="round" stroke-width="1" stroke-dasharray="10 10"/>
    <g id="airplane" transform="translate(989.302 1849.302) rotate(135)">
      <g transform="matrix(-0.71, -0.71, 0.71, -0.71, -125.65, 214.19)" filter="url(#Union_23)">
        <path id="Union_23-2" data-name="Union 23" d="M3489.886-1565.844l-8.585-5.151,3.435-3.434,5.151,1.716,7.888-7.888-14.594-11.16,3.433-3.433,18.028,7.727,8.652-8.653a8.736,8.736,0,0,1,8.989-2.122,8.735,8.735,0,0,1-2.121,8.99l-8.653,8.652,7.726,18.028-3.434,3.433-11.159-14.594-7.889,7.888,1.717,5.151-3.434,3.433Zm26.048-10.6.724-.726a2.431,2.431,0,0,1,3.435,0,2.431,2.431,0,0,1,0,3.434l-2.1,2.1Zm-20.26-17.512,2.1-2.1a2.428,2.428,0,0,1,3.433,0,2.428,2.428,0,0,1,0,3.434l-.726.725Z" transform="translate(1393.8 -3351.8) rotate(135)" fill="#f0de9f"/>
      </g>
    </g>
  </g>
</svg>
