<svg xmlns="http://www.w3.org/2000/svg" width="20" height="20" viewBox="0 0 20 20">
  <g id="_call" data-name=" call" transform="translate(-168 -1216)">
    <rect id="Path" width="20" height="20" transform="translate(168 1216)" fill="#fff" opacity="0"/>
    <path id="Path-2" data-name="Path" d="M184.838,1229.951v1.33a1.526,1.526,0,0,1-1.592,1.538,13.065,13.065,0,0,1-12.218-12.218,1.526,1.526,0,0,1,1.538-1.592h1.33a1.539,1.539,0,0,1,1.53,1.361l.223,1.938a1.531,1.531,0,0,1-.438,1.261l-1.423,1.422a11.569,11.569,0,0,0,5.067,5.067l1.415-1.415a1.531,1.531,0,0,1,1.261-.438l1.953.223A1.524,1.524,0,0,1,184.838,1229.951Z" transform="translate(0.076 0.076)" fill="#fff"/>
  </g>
</svg>
