<svg xmlns="http://www.w3.org/2000/svg" width="20" height="20" viewBox="0 0 20 20">
  <g id="_email" data-name=" email" transform="translate(-780.232 -1216.535)">
    <rect id="Path" width="20" height="20" transform="translate(780.232 1216.535)" fill="#fff" opacity="0"/>
    <path id="Icon" d="M15.073,13.651H1.675A1.693,1.693,0,0,1,0,11.945L.008,1.706A1.689,1.689,0,0,1,1.675,0h13.4a1.693,1.693,0,0,1,1.675,1.706V11.945A1.693,1.693,0,0,1,15.073,13.651ZM2.385,2.288a.718.718,0,0,0-.711.724.734.734,0,0,0,.335.615L7.93,7.4a.835.835,0,0,0,.888,0l5.92-3.771a.733.733,0,0,0,.335-.615A.709.709,0,0,0,13.984,2.4L8.374,5.972,2.763,2.4A.712.712,0,0,0,2.385,2.288Z" transform="translate(781.858 1220.019)" fill="#fff"/>
  </g>
</svg>
