<svg xmlns="http://www.w3.org/2000/svg" width="19.266" height="19.266" viewBox="0 0 19.266 19.266">
  <g id="_location_on" data-name=" location_on" transform="translate(-372 -1303.746)">
    <rect id="Path" width="19.266" height="19.266" transform="translate(372 1303.746)" fill="#fff" opacity="0"/>
    <path id="Icon" d="M4.575,14.588a.62.62,0,0,1-.5-.27,33.436,33.436,0,0,1-2.484-3.98A11.729,11.729,0,0,1,0,5.245a5.624,5.624,0,0,1,1.338-3.71A4.269,4.269,0,0,1,4.572,0,4.269,4.269,0,0,1,7.806,1.535a5.625,5.625,0,0,1,1.338,3.71c0,3.092-2.846,7.375-4.069,9.073A.619.619,0,0,1,4.575,14.588Zm0-11.216A1.768,1.768,0,0,0,2.939,5.245,1.768,1.768,0,0,0,4.572,7.118,1.767,1.767,0,0,0,6.2,5.245,1.767,1.767,0,0,0,4.572,3.372Z" transform="translate(376.976 1305.906)" fill="#fff"/>
  </g>
</svg>
