<svg xmlns="http://www.w3.org/2000/svg" width="1566.88" height="828.286"><defs><linearGradient id="a" x1=".5" x2=".5" y2="1" gradientUnits="objectBoundingBox"><stop offset="0" stop-color="#f6f6f6"/><stop offset="1" stop-color="#ededed"/></linearGradient></defs><g data-name="Group 4940" transform="translate(-161.815 -179.326)"><rect data-name="Rectangle 3503" width="1520" height="802.923" rx="50" transform="translate(196.116 199.163)" fill="url(#a)"/><rect data-name="Rectangle 7" width="1520" height="777.576" rx="50" transform="translate(187.861 195.105)" fill="#fff"/><g data-name="Rectangle 3682" fill="none" stroke="#7a0000"><path d="M304.387 376.754h1106v431h-1106z" stroke="none"/><path d="M304.887 377.254h1105v430h-1105z"/></g><g data-name="Group 4900" fill="#7a0000"><path data-name="Path 38" d="M336.954 382.712a3.742 3.742 0 01-.873 2.8 3.7 3.7 0 01-2.262.79c-4.249.431-10.2-2.4-12.9 2.219a20.983 20.983 0 00-2.124 6.727 48.933 48.933 0 01-1.77 7.086c-1.166 3.291-3.143 7.2-6.95 7.858a10.97 10.97 0 01-2.609.032q-1.126-.077-2.244-.246a27.4 27.4 0 01-4.307-1.011 27.415 27.415 0 01-4.017-1.656 27.539 27.539 0 01-3.67-2.242 27.763 27.763 0 01-3.263-2.769 27.768 27.768 0 01-2.8-3.238 27.659 27.659 0 01-2.274-3.648 27.468 27.468 0 01-1.691-4 27.439 27.439 0 01-1.051-4.292 27.817 27.817 0 01-.351-4.41 27.471 27.471 0 017.173-18.552 27.536 27.536 0 0115.282-8.548 27.748 27.748 0 015.119-.475 27.587 27.587 0 0126.538 20.059 27.561 27.561 0 011.044 7.516z" opacity=".5"/><path data-name="Path 39" d="M336.958 382.775a3.046 3.046 0 01-.882 2.3c-1.173.93-2.923.639-4.3.5-2.411-.24-4.778-.888-7.2-1.02a7.113 7.113 0 00-4.9 1.133 8.274 8.274 0 00-2.426 4.046c-1.15 3.6-1.4 7.385-1.987 11.094-.47 2.973-1.112 6.718-3.91 8.432-4.031 2.469-9.887.28-13.745-1.544a27.8 27.8 0 01-12.382-11.63 27.611 27.611 0 01-3.421-13.314 27.443 27.443 0 014.258-14.726 27.583 27.583 0 0119.161-12.538 27.771 27.771 0 014.156-.311 27.58 27.58 0 0125.5 17.062 27.547 27.547 0 011.935 7.841 18.136 18.136 0 01.143 2.675z" opacity=".5"/><path data-name="Path 40" d="M336.954 382.775c0 2.022-1.862 2.541-3.505 2.389a40.681 40.681 0 01-9.778-2.544c-2.116-.74-4.911-1.679-7.043-.5-3.138 1.736-2.9 6.29-2.937 9.344-.043 3.92.782 8.215-.04 12.115-.565 2.682-2.041 5.494-4.827 6.361a6.309 6.309 0 01-1.874.274 7.766 7.766 0 01-.989-.075h-.006a27.6 27.6 0 01-22.408-17.693 27.526 27.526 0 01-1.743-9.67 27.467 27.467 0 012.643-11.8 27.583 27.583 0 0123.5-15.743c.474-.025.948-.036 1.427-.036a27.529 27.529 0 0121.954 10.887 27.448 27.448 0 015.626 16.691z"/></g></g></svg>