<svg xmlns="http://www.w3.org/2000/svg" width="1549.676" height="806.747"><defs><linearGradient id="a" x1=".5" x2=".5" y2="1" gradientUnits="objectBoundingBox"><stop offset="0" stop-color="#f6f6f6"/><stop offset="1" stop-color="#ededed"/></linearGradient></defs><g data-name="Group 4942" transform="translate(-170.417 -1381)"><rect data-name="Rectangle 3507" width="1520" height="780" rx="50" transform="translate(196.463 1396.362)" fill="url(#a)"/><rect data-name="Rectangle 3506" width="1520" height="750" rx="50" transform="translate(187.514 1410.604)" fill="#fff"/><g data-name="Rectangle 3683" fill="none" stroke="#7a0000"><path d="M510.196 1603.322h1106v384h-1106z" stroke="none"/><path d="M510.696 1603.822h1105v383h-1105z"/></g><g data-name="Group 4902" fill="#7a0000"><path data-name="Path 38" d="M1583.046 1611.281a3.742 3.742 0 00.873 2.8 3.7 3.7 0 002.262.79c4.249.431 10.2-2.4 12.9 2.219a20.983 20.983 0 012.124 6.727 48.933 48.933 0 001.77 7.086c1.166 3.291 3.143 7.2 6.951 7.858a10.97 10.97 0 002.609.032q1.126-.077 2.244-.246a27.4 27.4 0 004.307-1.011 27.415 27.415 0 004.017-1.656 27.539 27.539 0 003.67-2.242 27.763 27.763 0 003.263-2.769 27.768 27.768 0 002.8-3.238 27.659 27.659 0 002.274-3.648 27.468 27.468 0 001.691-4 27.439 27.439 0 001.051-4.292 27.817 27.817 0 00.351-4.41 27.471 27.471 0 00-7.173-18.552 27.536 27.536 0 00-15.282-8.548 27.748 27.748 0 00-5.119-.475 27.587 27.587 0 00-26.538 20.059 27.561 27.561 0 00-1.045 7.516z" opacity=".5"/><path data-name="Path 39" d="M1583.041 1611.344a3.046 3.046 0 00.882 2.3c1.173.93 2.923.639 4.3.5 2.411-.24 4.778-.888 7.2-1.02a7.113 7.113 0 014.9 1.133 8.274 8.274 0 012.426 4.046c1.15 3.6 1.4 7.385 1.987 11.094.47 2.973 1.112 6.718 3.91 8.432 4.031 2.469 9.888.28 13.745-1.544a27.8 27.8 0 0012.382-11.63 27.611 27.611 0 003.421-13.314 27.443 27.443 0 00-4.258-14.726 27.583 27.583 0 00-19.161-12.538 27.771 27.771 0 00-4.156-.311 27.58 27.58 0 00-25.5 17.062 27.547 27.547 0 00-1.935 7.841 18.136 18.136 0 00-.143 2.675z" opacity=".5"/><path data-name="Path 40" d="M1583.046 1611.344c0 2.022 1.862 2.541 3.505 2.389a40.681 40.681 0 009.778-2.544c2.116-.74 4.911-1.679 7.043-.5 3.138 1.736 2.9 6.29 2.937 9.344.043 3.92-.782 8.215.04 12.115.565 2.682 2.041 5.494 4.827 6.361a6.309 6.309 0 001.874.274 7.766 7.766 0 00.989-.075h.006a27.6 27.6 0 0022.408-17.693 27.526 27.526 0 001.743-9.67 27.467 27.467 0 00-2.643-11.8 27.583 27.583 0 00-23.5-15.743 27.045 27.045 0 00-1.427-.036 27.529 27.529 0 00-21.954 10.887 27.448 27.448 0 00-5.626 16.691z"/></g></g></svg>