<svg xmlns="http://www.w3.org/2000/svg" width="70.603" height="665.863"><defs><filter id="a" x="0" y="207" width="70.603" height="70.603" filterUnits="userSpaceOnUse"><feOffset dx="2" dy="2"/><feGaussianBlur stdDeviation="2" result="blur"/><feFlood/><feComposite operator="in" in2="blur"/><feComposite in="SourceGraphic"/></filter></defs><g data-name="Group 5444"><path data-name="Path 3339" d="M33.301.5v664.863" fill="none" stroke="#bfa871" stroke-linecap="round" stroke-dasharray="10 10"/><g transform="translate(-.004 -.001)" filter="url(#a)"><path data-name="Union 23" d="M33.297 223.141l9.713-2.428-.001 4.857-4.856 2.429v11.155l18.211-2.428v4.855l-18.211 7.284V261.1a8.736 8.736 0 01-4.855 7.857 8.735 8.735 0 01-4.858-7.857l.001-12.236-18.21-7.285v-4.856l18.21 2.43v-11.157l-4.856-2.428.001-4.856zm-10.924 25.914l.002 1.025a2.431 2.431 0 01-2.429 2.43 2.431 2.431 0 01-2.428-2.429v-2.97zm26.71-1.943v2.97a2.428 2.428 0 01-2.428 2.427 2.428 2.428 0 01-2.428-2.428v-1.026z" fill="#f0de9f"/></g></g></svg>