<svg xmlns="http://www.w3.org/2000/svg" width="19.266" height="19.266"><path d="M9.551 16.748a.62.62 0 01-.5-.27 33.436 33.436 0 01-2.484-3.98 11.729 11.729 0 01-1.591-5.093 5.624 5.624 0 011.338-3.71A4.269 4.269 0 019.548 2.16a4.269 4.269 0 013.234 1.535 5.625 5.625 0 011.338 3.71c0 3.092-2.846 7.375-4.069 9.073a.619.619 0 01-.5.27zm0-11.216a1.768 1.768 0 00-1.636 1.873 1.768 1.768 0 001.633 1.873 1.767 1.767 0 001.628-1.873 1.767 1.767 0 00-1.628-1.873z" fill="#fff" data-name="location_on"/></svg>