<svg xmlns="http://www.w3.org/2000/svg" xmlns:xlink="http://www.w3.org/1999/xlink" width="1920" height="1057" viewBox="0 0 1920 1057">
  <defs>
    <clipPath id="clip-About_Us">
      <rect width="1920" height="1057"/>
    </clipPath>
  </defs>
  <g id="About_Us" data-name="About Us" clip-path="url(#clip-About_Us)">
    <rect width="1920" height="1057" fill="#733528"/>
    <g id="Group_3051" data-name="Group 3051" transform="matrix(-0.921, -0.391, 0.391, -0.921, 2018.708, 2072.208)" opacity="0.5">
      <path id="Path_38" data-name="Path 38" d="M-545.742-287.356c0,17.924-2.125,38.382-16.129,51.719-11.152,10.62-27,13.091-41.815,14.594-78.546,7.973-188.474-44.306-238.413,41.018-22.221,37.969-30.992,81.668-39.264,124.346-8.564,44.216-17.627,88.454-32.7,131-21.561,60.835-58.1,133.08-128.49,145.262-15.854,2.745-32.253,1.7-48.225.6q-20.814-1.425-41.474-4.541a506.485,506.485,0,0,1-79.615-18.7,506.875,506.875,0,0,1-74.267-30.61,510.11,510.11,0,0,1-67.837-41.442A512.931,512.931,0,0,1-1414.3,74.7a513.171,513.171,0,0,1-51.723-59.853,510.1,510.1,0,0,1-42.037-67.429,507.425,507.425,0,0,1-31.27-73.922,506.493,506.493,0,0,1-19.416-79.333,513.886,513.886,0,0,1-6.486-81.521,507.792,507.792,0,0,1,132.606-342.955,509.005,509.005,0,0,1,282.506-158.01,512.753,512.753,0,0,1,94.634-8.778c233.355,0,430.1,156.809,490.577,370.8A509.674,509.674,0,0,1-545.742-287.356Z" transform="translate(1565.23 797.098)" fill="none" stroke="#fff" stroke-width="3" opacity="0.5"/>
      <path id="Path_39" data-name="Path 39" d="M-545.662-286.922c-.8,15.088-3.719,32.564-16.3,42.542-21.674,17.187-54.03,11.807-79.506,9.27-44.579-4.439-88.318-16.42-133.054-18.856-31.093-1.7-65.555.757-90.626,20.934-23.159,18.637-36,47.116-44.849,74.783-21.248,66.478-25.893,136.523-36.729,205.081-8.687,54.953-20.565,124.189-72.291,155.878-74.509,45.648-182.768,5.169-254.083-28.545a513.945,513.945,0,0,1-228.886-214.98,510.442,510.442,0,0,1-63.243-246.11,507.288,507.288,0,0,1,78.705-272.217c77.313-122.193,205.19-209.247,354.207-231.772a513.512,513.512,0,0,1,76.834-5.757c212.7,0,394.985,130.279,471.363,315.4a509.43,509.43,0,0,1,35.768,144.938C-546.99-322.3-544.764-304.105-545.662-286.922Z" transform="translate(1565.23 797.905)" fill="none" stroke="#fff" stroke-width="3" opacity="0.5"/>
      <path id="Path_40" data-name="Path 40" d="M-545.742-286.925c0,37.374-34.418,46.966-64.795,44.16-63.7-5.882-121.033-26.148-180.753-47.035-39.123-13.685-90.78-31.039-130.2-9.235-58,32.085-53.676,116.268-54.291,172.732-.793,72.456,14.456,151.865-.741,223.951-10.451,49.577-37.727,101.55-89.225,117.589a116.587,116.587,0,0,1-34.645,5.061,143.817,143.817,0,0,1-18.28-1.389.277.277,0,0,1-.122-.023c-190.8-23.605-348.9-152.684-414.221-327.054a508.81,508.81,0,0,1-32.218-178.757,507.767,507.767,0,0,1,48.865-218.051c78.178-164.943,242.277-281.238,434.494-291.022,8.756-.457,17.534-.673,26.388-.673,165.587,0,312.73,78.946,405.826,201.259A507.351,507.351,0,0,1-545.742-286.925Z" transform="translate(1565.23 797.905)" fill="none" stroke="#fff" stroke-width="3" opacity="0.5"/>
    </g>
    <g id="Group_4921" data-name="Group 4921" transform="matrix(0.921, -0.391, 0.391, 0.921, -384.742, 495.964)" opacity="0.5">
      <path id="Path_38-2" data-name="Path 38" d="M652.269,326.093c0-11.468-1.359-24.557-10.319-33.09-7.135-6.795-17.272-8.375-26.753-9.337-50.254-5.1-120.586,28.347-152.536-26.243-14.217-24.293-19.829-52.251-25.121-79.556-5.479-28.289-11.278-56.593-20.924-83.811C402.819,55.133,379.443,8.911,334.406,1.117,324.262-.639,313.771.032,303.551.731q-13.317.912-26.535,2.905A324.65,324.65,0,0,0,135.161,61.7,327.45,327.45,0,0,0,36.579,175.884,323.8,323.8,0,0,0,4.15,273.936,328.785,328.785,0,0,0,0,326.093,325.824,325.824,0,0,0,326.135,652.227c149.3,0,275.18-100.326,313.871-237.241A326.089,326.089,0,0,0,652.269,326.093Z" transform="translate(0 1.024)" fill="none" stroke="#fff" stroke-width="3" opacity="0.5"/>
      <path id="Path_39-2" data-name="Path 39" d="M652.319,326.324c-.509-9.653-2.379-20.834-10.429-27.218-13.867-11-34.568-7.554-50.868-5.931-28.521,2.84-56.506,10.506-85.128,12.064-19.893,1.085-41.942-.485-57.983-13.394C433.095,279.921,424.878,261.7,419.218,244c-13.595-42.533-16.567-87.348-23.5-131.211-5.558-35.159-13.157-79.456-46.252-99.731C301.8-16.149,232.532,9.75,186.9,31.32A326.033,326.033,0,0,0,0,326.326,326.093,326.093,0,0,0,276.977,648.778a328.55,328.55,0,0,0,49.158,3.683c136.086,0,252.712-83.353,301.578-201.79A325.932,325.932,0,0,0,650.6,357.94C651.47,348.957,652.894,337.317,652.319,326.324Z" transform="translate(0 0)" fill="none" stroke="#fff" stroke-width="3" opacity="0.5"/>
      <path id="Path_40-2" data-name="Path 40" d="M652.269,324.521c0-23.912-22.021-30.049-41.456-28.254C570.057,300.031,533.376,313,495.167,326.36c-25.031,8.756-58.081,19.859-83.3,5.909-37.108-20.528-34.342-74.388-34.735-110.514-.507-46.357,9.249-97.163-.474-143.284C369.97,46.752,352.519,13.5,319.571,3.238A74.592,74.592,0,0,0,297.405,0a92.017,92.017,0,0,0-11.7.888.176.176,0,0,0-.078.015C163.559,16.006,62.4,98.59,20.613,210.153A327.206,327.206,0,0,0,31.264,464.03c50.018,105.53,155.009,179.936,277.989,186.2,5.6.292,11.219.43,16.883.43A326.1,326.1,0,0,0,652.269,324.521Z" transform="translate(0 1.805)" fill="none" stroke="#fff" stroke-width="3" opacity="0.5"/>
    </g>
  </g>
</svg>
