<svg xmlns="http://www.w3.org/2000/svg" width="24" height="23.924" viewBox="0 0 24 23.924">
  <g id="Group_79" data-name="Group 79" transform="translate(-624 -397)">
    <g id="Rectangle_21" data-name="Rectangle 21" transform="translate(624 397)" fill="#fff" stroke="#707070" stroke-width="1" opacity="0">
      <rect width="24" height="23.924" stroke="none"/>
      <rect x="0.5" y="0.5" width="23" height="22.924" fill="none"/>
    </g>
    <g id="mail" transform="translate(624 325)">
      <g id="Group_86" data-name="Group 86" transform="translate(16.51 77.206)">
        <g id="Group_85" data-name="Group 85" transform="translate(0 0)">
          <path id="Path_73" data-name="Path 73" d="M359.49,101.721l-7.279,7.232,7.279,7.232a2.085,2.085,0,0,0,.211-.9V102.625A2.085,2.085,0,0,0,359.49,101.721Z" transform="translate(-352.211 -101.721)" fill="#fff"/>
        </g>
      </g>
      <g id="Group_88" data-name="Group 88" transform="translate(1.206 76)">
        <g id="Group_87" data-name="Group 87" transform="translate(0 0)">
          <path id="Path_74" data-name="Path 74" d="M46.406,76H26.625a2.085,2.085,0,0,0-.9.211l9.3,9.256a2.111,2.111,0,0,0,2.983,0l9.3-9.256A2.085,2.085,0,0,0,46.406,76Z" transform="translate(-25.721 -76)" fill="#fff"/>
        </g>
      </g>
      <g id="Group_90" data-name="Group 90" transform="translate(0 77.206)">
        <g id="Group_89" data-name="Group 89" transform="translate(0 0)">
          <path id="Path_75" data-name="Path 75" d="M.211,101.721a2.085,2.085,0,0,0-.211.9v12.656a2.085,2.085,0,0,0,.211.9l7.279-7.232Z" transform="translate(0 -101.721)" fill="#fff"/>
        </g>
      </g>
      <g id="Group_92" data-name="Group 92" transform="translate(1.206 85.432)">
        <g id="Group_91" data-name="Group 91">
          <path id="Path_76" data-name="Path 76" d="M40.031,277.211,39,278.241a3.519,3.519,0,0,1-4.971,0L33,277.211l-7.279,7.232a2.085,2.085,0,0,0,.9.211H46.406a2.085,2.085,0,0,0,.9-.211Z" transform="translate(-25.721 -277.211)" fill="#fff"/>
        </g>
      </g>
    </g>
  </g>
</svg>
