<svg xmlns="http://www.w3.org/2000/svg" width="905.747" height="232.649" viewBox="0 0 905.747 232.649">
  <g id="Group_31" data-name="Group 31" transform="translate(-186.208 -247.034)">
    <g id="Group_7" data-name="Group 7" transform="translate(478.054 448.075)">
      <path id="Path_15" data-name="Path 15" d="M359.413,348.081l20.455,29.891,20.526-29.891h2.7v31.608h-1.844V349.817l-20.628,29.872h-1.47l-20.522-29.72v29.72h-1.844V348.081Z" transform="translate(-356.781 -348.081)" fill="#fff"/>
      <path id="Path_16" data-name="Path 16" d="M417.214,364.014H392.282v14.5H420.7v1.173h-30.26V348.081H420.7v1.172H392.282v13.588h24.932Z" transform="translate(-301.936 -348.081)" fill="#fff"/>
      <path id="Path_17" data-name="Path 17" d="M413.968,379.689V348.081H427.73a31.513,31.513,0,0,1,8.163,1.007,21.99,21.99,0,0,1,6.508,2.848,14.107,14.107,0,0,1,4.3,4.385,10.638,10.638,0,0,1,1.552,5.631v3.864a10.637,10.637,0,0,1-1.552,5.632,14.1,14.1,0,0,1-4.3,4.384,21.951,21.951,0,0,1-6.508,2.849,31.608,31.608,0,0,1-8.163,1.007Zm1.844-30.436v29.263H427.73a27.767,27.767,0,0,0,7.431-.947,19.93,19.93,0,0,0,5.923-2.623,12.976,12.976,0,0,0,3.912-4.02,9.665,9.665,0,0,0,1.416-5.11v-3.929a9.6,9.6,0,0,0-1.416-5.08,12.918,12.918,0,0,0-3.912-3.993,19.964,19.964,0,0,0-5.923-2.614,27.777,27.777,0,0,0-7.431-.947Z" transform="translate(-252.768 -348.081)" fill="#fff"/>
      <path id="Path_18" data-name="Path 18" d="M443.014,379.689H441.17V348.081h1.844Z" transform="translate(-203.422 -348.081)" fill="#fff"/>
      <path id="Path_19" data-name="Path 19" d="M482.5,370.246H458.154l-5.531,9.443h-2.013l18.611-31.608h2.254l18.615,31.608h-2.017Zm-23.664-1.172h22.982l-11.476-19.581Z" transform="translate(-168.795 -348.081)" fill="#fff"/>
    </g>
    <g id="Group_11" data-name="Group 11" transform="translate(186.208 247.034)">
      <g id="Group_8" data-name="Group 8" transform="translate(0 1.124)">
        <path id="Path_20" data-name="Path 20" d="M257.814,298.62A51.128,51.128,0,0,1,282.2,317.575a49.959,49.959,0,0,1,9.63,29.814,49.432,49.432,0,0,1-15.573,36.783,53.187,53.187,0,0,1-74.484.3,49.633,49.633,0,0,1-15.777-36.268h10.553A39.992,39.992,0,0,0,209.25,377a42.558,42.558,0,0,0,59.526-.308,41.071,41.071,0,0,0,0-58.81,40.943,40.943,0,0,0-29.917-12.294A28.526,28.526,0,0,1,219.8,298.62q-1.128-1.023-1.536-1.434a28.816,28.816,0,0,1,0-41.083,28.039,28.039,0,0,1,20.592-8.5,28.38,28.38,0,0,1,20.7,8.5,28.04,28.04,0,0,1,8.5,20.592H257.506a18.713,18.713,0,0,0-18.641-18.543,18.51,18.51,0,0,0-13.123,5.434,18.311,18.311,0,0,0,.38,26.386,18.74,18.74,0,0,0,12.958,5.063h0a50.674,50.674,0,0,1,18.378,3.448Z" transform="translate(-185.994 -247.599)" fill="#fff"/>
        <path id="Path_21" data-name="Path 21" d="M402.9,396.063H389.884l-64.24-121.717L261.817,396.063H248.19l70.079-133.4v-.1l7.375-13.73,7.069,13.32Z" transform="translate(-124.446 -246.377)" fill="#fff"/>
        <path id="Path_22" data-name="Path 22" d="M387.591,248.937a62.992,62.992,0,0,1,27.868,6.866q27.561,13.421,27.56,46.206,0,32.888-27.56,46.309a63.779,63.779,0,0,1-27.868,6.763H351.938v40.675H341.18V248.937Zm-35.653,10.656V344.53h35.653a51.343,51.343,0,0,0,22.745-5.639q21.517-10.553,21.515-36.883,0-26.23-21.412-36.883a50.931,50.931,0,0,0-22.849-5.533Z" transform="translate(-32.425 -246.275)" fill="#fff"/>
        <path id="Path_23" data-name="Path 23" d="M419.335,395.807H408.577V248.886h10.758Z" transform="translate(34.27 -246.325)" fill="#fff"/>
      </g>
      <g id="Group_9" data-name="Group 9" transform="translate(616.645)">
        <path id="Path_24" data-name="Path 24" d="M567.749,298.057a51.138,51.138,0,0,1,24.388,18.955,50.018,50.018,0,0,1,9.626,29.812,49.435,49.435,0,0,1-15.573,36.783,53.19,53.19,0,0,1-74.486.3,49.648,49.648,0,0,1-15.773-36.268h10.554a39.97,39.97,0,0,0,12.7,28.791,42.553,42.553,0,0,0,59.524-.31,41.072,41.072,0,0,0,0-58.806A40.958,40.958,0,0,0,548.8,305.024a28.535,28.535,0,0,1-19.06-6.968c-.748-.682-1.265-1.162-1.53-1.434a29.046,29.046,0,0,1,20.59-49.589,28.383,28.383,0,0,1,20.692,8.5,28.033,28.033,0,0,1,8.505,20.594H567.439a17.7,17.7,0,0,0-5.527-13.113,17.891,17.891,0,0,0-13.105-5.432,18.533,18.533,0,0,0-13.117,5.424,18.317,18.317,0,0,0,.366,26.394,18.788,18.788,0,0,0,12.986,5.068h0a50.488,50.488,0,0,1,18.318,3.434Z" transform="translate(-495.931 -247.034)" fill="#fff"/>
        <path id="Path_25" data-name="Path 25" d="M640.841,247.137q31.25,0,53.381,22.13t22.13,53.379q0,31.249-22.13,53.376t-53.381,22.13q-31.249,0-53.376-22.13t-22.13-53.376q0-31.247,22.13-53.379T640.841,247.137Zm0,140.361a64.908,64.908,0,0,0,45.9-110.75,64.911,64.911,0,0,0-91.8,91.8A62.732,62.732,0,0,0,640.841,387.5Z" transform="translate(-427.25 -246.932)" fill="#fff"/>
      </g>
      <g id="Group_29" data-name="Group 29" transform="translate(477.192 3.229)">
        <path id="Path_38" data-name="Path 38" d="M-1418.248-723.607c0,2.584-.307,5.534-2.325,7.456-1.608,1.532-3.892,1.888-6.028,2.1-11.324,1.149-27.173-6.388-34.373,5.914-3.2,5.474-4.468,11.774-5.66,17.927a130.554,130.554,0,0,1-4.716,18.886c-3.108,8.771-8.376,19.186-18.524,20.943a29.222,29.222,0,0,1-6.952.086q-3-.205-5.979-.655a73.072,73.072,0,0,1-11.479-2.7,73.027,73.027,0,0,1-10.706-4.414,73.4,73.4,0,0,1-9.78-5.975,73.977,73.977,0,0,1-8.7-7.38,74.049,74.049,0,0,1-7.457-8.629,73.8,73.8,0,0,1-6.061-9.721,73.182,73.182,0,0,1-4.508-10.658,72.982,72.982,0,0,1-2.8-11.437,74.026,74.026,0,0,1-.936-11.753,73.215,73.215,0,0,1,19.118-49.445,73.385,73.385,0,0,1,40.73-22.78,73.9,73.9,0,0,1,13.644-1.266,73.522,73.522,0,0,1,70.728,53.46A73.482,73.482,0,0,1-1418.248-723.607Z" transform="translate(1565.23 797.098)" fill="#bfbfbf"/>
        <path id="Path_39" data-name="Path 39" d="M-1418.236-723.179c-.114,2.176-.536,4.7-2.351,6.134-3.125,2.478-7.789,1.7-11.462,1.336-6.427-.64-12.733-2.367-19.183-2.719-4.482-.244-9.451.109-13.066,3.018-3.339,2.687-5.189,6.793-6.465,10.782-3.064,9.584-3.733,19.683-5.3,29.567-1.252,7.922-2.964,17.9-10.422,22.474-10.742,6.581-26.351.745-36.631-4.116a74.1,74.1,0,0,1-33-30.995,73.6,73.6,0,0,1-9.118-35.482,73.133,73.133,0,0,1,11.348-39.246,73.511,73.511,0,0,1,51.067-33.416,74.044,74.044,0,0,1,11.077-.83,73.5,73.5,0,0,1,67.957,45.472,73.447,73.447,0,0,1,5.157,20.9A48.4,48.4,0,0,1-1418.236-723.179Z" transform="translate(1565.23 796.849)" fill="#d9d9d9"/>
        <path id="Path_40" data-name="Path 40" d="M-1418.248-723.18c0,5.388-4.962,6.771-9.342,6.367-9.184-.849-17.449-3.77-26.06-6.781-5.64-1.973-13.088-4.475-18.771-1.332-8.362,4.626-7.738,16.763-7.828,24.9-.114,10.446,2.085,21.895-.106,32.288-1.506,7.147-5.439,14.641-12.863,16.953a16.82,16.82,0,0,1-5,.729,20.668,20.668,0,0,1-2.635-.2.038.038,0,0,1-.018,0,73.564,73.564,0,0,1-59.72-47.152,73.347,73.347,0,0,1-4.646-25.772,73.192,73.192,0,0,1,7.045-31.437,73.511,73.511,0,0,1,62.643-41.958q1.893-.1,3.8-.1a73.366,73.366,0,0,1,58.509,29.016A73.149,73.149,0,0,1-1418.248-723.18Z" transform="translate(1565.23 796.849)" fill="#fff"/>
      </g>
    </g>
  </g>
</svg>
