<svg xmlns="http://www.w3.org/2000/svg" width="332.299" height="85.354" viewBox="0 0 332.299 85.354">
  <g id="Group_4904" data-name="Group 4904" transform="translate(-186.208 -247.034)">
    <g id="Group_7" data-name="Group 7" transform="translate(293.28 320.792)">
      <path id="Path_15" data-name="Path 15" d="M357.747,348.081l7.5,10.966,7.531-10.966h.989v11.6h-.677V348.718l-7.568,10.959h-.539l-7.529-10.9v10.9h-.677v-11.6Z" transform="translate(-356.781 -348.081)" fill="#fff"/>
      <path id="Path_16" data-name="Path 16" d="M400.261,353.926h-9.147v5.321h10.425v.43h-11.1v-11.6h11.1v.43H391.115V353.5h9.147Z" transform="translate(-357.969 -348.081)" fill="#fff"/>
      <path id="Path_17" data-name="Path 17" d="M413.968,359.677v-11.6h5.049a11.562,11.562,0,0,1,2.995.37A8.068,8.068,0,0,1,424.4,349.5a5.176,5.176,0,0,1,1.579,1.609,3.9,3.9,0,0,1,.569,2.066v1.418a3.9,3.9,0,0,1-.569,2.066,5.173,5.173,0,0,1-1.579,1.608,8.052,8.052,0,0,1-2.388,1.045,11.591,11.591,0,0,1-2.995.37Zm.677-11.166v10.736h4.372a10.187,10.187,0,0,0,2.726-.347,7.31,7.31,0,0,0,2.173-.962,4.761,4.761,0,0,0,1.435-1.475,3.546,3.546,0,0,0,.52-1.875v-1.441a3.521,3.521,0,0,0-.52-1.864,4.74,4.74,0,0,0-1.435-1.465,7.324,7.324,0,0,0-2.173-.959,10.19,10.19,0,0,0-2.726-.347Z" transform="translate(-354.827 -348.081)" fill="#fff"/>
      <path id="Path_18" data-name="Path 18" d="M441.847,359.677h-.677v-11.6h.677Z" transform="translate(-353.946 -348.081)" fill="#fff"/>
      <path id="Path_19" data-name="Path 19" d="M462.31,356.213h-8.933l-2.029,3.465h-.739l6.828-11.6h.827l6.829,11.6h-.74Zm-8.682-.43h8.431l-4.21-7.184Z" transform="translate(-347.218 -348.081)" fill="#fff"/>
    </g>
    <g id="Group_11" data-name="Group 11" transform="translate(186.208 247.034)">
      <g id="Group_8" data-name="Group 8" transform="translate(0 0.412)">
        <path id="Path_20" data-name="Path 20" d="M212.343,266.317a18.758,18.758,0,0,1,8.946,6.954,18.329,18.329,0,0,1,3.533,10.938,18.136,18.136,0,0,1-5.713,13.5,19.513,19.513,0,0,1-27.326.112,18.209,18.209,0,0,1-5.788-13.306h3.872a14.672,14.672,0,0,0,4.661,10.563,15.613,15.613,0,0,0,21.839-.113,15.068,15.068,0,0,0,0-21.576,15.021,15.021,0,0,0-10.976-4.51,10.466,10.466,0,0,1-6.991-2.556q-.414-.376-.564-.526a10.572,10.572,0,0,1,0-15.072,10.287,10.287,0,0,1,7.555-3.12,10.412,10.412,0,0,1,7.593,3.12,10.287,10.287,0,0,1,3.12,7.555H212.23a6.865,6.865,0,0,0-6.839-6.8,6.791,6.791,0,0,0-4.815,1.993,6.718,6.718,0,0,0,.139,9.68A6.875,6.875,0,0,0,205.47,265h0a18.591,18.591,0,0,1,6.742,1.265Z" transform="translate(-185.994 -247.599)" fill="#fff"/>
        <path id="Path_21" data-name="Path 21" d="M304.948,302.849h-4.774l-23.568-44.655-23.417,44.655h-5l25.71-48.941v-.037l2.706-5.037,2.593,4.887Z" transform="translate(-202.791 -247.933)" fill="#fff"/>
        <path id="Path_22" data-name="Path 22" d="M358.207,248.937a23.11,23.11,0,0,1,10.224,2.519q10.111,4.924,10.111,16.952,0,12.066-10.111,16.99a23.4,23.4,0,0,1-10.224,2.481h-13.08V302.8H341.18V248.937Zm-13.08,3.91v31.162h13.08a18.836,18.836,0,0,0,8.345-2.069q7.894-3.872,7.893-13.531,0-9.623-7.856-13.531a18.685,18.685,0,0,0-8.383-2.03Z" transform="translate(-227.905 -247.96)" fill="#fff"/>
        <path id="Path_23" data-name="Path 23" d="M412.524,302.788h-3.947v-53.9h3.947Z" transform="translate(-246.106 -247.947)" fill="#fff"/>
      </g>
      <g id="Group_9" data-name="Group 9" transform="translate(226.233)">
        <path id="Path_24" data-name="Path 24" d="M522.279,265.753a18.762,18.762,0,0,1,8.948,6.954,18.351,18.351,0,0,1,3.531,10.937,18.137,18.137,0,0,1-5.713,13.495,19.514,19.514,0,0,1-27.327.112,18.215,18.215,0,0,1-5.787-13.306H499.8a14.664,14.664,0,0,0,4.661,10.563,15.612,15.612,0,0,0,21.838-.114,15.068,15.068,0,0,0,0-21.575,15.027,15.027,0,0,0-10.976-4.51,10.469,10.469,0,0,1-6.993-2.556c-.275-.25-.464-.426-.561-.526a10.656,10.656,0,0,1,7.554-18.193,10.413,10.413,0,0,1,7.591,3.12,10.285,10.285,0,0,1,3.12,7.556h-3.872a6.5,6.5,0,0,0-2.028-4.811,6.564,6.564,0,0,0-4.808-1.993,6.8,6.8,0,0,0-4.812,1.99,6.72,6.72,0,0,0,.134,9.683,6.892,6.892,0,0,0,4.764,1.859h0a18.523,18.523,0,0,1,6.72,1.26Z" transform="translate(-495.931 -247.034)" fill="#fff"/>
        <path id="Path_25" data-name="Path 25" d="M593.037,247.137a27.72,27.72,0,1,1-19.583,8.119A26.69,26.69,0,0,1,593.037,247.137Zm0,51.5a23.74,23.74,0,1,0-16.84-6.953A23.018,23.018,0,0,0,593.037,298.632Z" transform="translate(-514.675 -247.062)" fill="#fff"/>
      </g>
      <g id="Group_29" data-name="Group 29" transform="translate(175.071 1.184)">
        <path id="Path_38" data-name="Path 38" d="M-1511.306-770.136a3.659,3.659,0,0,1-.853,2.736,3.621,3.621,0,0,1-2.212.772c-4.154.422-9.969-2.344-12.611,2.17a20.513,20.513,0,0,0-2.077,6.577,47.877,47.877,0,0,1-1.73,6.929c-1.14,3.218-3.073,7.039-6.8,7.683a10.727,10.727,0,0,1-2.551.032q-1.1-.075-2.194-.24a26.779,26.779,0,0,1-4.211-.989,26.8,26.8,0,0,1-3.928-1.619,26.931,26.931,0,0,1-3.588-2.192,27.132,27.132,0,0,1-3.191-2.708,27.154,27.154,0,0,1-2.736-3.166,27.017,27.017,0,0,1-2.223-3.567,26.83,26.83,0,0,1-1.654-3.91,26.778,26.778,0,0,1-1.027-4.2,27.189,27.189,0,0,1-.343-4.312,26.86,26.86,0,0,1,7.014-18.14,26.922,26.922,0,0,1,14.943-8.358,27.122,27.122,0,0,1,5.006-.464,26.974,26.974,0,0,1,25.948,19.613A26.963,26.963,0,0,1-1511.306-770.136Z" transform="translate(1565.23 797.098)" fill="#fff" opacity="0.5"/>
        <path id="Path_39" data-name="Path 39" d="M-1511.3-769.709a2.978,2.978,0,0,1-.862,2.25c-1.146.909-2.858.625-4.205.49-2.358-.235-4.671-.868-7.038-1a6.955,6.955,0,0,0-4.794,1.107,8.091,8.091,0,0,0-2.372,3.956c-1.124,3.516-1.37,7.221-1.943,10.848-.459,2.907-1.088,6.569-3.823,8.245-3.941,2.414-9.668.273-13.439-1.51a27.182,27.182,0,0,1-12.107-11.371,27,27,0,0,1-3.345-13.018,26.829,26.829,0,0,1,4.163-14.4,26.969,26.969,0,0,1,18.735-12.26,27.167,27.167,0,0,1,4.064-.3,26.967,26.967,0,0,1,24.932,16.682,26.943,26.943,0,0,1,1.892,7.666A17.763,17.763,0,0,1-1511.3-769.709Z" transform="translate(1565.23 796.736)" fill="#fff" opacity="0.5"/>
        <path id="Path_40" data-name="Path 40" d="M-1511.306-769.709c0,1.977-1.821,2.484-3.427,2.336a39.78,39.78,0,0,1-9.561-2.488c-2.069-.724-4.8-1.642-6.887-.489-3.068,1.7-2.839,6.15-2.872,9.137-.042,3.833.765,8.033-.039,11.846-.553,2.622-2,5.371-4.719,6.22a6.171,6.171,0,0,1-1.833.268,7.6,7.6,0,0,1-.967-.073h-.006a26.99,26.99,0,0,1-21.91-17.3,26.907,26.907,0,0,1-1.7-9.455,26.855,26.855,0,0,1,2.584-11.533,26.969,26.969,0,0,1,22.982-15.393c.463-.024.927-.036,1.4-.036a26.917,26.917,0,0,1,21.466,10.645A26.837,26.837,0,0,1-1511.306-769.709Z" transform="translate(1565.23 796.736)" fill="#fff"/>
      </g>
    </g>
  </g>
</svg>
