<svg xmlns="http://www.w3.org/2000/svg" xmlns:xlink="http://www.w3.org/1999/xlink" width="375" height="1132" viewBox="0 0 375 1132">
  <defs>
    <clipPath id="clip-path">
      <rect id="Rectangle_3693" data-name="Rectangle 3693" width="262" height="320" transform="translate(113 2216)" fill="#fff" stroke="#707070" stroke-width="1"/>
    </clipPath>
    <clipPath id="clip-Home">
      <rect width="375" height="1132"/>
    </clipPath>
  </defs>
  <g id="Home" clip-path="url(#clip-Home)">
    <rect width="375" height="1132" fill="#7a0000"/>
    <g id="Group_4916" data-name="Group 4916" transform="matrix(0.974, -0.225, 0.225, 0.974, -119.734, 140.239)" opacity="0.22">
      <path id="Path_38" data-name="Path 38" d="M194.789,97.394c0,3.425-.406,7.334-3.082,9.882-2.131,2.029-5.158,2.5-7.989,2.788-15.007,1.523-36.011-8.465-45.553,7.837-4.246,7.255-5.922,15.6-7.5,23.758-1.636,8.448-3.368,16.9-6.249,25.029-4.12,11.624-11.1,25.427-24.55,27.755a38.729,38.729,0,0,1-9.214.115q-3.977-.272-7.924-.868a96.951,96.951,0,0,1-42.363-17.339,97.787,97.787,0,0,1-29.44-34.1A96.7,96.7,0,0,1,1.239,112.97,98.192,98.192,0,0,1,0,97.394a97.395,97.395,0,1,1,194.789,0Z" transform="translate(0 0)" fill="none" stroke="#fff" stroke-width="1" opacity="0.5"/>
      <path id="Path_39" data-name="Path 39" d="M194.8,97.4c-.152,2.883-.71,6.222-3.115,8.128-4.141,3.284-10.323,2.256-15.191,1.771-8.518-.848-16.875-3.137-25.422-3.6-5.941-.324-12.525.145-17.315,4-4.425,3.561-6.879,9-8.569,14.288-4.06,12.7-4.947,26.085-7.018,39.184-1.66,10.5-3.929,23.728-13.812,29.783-14.236,8.722-34.921.988-48.547-5.454A97.364,97.364,0,0,1,0,97.395,97.382,97.382,0,0,1,82.715,1.1,97.177,97.177,0,0,1,194.29,87.954,64.181,64.181,0,0,1,194.8,97.4Z" transform="translate(0 0.236)" fill="none" stroke="#fff" stroke-width="1" opacity="0.5"/>
      <path id="Path_40" data-name="Path 40" d="M194.789,97.395c0,7.141-6.576,8.974-12.38,8.438-12.171-1.124-23.125-5-34.536-8.987-7.475-2.615-17.345-5.93-24.876-1.765-11.082,6.13-10.255,22.215-10.373,33-.152,13.844,2.762,29.016-.142,42.789-2,9.473-7.208,19.4-17.048,22.467a22.276,22.276,0,0,1-6.619.967,27.482,27.482,0,0,1-3.493-.265.053.053,0,0,1-.023,0A97.395,97.395,0,0,1,92.353.129C94.026.041,95.7,0,97.395,0a97.385,97.385,0,0,1,97.394,97.395Z" transform="translate(0 0.236)" fill="none" stroke="#fff" stroke-width="1" opacity="0.5"/>
    </g>
    <g id="Group_4917" data-name="Group 4917" transform="matrix(0.974, -0.225, 0.225, 0.974, 209.133, -35.126)" opacity="0.22">
      <path id="Path_38-2" data-name="Path 38" d="M194.789,97.394c0,3.425-.406,7.334-3.082,9.882-2.131,2.029-5.158,2.5-7.989,2.788-15.007,1.523-36.011-8.465-45.553,7.837-4.246,7.255-5.922,15.6-7.5,23.758-1.636,8.448-3.368,16.9-6.249,25.029-4.12,11.624-11.1,25.427-24.55,27.755a38.729,38.729,0,0,1-9.214.115q-3.977-.272-7.924-.868a96.951,96.951,0,0,1-42.363-17.339,97.787,97.787,0,0,1-29.44-34.1A96.7,96.7,0,0,1,1.239,112.97,98.192,98.192,0,0,1,0,97.394a97.395,97.395,0,1,1,194.789,0Z" transform="translate(0 0)" fill="none" stroke="#fff" stroke-width="1" opacity="0.5"/>
      <path id="Path_39-2" data-name="Path 39" d="M194.8,97.4c-.152,2.883-.71,6.222-3.115,8.128-4.141,3.284-10.323,2.256-15.191,1.771-8.518-.848-16.875-3.137-25.422-3.6-5.941-.324-12.525.145-17.315,4-4.425,3.561-6.879,9-8.569,14.288-4.06,12.7-4.947,26.085-7.018,39.184-1.66,10.5-3.929,23.728-13.812,29.783-14.236,8.722-34.921.988-48.547-5.454A97.364,97.364,0,0,1,0,97.395,97.382,97.382,0,0,1,82.715,1.1,97.177,97.177,0,0,1,194.29,87.954,64.181,64.181,0,0,1,194.8,97.4Z" transform="translate(0 0.236)" fill="none" stroke="#fff" stroke-width="1" opacity="0.5"/>
      <path id="Path_40-2" data-name="Path 40" d="M194.789,97.395c0,7.141-6.576,8.974-12.38,8.438-12.171-1.124-23.125-5-34.536-8.987-7.475-2.615-17.345-5.93-24.876-1.765-11.082,6.13-10.255,22.215-10.373,33-.152,13.844,2.762,29.016-.142,42.789-2,9.473-7.208,19.4-17.048,22.467a22.276,22.276,0,0,1-6.619.967,27.482,27.482,0,0,1-3.493-.265.053.053,0,0,1-.023,0A97.395,97.395,0,0,1,92.353.129C94.026.041,95.7,0,97.395,0a97.385,97.385,0,0,1,97.394,97.395Z" transform="translate(0 0.236)" fill="none" stroke="#fff" stroke-width="1" opacity="0.5"/>
    </g>
    <g id="Group_4915" data-name="Group 4915" transform="translate(183.092 1014.403) rotate(-124)" opacity="0.22">
      <path id="Path_38-3" data-name="Path 38" d="M359.142,179.571c0,6.314-.749,13.521-5.682,18.219-3.929,3.741-9.51,4.612-14.731,5.141-27.67,2.809-66.4-15.608-83.987,14.45-7.828,13.376-10.918,28.77-13.832,43.8-3.017,15.576-6.21,31.16-11.521,46.147-7.6,21.431-20.466,46.881-45.264,51.173-5.585.967-11.362.6-16.989.212q-7.332-.5-14.61-1.6A178.753,178.753,0,0,1,74.42,325.148a180.3,180.3,0,0,1-54.28-62.871A178.295,178.295,0,0,1,2.285,208.289,181.044,181.044,0,0,1,0,179.571a179.571,179.571,0,1,1,359.142,0Z" transform="translate(0 0)" fill="none" stroke="#fff" stroke-width="1" opacity="0.5"/>
      <path id="Path_39-3" data-name="Path 39" d="M359.17,179.573c-.28,5.315-1.31,11.471-5.743,14.986-7.635,6.055-19.034,4.16-28.008,3.266-15.7-1.564-31.112-5.784-46.872-6.642-10.953-.6-23.094.267-31.926,7.375-8.158,6.565-12.683,16.6-15.8,26.344C223.338,248.32,221.7,273,217.885,297.147c-3.06,19.359-7.245,43.749-25.466,54.912C166.17,368.14,128.033,353.88,102.911,342A179.515,179.515,0,0,1,0,179.572,179.549,179.549,0,0,1,152.505,2.028,179.171,179.171,0,0,1,358.222,162.165C358.7,167.111,359.487,173.52,359.17,179.573Z" transform="translate(0 0.435)" fill="none" stroke="#fff" stroke-width="1" opacity="0.5"/>
      <path id="Path_40-3" data-name="Path 40" d="M359.142,179.572c0,13.166-12.125,16.545-22.826,15.557-22.44-2.072-42.637-9.211-63.675-16.569-13.782-4.821-31.98-10.934-45.866-3.253-20.432,11.3-18.909,40.959-19.125,60.849-.279,25.525,5.092,53.5-.261,78.893-3.682,17.465-13.29,35.774-31.432,41.424a41.07,41.07,0,0,1-12.2,1.783,50.667,50.667,0,0,1-6.44-.489.1.1,0,0,1-.043-.008A179.572,179.572,0,0,1,170.276.237c3.085-.161,6.177-.237,9.3-.237A179.554,179.554,0,0,1,359.142,179.572Z" transform="translate(0 0.435)" fill="none" stroke="#fff" stroke-width="1" opacity="0.5"/>
    </g>
    <g id="Mask_Group_7" data-name="Mask Group 7" transform="translate(0 -1404)" clip-path="url(#clip-path)">
      <g id="Group_4932" data-name="Group 4932" transform="translate(304.092 2642.403) rotate(-124)" opacity="0.22">
        <path id="Path_38-4" data-name="Path 38" d="M359.142,179.571c0,6.314-.749,13.521-5.682,18.219-3.929,3.741-9.51,4.612-14.731,5.141-27.67,2.809-66.4-15.608-83.987,14.45-7.828,13.376-10.918,28.77-13.832,43.8-3.017,15.576-6.21,31.16-11.521,46.147-7.6,21.431-20.466,46.881-45.264,51.173-5.585.967-11.362.6-16.989.212q-7.332-.5-14.61-1.6A178.753,178.753,0,0,1,74.42,325.148a180.3,180.3,0,0,1-54.28-62.871A178.295,178.295,0,0,1,2.285,208.289,181.044,181.044,0,0,1,0,179.571a179.571,179.571,0,1,1,359.142,0Z" transform="translate(0 0)" fill="none" stroke="#fff" stroke-width="1" opacity="0.5"/>
        <path id="Path_39-4" data-name="Path 39" d="M359.17,179.573c-.28,5.315-1.31,11.471-5.743,14.986-7.635,6.055-19.034,4.16-28.008,3.266-15.7-1.564-31.112-5.784-46.872-6.642-10.953-.6-23.094.267-31.926,7.375-8.158,6.565-12.683,16.6-15.8,26.344C223.338,248.32,221.7,273,217.885,297.147c-3.06,19.359-7.245,43.749-25.466,54.912C166.17,368.14,128.033,353.88,102.911,342A179.515,179.515,0,0,1,0,179.572,179.549,179.549,0,0,1,152.505,2.028,179.171,179.171,0,0,1,358.222,162.165C358.7,167.111,359.487,173.52,359.17,179.573Z" transform="translate(0 0.435)" fill="none" stroke="#fff" stroke-width="1" opacity="0.5"/>
        <path id="Path_40-4" data-name="Path 40" d="M359.142,179.572c0,13.166-12.125,16.545-22.826,15.557-22.44-2.072-42.637-9.211-63.675-16.569-13.782-4.821-31.98-10.934-45.866-3.253-20.432,11.3-18.909,40.959-19.125,60.849-.279,25.525,5.092,53.5-.261,78.893-3.682,17.465-13.29,35.774-31.432,41.424a41.07,41.07,0,0,1-12.2,1.783,50.667,50.667,0,0,1-6.44-.489.1.1,0,0,1-.043-.008A179.572,179.572,0,0,1,170.276.237c3.085-.161,6.177-.237,9.3-.237A179.554,179.554,0,0,1,359.142,179.572Z" transform="translate(0 0.435)" fill="none" stroke="#fff" stroke-width="1" opacity="0.5"/>
      </g>
    </g>
  </g>
</svg>
