<svg xmlns="http://www.w3.org/2000/svg" width="154.253" height="39.621" viewBox="0 0 154.253 39.621">
  <g id="Group_30" data-name="Group 30" transform="translate(-186.208 -247.034)">
    <g id="Group_7" data-name="Group 7" transform="translate(235.911 281.272)">
      <path id="Path_15" data-name="Path 15" d="M357.229,348.081l3.484,5.091,3.5-5.091h.459v5.383h-.314v-5.087l-3.513,5.087h-.25l-3.5-5.062v5.062h-.314v-5.383Z" transform="translate(-356.781 -348.081)" fill="#7a0000"/>
      <path id="Path_16" data-name="Path 16" d="M395,350.794h-4.246v2.47h4.839v.2h-5.153v-5.383h5.153v.2h-4.839v2.314H395Z" transform="translate(-375.366 -348.081)" fill="#7a0000"/>
      <path id="Path_17" data-name="Path 17" d="M413.968,353.464v-5.383h2.344a5.367,5.367,0,0,1,1.39.172,3.745,3.745,0,0,1,1.108.485,2.4,2.4,0,0,1,.733.747,1.812,1.812,0,0,1,.264.959v.658a1.812,1.812,0,0,1-.264.959,2.4,2.4,0,0,1-.733.747,3.738,3.738,0,0,1-1.108.485,5.381,5.381,0,0,1-1.39.172Zm.314-5.183v4.984h2.03a4.728,4.728,0,0,0,1.266-.161,3.393,3.393,0,0,0,1.009-.447,2.21,2.21,0,0,0,.666-.685,1.646,1.646,0,0,0,.241-.87v-.669a1.634,1.634,0,0,0-.241-.865,2.2,2.2,0,0,0-.666-.68,3.4,3.4,0,0,0-1.009-.445,4.731,4.731,0,0,0-1.266-.161Z" transform="translate(-386.515 -348.081)" fill="#7a0000"/>
      <path id="Path_18" data-name="Path 18" d="M441.484,353.464h-.314v-5.383h.314Z" transform="translate(-400.68 -348.081)" fill="#7a0000"/>
      <path id="Path_19" data-name="Path 19" d="M456.041,351.856h-4.147l-.942,1.608h-.343l3.169-5.383h.384l3.17,5.383h-.344Zm-4.03-.2h3.914l-1.954-3.335Z" transform="translate(-402.615 -348.081)" fill="#7a0000"/>
    </g>
    <g id="Group_11" data-name="Group 11" transform="translate(186.208 247.034)">
      <g id="Group_8" data-name="Group 8" transform="translate(0 0.191)">
        <path id="Path_20" data-name="Path 20" d="M198.225,256.288a8.707,8.707,0,0,1,4.153,3.228,8.508,8.508,0,0,1,1.64,5.077,8.418,8.418,0,0,1-2.652,6.264,9.058,9.058,0,0,1-12.685.052,8.453,8.453,0,0,1-2.687-6.177h1.8a6.811,6.811,0,0,0,2.163,4.9,7.248,7.248,0,0,0,10.138-.053,6.995,6.995,0,0,0,0-10.016,6.973,6.973,0,0,0-5.1-2.094,4.858,4.858,0,0,1-3.245-1.187q-.192-.174-.262-.244a4.908,4.908,0,0,1,0-7A4.775,4.775,0,0,1,195,247.6a4.833,4.833,0,0,1,3.525,1.448,4.775,4.775,0,0,1,1.448,3.507h-1.8A3.187,3.187,0,0,0,195,249.4a3.152,3.152,0,0,0-2.235.925,3.118,3.118,0,0,0,.065,4.494,3.192,3.192,0,0,0,2.207.862h0a8.63,8.63,0,0,1,3.13.587Z" transform="translate(-185.994 -247.599)" fill="#7a0000"/>
        <path id="Path_21" data-name="Path 21" d="M274.537,273.908h-2.216l-10.94-20.729-10.87,20.729H248.19l11.935-22.718v-.017l1.256-2.338,1.2,2.269Z" transform="translate(-227.116 -248.416)" fill="#7a0000"/>
        <path id="Path_22" data-name="Path 22" d="M349.084,248.937a10.728,10.728,0,0,1,4.746,1.169q4.694,2.286,4.694,7.869,0,5.6-4.694,7.887a10.862,10.862,0,0,1-4.746,1.152h-6.072v6.927H341.18v-25Zm-6.072,1.815v14.465h6.072a8.744,8.744,0,0,0,3.874-.96,7.225,7.225,0,0,0,.018-12.563,8.674,8.674,0,0,0-3.891-.942Z" transform="translate(-288.597 -248.484)" fill="#7a0000"/>
        <path id="Path_23" data-name="Path 23" d="M410.409,273.907h-1.832V248.886h1.832Z" transform="translate(-333.158 -248.45)" fill="#7a0000"/>
      </g>
      <g id="Group_9" data-name="Group 9" transform="translate(105.018)">
        <path id="Path_24" data-name="Path 24" d="M508.162,255.723a8.709,8.709,0,0,1,4.153,3.228,8.518,8.518,0,0,1,1.639,5.077,8.419,8.419,0,0,1-2.652,6.264,9.058,9.058,0,0,1-12.685.052,8.455,8.455,0,0,1-2.686-6.177h1.8a6.807,6.807,0,0,0,2.163,4.9,7.247,7.247,0,0,0,10.137-.053,6.995,6.995,0,0,0,0-10.015,6.975,6.975,0,0,0-5.1-2.094,4.86,4.86,0,0,1-3.246-1.187c-.127-.116-.216-.2-.261-.244a4.947,4.947,0,0,1,3.507-8.445,4.834,4.834,0,0,1,3.524,1.448,4.774,4.774,0,0,1,1.449,3.507h-1.8a3.015,3.015,0,0,0-.941-2.233,3.047,3.047,0,0,0-2.232-.925,3.156,3.156,0,0,0-2.234.924,3.119,3.119,0,0,0,.062,4.495,3.2,3.2,0,0,0,2.212.863h0a8.6,8.6,0,0,1,3.12.585Z" transform="translate(-495.931 -247.034)" fill="#7a0000"/>
        <path id="Path_25" data-name="Path 25" d="M578.194,247.137a12.868,12.868,0,1,1-9.09,3.769A12.39,12.39,0,0,1,578.194,247.137Zm0,23.9a11.02,11.02,0,1,0-7.817-3.228A10.685,10.685,0,0,0,578.194,271.041Z" transform="translate(-541.818 -247.102)" fill="#7a0000"/>
      </g>
      <g id="Group_29" data-name="Group 29" transform="translate(81.268 0.55)">
        <path id="Path_38" data-name="Path 38" d="M-1540.2-784.582a1.7,1.7,0,0,1-.4,1.27,1.68,1.68,0,0,1-1.027.358c-1.928.2-4.628-1.088-5.854,1.007a9.524,9.524,0,0,0-.964,3.053,22.222,22.222,0,0,1-.8,3.216c-.529,1.494-1.426,3.268-3.155,3.567a4.979,4.979,0,0,1-1.184.015q-.511-.035-1.018-.112a12.437,12.437,0,0,1-1.955-.459,12.44,12.44,0,0,1-1.823-.752,12.508,12.508,0,0,1-1.666-1.018,12.593,12.593,0,0,1-1.481-1.257,12.605,12.605,0,0,1-1.27-1.47,12.551,12.551,0,0,1-1.032-1.656,12.46,12.46,0,0,1-.768-1.815,12.439,12.439,0,0,1-.477-1.948,12.62,12.62,0,0,1-.159-2,12.469,12.469,0,0,1,3.256-8.421,12.5,12.5,0,0,1,6.937-3.88,12.593,12.593,0,0,1,2.324-.216,12.521,12.521,0,0,1,12.045,9.1A12.512,12.512,0,0,1-1540.2-784.582Z" transform="translate(1565.23 797.098)" fill="#7a0000" opacity="0.5"/>
        <path id="Path_39" data-name="Path 39" d="M-1540.2-784.155a1.382,1.382,0,0,1-.4,1.045,2.71,2.71,0,0,1-1.952.228c-1.094-.109-2.168-.4-3.267-.463a3.228,3.228,0,0,0-2.225.514,3.756,3.756,0,0,0-1.1,1.836,33.5,33.5,0,0,0-.9,5.035c-.213,1.349-.5,3.049-1.775,3.827-1.829,1.121-4.488.127-6.239-.7a12.618,12.618,0,0,1-5.62-5.279,12.532,12.532,0,0,1-1.553-6.043,12.455,12.455,0,0,1,1.932-6.684,12.519,12.519,0,0,1,8.7-5.691,12.606,12.606,0,0,1,1.886-.141,12.518,12.518,0,0,1,11.573,7.744,12.507,12.507,0,0,1,.878,3.559A8.244,8.244,0,0,1-1540.2-784.155Z" transform="translate(1565.23 796.701)" fill="#7a0000" opacity="0.5"/>
        <path id="Path_40" data-name="Path 40" d="M-1540.2-784.155c0,.918-.845,1.153-1.591,1.084a18.465,18.465,0,0,1-4.438-1.155c-.961-.336-2.229-.762-3.2-.227-1.424.788-1.318,2.855-1.333,4.241-.019,1.779.355,3.729-.018,5.5a3.61,3.61,0,0,1-2.191,2.887,2.864,2.864,0,0,1-.851.124,3.527,3.527,0,0,1-.449-.034h0a12.529,12.529,0,0,1-10.171-8.03,12.493,12.493,0,0,1-.791-4.389,12.466,12.466,0,0,1,1.2-5.354,12.519,12.519,0,0,1,10.668-7.146c.215-.011.431-.016.648-.016a12.5,12.5,0,0,1,9.964,4.942A12.458,12.458,0,0,1-1540.2-784.155Z" transform="translate(1565.23 796.701)" fill="#7a0000"/>
      </g>
    </g>
  </g>
</svg>
