<svg xmlns="http://www.w3.org/2000/svg" width="1920" height="1057"><defs><clipPath id="a"><path d="M0 0h1920v1057H0z"/></clipPath></defs><g data-name="About Us" clip-path="url(#a)"><path fill="#733528" d="M0 0h1920v1057H0z"/><g data-name="Group 3051" opacity=".5" fill="none" stroke="#fff" stroke-width="3.002"><path data-name="Path 38" d="M1279.069 1204.116c7.008-16.508 16.964-34.52 35.077-41.327 14.423-5.42 29.985-1.5 44.217 2.909 75.459 23.368 156.261 114.499 235.617 55.442 35.311-26.281 60.476-63.099 84.781-99.17 25.176-37.375 50.82-74.575 81.338-107.866 43.644-47.599 105.544-99.85 175.137-83.547 15.675 3.67 30.37 11.045 44.65 18.303q18.612 9.451 36.422 20.4a506.77 506.77 0 0166.013 48.351 507.16 507.16 0 0156.432 57.23 510.396 510.396 0 0146.274 64.693 513.219 513.219 0 0135.547 70.734 513.459 513.459 0 0124.235 75.349 510.386 510.386 0 0112.351 78.538 507.71 507.71 0 01-.104 80.309 506.777 506.777 0 01-13.137 80.657 514.174 514.174 0 01-25.9 77.617 508.077 508.077 0 01-256.226 264.013 509.29 509.29 0 01-321.97 35.067 513.04 513.04 0 01-90.59-28.917c-214.92-91.242-334.81-312.59-306.839-533.323a509.96 509.96 0 0136.675-135.462z" opacity=".5"/><path data-name="Path 39" d="M1279.48 1202.942c6.636-13.584 16.158-28.538 31.646-32.808 26.682-7.355 54.379 10.251 76.85 22.549 39.322 21.519 74.92 49.655 115.17 69.39 27.972 13.723 60.672 24.935 91.652 16.155 28.616-8.11 51.578-29.318 70.546-51.34 45.562-52.918 77.228-115.613 114.014-174.518 29.487-47.215 67.498-106.337 127.528-115.298 86.471-12.908 170.35 66.702 222.85 125.637a514.233 514.233 0 01126.746 287.49 510.728 510.728 0 01-37.982 251.396 507.573 507.573 0 01-178.924 219.938c-118.983 82.31-270.795 112.487-416.847 74.967a513.8 513.8 0 01-73.015-24.74c-195.897-83.165-312.843-274.426-310.804-474.786a509.716 509.716 0 0123.728-147.473c4.233-13.457 9.297-31.085 16.842-46.56z" opacity=".5"/><path data-name="Path 40" d="M1279.553 1202.976c14.613-34.422 50.062-29.799 76.942-15.337 56.368 30.324 101.248 71.406 148.083 113.994 30.682 27.9 71.472 64.082 116.304 59.413 65.963-6.872 94.896-86.095 117.54-137.858 29.06-66.422 46.065-145.52 88.247-205.97 29.01-41.573 74.453-78.775 128.154-73.412a116.652 116.652 0 0133.887 8.885 143.898 143.898 0 0116.292 8.427.277.277 0 01.104.069c166.497 96.343 261.637 277.042 253.62 463.177a509.095 509.095 0 01-40.222 177.233 508.052 508.052 0 01-130.263 181.718c-136.494 121.345-333.1 164.29-513.958 98.144a505.994 505.994 0 01-24.567-9.697c-152.505-64.745-257.156-194.987-295.073-344.038a507.636 507.636 0 0124.91-324.748z" opacity=".5"/></g><g data-name="Group 4921" opacity=".5" fill="none" stroke="#fff" stroke-width="3.002"><path data-name="Path 38" d="M343.9 542.202c-4.483-10.562-10.853-22.086-22.441-26.442-9.229-3.468-19.183-.96-28.29 1.861-48.279 14.953-99.977 73.257-150.747 35.472-22.593-16.815-38.693-40.37-54.243-63.449-16.107-23.911-32.515-47.712-52.041-69.008-27.926-30.454-67.528-63.884-112.055-53.453-10.03 2.35-19.429 7.07-28.568 11.709q-11.909 6.047-23.303 13.05a324.832 324.832 0 00-107.946 108.943 327.634 327.634 0 00-46.148 143.709 323.982 323.982 0 008.472 102.986 328.97 328.97 0 0016.57 49.659 326.007 326.007 0 00427.89 172.85c137.505-58.376 214.213-199.995 196.313-341.222a326.272 326.272 0 00-23.463-86.665z" opacity=".5"/><path data-name="Path 39" d="M343.636 541.452c-4.243-8.692-10.337-18.258-20.247-20.99-17.072-4.71-34.79 6.558-49.168 14.427-25.158 13.767-47.934 31.77-73.686 44.396-17.897 8.777-38.818 15.952-58.64 10.335-18.307-5.189-33-18.758-45.133-32.846-29.152-33.857-49.411-73.97-72.947-111.657-18.866-30.208-43.185-68.035-81.593-73.768-55.32-8.262-108.99 42.675-142.583 80.383a326.216 326.216 0 00-56.788 344.778 326.276 326.276 0 00381.175 188.68 328.734 328.734 0 0046.715-15.828c125.335-53.21 200.156-175.579 198.853-303.766a326.115 326.115 0 00-15.179-94.354c-2.71-8.613-5.95-19.89-10.779-29.79z" opacity=".5"/><path data-name="Path 40" d="M343.591 541.473c-9.35-22.023-32.03-19.065-49.228-9.813-36.065 19.403-64.777 45.69-94.744 72.934-19.63 17.851-45.727 41-74.409 38.012-42.202-4.397-60.714-55.083-75.201-88.202-18.593-42.496-29.473-93.103-56.461-131.78-18.562-26.597-47.636-50.399-81.993-46.968a74.634 74.634 0 00-21.681 5.685 92.069 92.069 0 00-10.429 5.393.176.176 0 00-.066.044c-106.52 61.638-167.396 177.251-162.26 296.34a327.39 327.39 0 00109.075 229.656c87.328 77.636 213.118 105.112 328.832 62.796 5.271-1.92 10.5-3.99 15.717-6.205a326.283 326.283 0 00172.848-427.892z" opacity=".5"/></g></g></svg>