<svg xmlns="http://www.w3.org/2000/svg" width="24" height="23.924"><g data-name="Group 79"><g data-name="Group 86"><g data-name="Group 85"><path data-name="Path 73" d="M23.789 5.206l-7.279 7.232 7.279 7.232a2.085 2.085 0 00.211-.9V6.11a2.085 2.085 0 00-.211-.904z" fill="#fff"/></g></g><g data-name="Group 88"><g data-name="Group 87"><path data-name="Path 74" d="M21.891 4H2.11a2.085 2.085 0 00-.9.211l9.3 9.256a2.111 2.111 0 002.983 0l9.3-9.256A2.085 2.085 0 0021.891 4z" fill="#fff"/></g></g><g data-name="Group 90"><g data-name="Group 89"><path data-name="Path 75" d="M.211 5.206a2.085 2.085 0 00-.211.9v12.656a2.085 2.085 0 00.211.9L7.49 12.43z" fill="#fff"/></g></g><g data-name="Group 92"><g data-name="Group 91"><path data-name="Path 76" d="M15.516 13.432l-1.031 1.03a3.519 3.519 0 01-4.971 0l-1.029-1.03-7.279 7.232a2.085 2.085 0 00.9.211h19.785a2.085 2.085 0 00.9-.211z" fill="#fff"/></g></g></g></svg>