<svg xmlns="http://www.w3.org/2000/svg" width="905.747" height="232.649"><g data-name="Group 31"><g data-name="Group 7" fill="#fff"><path data-name="Path 15" d="M294.478 201.041l20.455 29.891 20.526-29.891h2.7v31.608h-1.844v-29.872l-20.628 29.872h-1.47l-20.522-29.72v29.72h-1.844v-31.608z"/><path data-name="Path 16" d="M407.124 216.974h-24.932v14.5h28.418v1.173h-30.26v-31.606h30.26v1.172h-28.418v13.588h24.932z"/><path data-name="Path 17" d="M453.046 232.649v-31.608h13.762a31.513 31.513 0 018.163 1.007 21.99 21.99 0 016.508 2.848 14.107 14.107 0 014.3 4.385 10.638 10.638 0 011.552 5.631v3.864a10.637 10.637 0 01-1.552 5.632 14.1 14.1 0 01-4.3 4.384 21.951 21.951 0 01-6.508 2.849 31.608 31.608 0 01-8.163 1.007zm1.844-30.436v29.263h11.918a27.767 27.767 0 007.431-.947 19.93 19.93 0 005.923-2.623 12.976 12.976 0 003.912-4.02 9.665 9.665 0 001.416-5.11v-3.929a9.6 9.6 0 00-1.416-5.08 12.918 12.918 0 00-3.912-3.993 19.964 19.964 0 00-5.923-2.614 27.777 27.777 0 00-7.431-.947z"/><path data-name="Path 18" d="M531.438 232.649h-1.844v-31.608h1.844z"/><path data-name="Path 19" d="M605.551 223.206h-24.346l-5.531 9.443h-2.013l18.611-31.608h2.254l18.615 31.608h-2.017zm-23.664-1.172h22.982l-11.476-19.581z"/></g><g data-name="Group 11"><g data-name="Group 8" fill="#fff"><path data-name="Path 20" d="M71.82 52.145A51.128 51.128 0 0196.206 71.1a49.959 49.959 0 019.63 29.814 49.432 49.432 0 01-15.573 36.783 53.187 53.187 0 01-74.484.3A49.633 49.633 0 01.002 101.729h10.553a39.992 39.992 0 0012.701 28.796 42.558 42.558 0 0059.526-.308 41.071 41.071 0 000-58.81 40.943 40.943 0 00-29.917-12.294 28.526 28.526 0 01-19.059-6.968q-1.128-1.023-1.536-1.434a28.816 28.816 0 010-41.083 28.039 28.039 0 0120.592-8.5 28.38 28.38 0 0120.7 8.5 28.04 28.04 0 018.5 20.592h-10.55a18.713 18.713 0 00-18.641-18.543 18.51 18.51 0 00-13.123 5.434 18.311 18.311 0 00.38 26.386 18.74 18.74 0 0012.958 5.063 50.674 50.674 0 0118.378 3.448z"/><path data-name="Path 21" d="M278.454 150.81h-13.016l-64.24-121.717-63.827 121.717h-13.627l70.079-133.4v-.1l7.375-13.73 7.069 13.32z"/><path data-name="Path 22" d="M355.166 3.786a62.992 62.992 0 0127.868 6.866q27.561 13.421 27.56 46.206 0 32.888-27.56 46.309a63.779 63.779 0 01-27.868 6.763h-35.653v40.675h-10.758V3.786zm-35.653 10.656v84.937h35.653a51.343 51.343 0 0022.745-5.639q21.517-10.553 21.515-36.883 0-26.23-21.412-36.883a50.931 50.931 0 00-22.849-5.533z"/><path data-name="Path 23" d="M453.605 150.606h-10.758V3.685h10.758z"/></g><g data-name="Group 9" fill="#fff"><path data-name="Path 24" d="M688.463 51.023a51.138 51.138 0 0124.388 18.955 50.018 50.018 0 019.626 29.812 49.435 49.435 0 01-15.573 36.783 53.19 53.19 0 01-74.486.3 49.648 49.648 0 01-15.773-36.268h10.554a39.97 39.97 0 0012.7 28.791 42.553 42.553 0 0059.524-.31 41.072 41.072 0 000-58.806 40.958 40.958 0 00-29.909-12.29 28.535 28.535 0 01-19.06-6.968c-.748-.682-1.265-1.162-1.53-1.434a29.046 29.046 0 0120.59-49.589 28.383 28.383 0 0120.692 8.5 28.033 28.033 0 018.505 20.594h-10.558a17.7 17.7 0 00-5.527-13.113 17.891 17.891 0 00-13.105-5.432 18.533 18.533 0 00-13.117 5.424 18.317 18.317 0 00.366 26.394 18.788 18.788 0 0012.986 5.068 50.488 50.488 0 0118.318 3.434z"/><path data-name="Path 25" d="M830.236.205q31.25 0 53.381 22.13t22.13 53.379q0 31.249-22.13 53.376t-53.381 22.13q-31.249 0-53.376-22.13t-22.13-53.376q0-31.247 22.13-53.379T830.236.205zm0 140.361a64.908 64.908 0 0045.9-110.75 64.912 64.912 0 00-91.8 91.8 62.732 62.732 0 0045.9 18.952z"/></g><g data-name="Group 29"><path data-name="Path 38" d="M624.174 76.72c0 2.584-.307 5.534-2.325 7.456-1.608 1.532-3.892 1.888-6.028 2.1-11.324 1.149-27.173-6.388-34.373 5.914-3.2 5.474-4.468 11.774-5.66 17.927a130.554 130.554 0 01-4.716 18.886c-3.108 8.771-8.376 19.186-18.524 20.943a29.222 29.222 0 01-6.952.086q-3-.205-5.979-.655a73.072 73.072 0 01-11.479-2.7 73.027 73.027 0 01-10.706-4.414 73.4 73.4 0 01-9.78-5.975 73.977 73.977 0 01-8.7-7.38 74.049 74.049 0 01-7.457-8.629 73.8 73.8 0 01-6.061-9.721 73.182 73.182 0 01-4.508-10.658 72.982 72.982 0 01-2.8-11.437 74.026 74.026 0 01-.936-11.753 73.215 73.215 0 0119.118-49.445 73.385 73.385 0 0140.73-22.78 73.9 73.9 0 0113.644-1.266 73.522 73.522 0 0170.728 53.46 73.482 73.482 0 012.764 20.041z" fill="#bfbfbf"/><path data-name="Path 39" d="M624.186 76.899c-.114 2.176-.536 4.7-2.351 6.134-3.125 2.478-7.789 1.7-11.462 1.336-6.427-.64-12.733-2.367-19.183-2.719-4.482-.244-9.451.109-13.066 3.018-3.339 2.687-5.189 6.793-6.465 10.782-3.064 9.584-3.733 19.683-5.3 29.567-1.252 7.922-2.964 17.9-10.422 22.474-10.742 6.581-26.351.745-36.631-4.116a74.1 74.1 0 01-33-30.995 73.6 73.6 0 01-9.118-35.482 73.133 73.133 0 0111.348-39.246 73.511 73.511 0 0151.067-33.416 74.044 74.044 0 0111.077-.83 73.5 73.5 0 0167.957 45.472 73.447 73.447 0 015.157 20.9 48.4 48.4 0 01.392 7.121z" fill="#d9d9d9"/><path data-name="Path 40" d="M624.174 76.898c0 5.388-4.962 6.771-9.342 6.367-9.184-.849-17.449-3.77-26.06-6.781-5.64-1.973-13.088-4.475-18.771-1.332-8.362 4.626-7.738 16.763-7.828 24.9-.114 10.446 2.085 21.895-.106 32.288-1.506 7.147-5.439 14.641-12.863 16.953a16.82 16.82 0 01-5 .729 20.668 20.668 0 01-2.635-.2.038.038 0 01-.018 0 73.564 73.564 0 01-59.72-47.152 73.347 73.347 0 01-4.646-25.772 73.192 73.192 0 017.045-31.437 73.511 73.511 0 0162.643-41.958q1.893-.1 3.8-.1a73.366 73.366 0 0158.509 29.016 73.149 73.149 0 0114.992 44.479z" fill="#fff"/></g></g></g></svg>