<svg xmlns="http://www.w3.org/2000/svg" width="332.299" height="85.354"><g data-name="Group 4904" fill="#fff"><g data-name="Group 7"><path data-name="Path 15" d="M108.038 73.758l7.5 10.966 7.531-10.966h.989v11.6h-.677V74.395l-7.568 10.959h-.539l-7.529-10.9v10.9h-.677v-11.6z"/><path data-name="Path 16" d="M149.364 79.603h-9.147v5.321h10.425v.43h-11.1v-11.6h11.1v.43h-10.424v4.993h9.147z"/><path data-name="Path 17" d="M166.213 85.354v-11.6h5.049a11.562 11.562 0 012.995.37 8.068 8.068 0 012.388 1.053 5.176 5.176 0 011.579 1.609 3.9 3.9 0 01.569 2.066v1.418a3.9 3.9 0 01-.569 2.066 5.173 5.173 0 01-1.579 1.608 8.052 8.052 0 01-2.388 1.045 11.591 11.591 0 01-2.995.37zm.677-11.166v10.736h4.372a10.187 10.187 0 002.726-.347 7.31 7.31 0 002.173-.962 4.761 4.761 0 001.435-1.475 3.546 3.546 0 00.52-1.875v-1.441a3.521 3.521 0 00-.52-1.864 4.74 4.74 0 00-1.435-1.465 7.324 7.324 0 00-2.173-.959 10.19 10.19 0 00-2.726-.347z"/><path data-name="Path 18" d="M194.973 85.354h-.677v-11.6h.677z"/><path data-name="Path 19" d="M222.164 81.89h-8.933l-2.029 3.465h-.739l6.828-11.6h.827l6.829 11.6h-.74zm-8.682-.43h8.431l-4.21-7.184z"/></g><g data-name="Group 11"><g data-name="Group 8"><path data-name="Path 20" d="M26.349 19.13a18.758 18.758 0 018.946 6.954 18.329 18.329 0 013.533 10.938 18.136 18.136 0 01-5.713 13.5 19.513 19.513 0 01-27.326.112A18.209 18.209 0 01.001 37.328h3.872a14.672 14.672 0 004.661 10.563 15.613 15.613 0 0021.839-.113 15.068 15.068 0 000-21.576 15.021 15.021 0 00-10.976-4.51 10.466 10.466 0 01-6.991-2.556q-.414-.376-.564-.526a10.572 10.572 0 010-15.072 10.287 10.287 0 017.555-3.12 10.412 10.412 0 017.593 3.12 10.287 10.287 0 013.12 7.555h-3.874a6.865 6.865 0 00-6.839-6.8 6.791 6.791 0 00-4.815 1.993 6.718 6.718 0 00.139 9.68 6.875 6.875 0 004.755 1.847 18.591 18.591 0 016.742 1.265z"/><path data-name="Path 21" d="M102.157 55.328h-4.774L73.815 10.673 50.398 55.328h-5l25.71-48.941V6.35l2.706-5.037L76.407 6.2z"/><path data-name="Path 22" d="M130.302 1.389a23.11 23.11 0 0110.224 2.519q10.111 4.924 10.111 16.952 0 12.066-10.111 16.99a23.4 23.4 0 01-10.224 2.481h-13.08v14.921h-3.947V1.389zm-13.08 3.91v31.162h13.08a18.836 18.836 0 008.345-2.069q7.894-3.872 7.893-13.531 0-9.623-7.856-13.531a18.685 18.685 0 00-8.383-2.03z"/><path data-name="Path 23" d="M166.418 55.253h-3.947v-53.9h3.947z"/></g><g data-name="Group 9"><path data-name="Path 24" d="M252.581 18.719a18.762 18.762 0 018.948 6.954 18.351 18.351 0 013.531 10.937 18.137 18.137 0 01-5.713 13.495 19.514 19.514 0 01-27.327.112 18.215 18.215 0 01-5.787-13.306h3.869a14.664 14.664 0 004.661 10.563 15.612 15.612 0 0021.838-.114 15.068 15.068 0 000-21.575 15.027 15.027 0 00-10.976-4.51 10.469 10.469 0 01-6.993-2.556c-.275-.25-.464-.426-.561-.526A10.656 10.656 0 01245.625 0a10.413 10.413 0 017.591 3.12 10.285 10.285 0 013.12 7.556h-3.872a6.5 6.5 0 00-2.028-4.811 6.564 6.564 0 00-4.808-1.993 6.8 6.8 0 00-4.812 1.99 6.72 6.72 0 00.134 9.683 6.892 6.892 0 004.764 1.859 18.523 18.523 0 016.72 1.26z"/><path data-name="Path 25" d="M304.595.075a27.72 27.72 0 11-19.583 8.119A26.69 26.69 0 01304.595.075zm0 51.5a23.74 23.74 0 10-16.84-6.953 23.018 23.018 0 0016.84 6.948z"/></g><g data-name="Group 29"><path data-name="Path 38" d="M228.995 28.146a3.659 3.659 0 01-.853 2.736 3.621 3.621 0 01-2.212.772c-4.154.422-9.969-2.344-12.611 2.17a20.513 20.513 0 00-2.077 6.577 47.877 47.877 0 01-1.73 6.929c-1.14 3.218-3.073 7.039-6.8 7.683a10.727 10.727 0 01-2.551.032q-1.1-.075-2.194-.24a26.779 26.779 0 01-4.211-.989 26.8 26.8 0 01-3.928-1.619 26.931 26.931 0 01-3.588-2.192 27.132 27.132 0 01-3.191-2.708 27.154 27.154 0 01-2.736-3.166 27.017 27.017 0 01-2.223-3.567 26.83 26.83 0 01-1.654-3.91 26.778 26.778 0 01-1.027-4.2 27.189 27.189 0 01-.343-4.312 26.86 26.86 0 017.014-18.14 26.922 26.922 0 0114.943-8.358 27.122 27.122 0 015.006-.464 26.974 26.974 0 0125.948 19.613 26.963 26.963 0 011.018 7.353z" opacity=".5"/><path data-name="Path 39" d="M229.001 28.211a2.978 2.978 0 01-.862 2.25c-1.146.909-2.858.625-4.205.49-2.358-.235-4.671-.868-7.038-1a6.955 6.955 0 00-4.794 1.107 8.091 8.091 0 00-2.372 3.956c-1.124 3.516-1.37 7.221-1.943 10.848-.459 2.907-1.088 6.569-3.823 8.245-3.941 2.414-9.668.273-13.439-1.51a27.182 27.182 0 01-12.107-11.371 27 27 0 01-3.345-13.018 26.829 26.829 0 014.163-14.4 26.969 26.969 0 0118.735-12.26 27.167 27.167 0 014.064-.3 26.967 26.967 0 0124.932 16.682 26.943 26.943 0 011.892 7.666 17.763 17.763 0 01.142 2.615z" opacity=".5"/><path data-name="Path 40" d="M228.995 28.211c0 1.977-1.821 2.484-3.427 2.336a39.78 39.78 0 01-9.561-2.488c-2.069-.724-4.8-1.642-6.887-.489-3.068 1.7-2.839 6.15-2.872 9.137-.042 3.833.765 8.033-.039 11.846-.553 2.622-2 5.371-4.719 6.22a6.171 6.171 0 01-1.833.268 7.6 7.6 0 01-.967-.073h-.006a26.99 26.99 0 01-21.91-17.3 26.907 26.907 0 01-1.7-9.455 26.855 26.855 0 012.584-11.533A26.969 26.969 0 01200.64 1.287c.463-.024.927-.036 1.4-.036a26.917 26.917 0 0121.466 10.645 26.837 26.837 0 015.489 16.315z"/></g></g></g></svg>