<svg xmlns="http://www.w3.org/2000/svg" width="375" height="1132"><defs><clipPath id="b"><path data-name="Rectangle 3693" transform="translate(113 2216)" fill="#fff" stroke="#707070" d="M0 0h262v320H0z"/></clipPath><clipPath id="a"><path d="M0 0h375v1132H0z"/></clipPath></defs><g clip-path="url(#a)"><path fill="#7a0000" d="M0 0h375v1132H0z"/><g data-name="Group 4916" opacity=".22" fill="none" stroke="#fff"><path data-name="Path 38" d="M91.904 191.273c.77 3.336 1.255 7.235-.778 10.319-1.62 2.455-4.462 3.595-7.154 4.513-14.274 4.86-36.98-.143-42.606 17.882-2.503 8.022-2.258 16.527-1.959 24.828.307 8.597.522 17.219-.455 25.785-1.397 12.248-5.09 27.263-17.667 32.557a38.715 38.715 0 01-8.948 2.185q-3.935.63-7.914.937a96.917 96.917 0 01-45.163-7.356 97.753 97.753 0 01-36.347-26.59 96.666 96.666 0 01-16.022-26.34 98.158 98.158 0 01-4.711-14.892 97.361 97.361 0 11189.724-43.828z" opacity=".5"/><path data-name="Path 39" d="M91.97 191.506c.5 2.843.708 6.22-1.206 8.618-3.294 4.13-9.547 4.52-14.397 5.143-8.488 1.09-17.143.741-25.571 2.213-5.86 1.022-12.167 2.96-15.965 7.792-3.509 4.464-4.675 10.314-5.132 15.845-1.097 13.283 1.051 26.52 1.981 39.744.746 10.6 1.512 23.995-6.752 32.117-11.903 11.698-33.79 8.819-48.511 5.61a97.33 97.33 0 01-74.184-73.256 97.348 97.348 0 0158.898-112.403 97.143 97.143 0 01128.216 59.492 64.159 64.159 0 012.622 9.085z" opacity=".5"/><path data-name="Path 40" d="M91.957 191.504c1.607 6.955-4.385 10.22-10.16 11.004-12.107 1.644-23.648.333-35.66-.983-7.868-.865-18.228-1.873-24.626 3.878-9.414 8.465-4.99 23.945-2.678 34.476 2.967 13.519 9.219 27.64 9.49 41.709.183 9.676-2.656 20.517-11.55 25.718a22.268 22.268 0 01-6.23 2.432 27.472 27.472 0 01-3.461.527.053.053 0 01-.023.006A97.361 97.361 0 01-29.7 119.815a95.759 95.759 0 014.883-1.26 97.351 97.351 0 01116.775 72.95z" opacity=".5"/></g><g data-name="Group 4917" opacity=".22" fill="none" stroke="#fff"><path data-name="Path 38" d="M420.771 15.908c.77 3.336 1.255 7.235-.778 10.319-1.62 2.455-4.462 3.595-7.154 4.513-14.274 4.86-36.98-.143-42.606 17.882-2.503 8.022-2.258 16.527-1.959 24.828.307 8.597.522 17.219-.455 25.785-1.397 12.248-5.09 27.263-17.667 32.557a38.715 38.715 0 01-8.948 2.185q-3.935.63-7.914.937a96.917 96.917 0 01-45.163-7.356 97.753 97.753 0 01-36.347-26.59 96.666 96.666 0 01-16.022-26.34 98.158 98.158 0 01-4.711-14.892A97.361 97.361 0 11420.77 15.908z" opacity=".5"/><path data-name="Path 39" d="M420.836 16.141c.5 2.843.709 6.22-1.205 8.618-3.294 4.13-9.547 4.52-14.397 5.143-8.488 1.09-17.143.741-25.571 2.213-5.86 1.022-12.167 2.96-15.965 7.792-3.509 4.464-4.675 10.314-5.132 15.845-1.097 13.283 1.051 26.52 1.981 39.744.746 10.6 1.512 23.995-6.752 32.117-11.903 11.698-33.79 8.819-48.511 5.61A97.33 97.33 0 01231.1 59.967a97.348 97.348 0 0158.898-112.403A97.143 97.143 0 01418.214 7.056a64.159 64.159 0 012.622 9.085z" opacity=".5"/><path data-name="Path 40" d="M420.824 16.14c1.607 6.954-4.385 10.22-10.16 11.003-12.107 1.644-23.648.333-35.66-.983-7.868-.865-18.228-1.873-24.626 3.878-9.414 8.465-4.99 23.945-2.678 34.476 2.967 13.519 9.219 27.64 9.49 41.709.183 9.676-2.656 20.517-11.55 25.718a22.268 22.268 0 01-6.23 2.432 27.472 27.472 0 01-3.461.527.053.053 0 01-.023.006 97.361 97.361 0 01-36.76-190.456 95.759 95.759 0 014.883-1.26 97.351 97.351 0 01116.775 72.95z" opacity=".5"/></g><g data-name="Group 4915" opacity=".22" fill="none" stroke="#fff"><path data-name="Path 38" d="M131.133 616.246c5.235-3.53 11.629-6.94 18.282-5.477 5.299 1.165 9.141 5.305 12.5 9.337 17.801 21.37 24.19 63.776 58.944 61.548 15.467-.99 29.957-7.036 44.047-13.025 14.6-6.209 29.305-12.276 44.7-16.254 22.017-5.683 50.31-9.248 67.735 8.91 3.925 4.09 6.851 9.084 9.676 13.966q3.686 6.358 6.844 13.007a178.753 178.753 0 0117.176 82.628 180.3 180.3 0 01-21.77 80.157 178.295 178.295 0 01-34.773 44.992 181.044 181.044 0 01-22.53 17.953 179.571 179.571 0 11-200.83-297.742z" opacity=".5"/><path data-name="Path 39" d="M131.48 615.978c4.563-2.74 10.243-5.328 15.635-3.619 9.29 2.944 14.093 13.454 18.37 21.394 7.483 13.89 12.602 29.027 20.704 42.573 5.627 9.416 13.135 18.996 23.967 22.343 10.004 3.093 20.854 1.233 30.675-1.632 23.6-6.892 44.976-19.335 67.128-29.675 17.76-8.288 40.32-18.457 59.764-9.594 28.01 12.77 37.514 52.36 41.713 79.83a179.515 179.515 0 01-77.111 176.146 179.549 179.549 0 01-232.47-27.15 179.171 179.171 0 0117.723-260.095c3.833-3.162 8.707-7.399 13.902-10.52z" opacity=".5"/><path data-name="Path 40" d="M131.495 616.002c10.915-7.362 20.497.8 25.661 10.224 10.83 19.763 16.206 40.499 21.87 62.055 3.71 14.121 8.819 32.626 22.952 39.843 20.793 10.62 44.53-7.227 61.14-18.17 21.318-14.043 41.507-34.139 65.552-43.9 16.538-6.714 37.09-8.987 51.918 2.894a41.07 41.07 0 018.3 9.117 50.667 50.667 0 013.196 5.612.1.1 0 01.018.04 179.572 179.572 0 01-303.67 189.145 178.2 178.2 0 01-5.397-7.578 179.554 179.554 0 0148.46-249.282z" opacity=".5"/></g><g data-name="Mask Group 7" transform="translate(0 -1404)" clip-path="url(#b)"><g data-name="Group 4932" opacity=".22" fill="none" stroke="#fff"><path data-name="Path 38" d="M252.133 2244.246c5.235-3.53 11.629-6.94 18.282-5.477 5.299 1.165 9.141 5.305 12.5 9.337 17.801 21.37 24.19 63.776 58.944 61.548 15.467-.99 29.957-7.036 44.047-13.025 14.6-6.209 29.305-12.276 44.7-16.254 22.017-5.683 50.31-9.248 67.735 8.91 3.925 4.09 6.851 9.084 9.676 13.966q3.686 6.358 6.844 13.007a178.753 178.753 0 0117.176 82.628 180.3 180.3 0 01-21.77 80.157 178.295 178.295 0 01-34.773 44.992 181.044 181.044 0 01-22.53 17.953 179.571 179.571 0 11-200.83-297.742z" opacity=".5"/><path data-name="Path 39" d="M252.48 2243.978c4.563-2.74 10.243-5.328 15.635-3.619 9.29 2.944 14.093 13.454 18.37 21.394 7.483 13.89 12.602 29.027 20.704 42.573 5.627 9.416 13.135 18.996 23.967 22.343 10.004 3.093 20.854 1.233 30.675-1.632 23.6-6.892 44.976-19.335 67.128-29.675 17.76-8.288 40.32-18.457 59.764-9.594 28.01 12.77 37.514 52.36 41.713 79.83a179.515 179.515 0 01-77.111 176.146 179.549 179.549 0 01-232.47-27.15 179.171 179.171 0 0117.723-260.095c3.833-3.162 8.707-7.399 13.902-10.52z" opacity=".5"/><path data-name="Path 40" d="M252.495 2244.002c10.915-7.362 20.497.8 25.661 10.224 10.83 19.763 16.206 40.499 21.87 62.055 3.71 14.121 8.819 32.626 22.952 39.843 20.793 10.62 44.53-7.227 61.14-18.17 21.318-14.043 41.507-34.139 65.552-43.9 16.538-6.714 37.09-8.987 51.918 2.894a41.07 41.07 0 018.3 9.117 50.667 50.667 0 013.196 5.612.1.1 0 01.018.04 179.572 179.572 0 01-303.67 189.145 178.2 178.2 0 01-5.397-7.578 179.554 179.554 0 0148.46-249.282z" opacity=".5"/></g></g></g></svg>