<svg xmlns="http://www.w3.org/2000/svg" width="1920" height="1072"><defs><clipPath id="b"><path data-name="Rectangle 3686" fill="#fff" stroke="#707070" d="M0 0h522v280H0z"/></clipPath><clipPath id="c"><path data-name="Rectangle 3687" transform="translate(0 -.025)" fill="#fff" stroke="#707070" d="M0 0h312v646H0z"/></clipPath><clipPath id="d"><path data-name="Rectangle 3688" transform="translate(0 -.025)" fill="#fff" stroke="#707070" d="M0 0h662v560H0z"/></clipPath><clipPath id="a"><path d="M0 0h1920v1072H0z"/></clipPath></defs><g clip-path="url(#a)"><path fill="#733528" d="M0 0h1920v1072H0z"/><g data-name="Group 4941"><g data-name="Group 4940"><g data-name="Mask Group 3" transform="translate(1398)" clip-path="url(#b)"><g data-name="Group 4919" opacity=".7" fill="none" stroke="#fff"><path data-name="Path 38" d="M443.885 251.247c-9.814 3.97-21.488 7.338-31.892 2.624-8.285-3.754-13.147-11.882-17.253-19.664-21.765-41.247-17.487-113.015-75.268-121.459-25.713-3.756-51.582 1.12-76.783 6.044-26.108 5.104-52.338 9.94-78.972 11.108-38.087 1.67-85.738-2.334-108-38.184-5.014-8.073-8.07-17.285-11.012-26.273q-3.83-11.712-6.7-23.717a299.715 299.715 0 01.575-141.503 302.298 302.298 0 0163.597-123.894 298.94 298.94 0 0172.687-61.7 303.548 303.548 0 0143.202-21.608 300.8 300.8 0 01392.021 166.205c51.689 127.774 9.407 270.238-94.37 350.752a301.047 301.047 0 01-71.832 41.269z" opacity=".5"/><path data-name="Path 39" d="M443.219 251.567c-8.438 2.907-18.655 5.173-26.905.497-14.21-8.059-18.433-26.97-22.687-41.48-7.444-25.393-10.57-51.997-19.147-77.031-5.96-17.4-14.935-35.728-31.536-44.986-15.334-8.553-33.773-9.277-50.882-7.993-41.107 3.09-80.49 16.063-120.428 25.315-32.014 7.415-72.556 16.248-101.365-5.056C28.771 70.147 26.956 1.903 29.62-44.614a300.993 300.993 0 01187.768-262.09 301.048 301.048 0 01371.854 125.408 303.322 303.322 0 0120.17 40.796c47.114 116.464 16.155 245.132-68.292 327.958a300.9 300.9 0 01-71.439 51.69c-7.381 3.855-16.85 9.103-26.461 12.419z" opacity=".5"/><path data-name="Path 40" d="M443.206 251.521c-20.464 8.279-33.34-8.443-38.532-25.697-10.89-36.183-12.491-72.064-14.283-109.39-1.173-24.454-3.112-56.583-23.78-73.333-30.416-24.65-75.552-3.632-106.606 8.534-39.851 15.616-79.95 41.553-122.79 49.2-29.461 5.259-63.96 1.836-84.15-22.807a68.862 68.862 0 01-10.444-17.85 84.947 84.947 0 01-3.29-10.318.162.162 0 01-.014-.072C9.978-59.918 45.635-175.08 126.645-249.47a302.077 302.077 0 01220.958-78.777c107.635 6.27 207.66 70.364 255.593 173.446a298.2 298.2 0 016.215 14.3A301.056 301.056 0 01443.206 251.52z" opacity=".5"/></g></g><g data-name="Mask Group 4" transform="translate(0 298.025)" clip-path="url(#c)"><g data-name="Group 4920" opacity=".6" fill="none" stroke="#fff"><path data-name="Path 38" d="M241.633 275.383c1.558 6.745 2.537 14.628-1.573 20.863-3.275 4.963-9.021 7.273-14.467 9.127-28.864 9.827-74.774-.29-86.15 36.16-5.06 16.218-4.563 33.425-3.966 50.204.621 17.384 1.057 34.818-.919 52.137-2.826 24.764-10.294 55.129-35.723 65.832-5.727 2.411-11.99 3.442-18.095 4.42q-7.956 1.273-16 1.896a195.971 195.971 0 01-91.322-14.875 197.665 197.665 0 01-73.497-53.765 195.47 195.47 0 01-32.395-53.265 198.492 198.492 0 01-9.527-30.112 196.87 196.87 0 11383.634-88.622z" opacity=".5"/><path data-name="Path 39" d="M241.771 275.843c1.013 5.747 1.431 12.578-2.438 17.426-6.662 8.352-19.305 9.14-29.112 10.4-17.161 2.205-34.661 1.499-51.703 4.47-11.848 2.065-24.603 5.984-32.283 15.756-7.095 9.026-9.452 20.856-10.376 32.04-2.216 26.862 2.128 53.623 4.007 80.364 1.508 21.434 3.057 48.52-13.653 64.941-24.07 23.654-68.326 17.836-98.093 11.346A196.806 196.806 0 01-141.894 364.47 196.844 196.844 0 01-22.799 137.187a196.431 196.431 0 01259.262 120.295c1.733 5.164 4.152 11.816 5.308 18.361z" opacity=".5"/><path data-name="Path 40" d="M241.74 275.848c3.25 14.064-8.87 20.666-20.543 22.25-24.482 3.325-47.818.684-72.106-1.987-15.911-1.749-36.858-3.789-49.795 7.842-19.035 17.12-10.09 48.418-5.414 69.719 6 27.334 18.64 55.89 19.189 84.337.376 19.565-5.37 41.493-23.354 52.005a45.027 45.027 0 01-12.597 4.916 55.548 55.548 0 01-7 1.067.107.107 0 01-.047.002 196.87 196.87 0 01-74.33-385.11 194.79 194.79 0 019.87-2.547A196.85 196.85 0 01241.74 275.848z" opacity=".5"/></g></g><g data-name="Mask Group 5" transform="translate(1258 414.025)" clip-path="url(#d)"><g data-name="Group 4918" opacity=".7" fill="none" stroke="#fff"><path data-name="Path 38" d="M324.118 116.923c11.391-7.683 25.303-15.102 39.781-11.919 11.53 2.535 19.892 11.546 27.2 20.318 38.736 46.5 52.633 138.77 128.264 133.93 33.655-2.153 65.182-15.31 95.854-28.347 31.77-13.51 63.77-26.713 97.269-35.368 47.903-12.375 109.477-20.125 147.395 19.393 8.538 8.902 14.904 19.77 21.056 30.39q8.016 13.837 14.892 28.303a388.971 388.971 0 0137.364 179.799 392.325 392.325 0 01-47.37 174.423 387.969 387.969 0 01-75.668 97.904 393.947 393.947 0 01-49.027 39.067 390.377 390.377 0 01-542.451-105.443c-100.03-148.3-84.716-340.549 25.36-470.713a390.7 390.7 0 0180.081-71.737z" opacity=".5"/><path data-name="Path 39" d="M324.873 116.34c9.929-5.962 22.288-11.594 34.025-7.872 20.213 6.406 30.664 29.275 39.972 46.553 16.29 30.23 27.422 63.164 45.051 92.64 12.25 20.485 28.583 41.335 52.151 48.619 21.771 6.73 45.376 2.685 66.75-3.554 51.355-14.993 97.86-42.066 146.074-64.568 38.647-18.035 87.74-40.166 130.05-20.877 60.948 27.784 81.628 113.933 90.772 173.708a390.628 390.628 0 01-167.804 383.297 388.865 388.865 0 01-206.734 66.668c-110.796 3.245-220.933-40.704-299.126-125.75a393.639 393.639 0 01-36.593-46.36c-91.176-135.174-86.52-306.862-1.616-434.752a390.51 390.51 0 0176.774-84.857c8.341-6.886 18.948-16.1 30.254-22.894z" opacity=".5"/><path data-name="Path 40" d="M324.904 116.393c23.751-16.02 44.599 1.742 55.84 22.248 23.567 43.004 35.264 88.125 47.59 135.031 8.072 30.73 19.187 70.996 49.937 86.697 45.252 23.106 96.898-15.728 133.045-39.54 46.386-30.555 90.314-74.284 142.64-95.527 35.983-14.608 80.707-19.554 112.977 6.3A89.371 89.371 0 01885 251.45a110.24 110.24 0 016.954 12.213.211.211 0 01.037.087c66.786 131.374 52.528 287.18-30.288 403.434a392.036 392.036 0 01-259.31 159.518c-138.333 21.02-282.58-33.416-371.193-151.377a386.94 386.94 0 01-11.739-16.481c-70.98-105.232-83.883-232.584-46.058-344.176a388.918 388.918 0 01151.501-198.275z" opacity=".5"/></g></g></g></g></g></svg>