<svg xmlns="http://www.w3.org/2000/svg" width="154.253" height="39.621"><g data-name="Group 30" fill="#7a0000"><g data-name="Group 7"><path data-name="Path 15" d="M50.151 34.238l3.484 5.091 3.5-5.091h.459v5.383h-.314v-5.087l-3.513 5.087h-.25l-3.5-5.062v5.062h-.314v-5.383z"/><path data-name="Path 16" d="M69.337 36.951h-4.246v2.47h4.839v.2h-5.153v-5.383h5.153v.2h-4.839v2.314h4.246z"/><path data-name="Path 17" d="M77.156 39.621v-5.383H79.5a5.367 5.367 0 011.39.172 3.745 3.745 0 011.108.485 2.4 2.4 0 01.733.747 1.812 1.812 0 01.264.959v.658a1.812 1.812 0 01-.264.959 2.4 2.4 0 01-.733.747 3.738 3.738 0 01-1.108.485 5.381 5.381 0 01-1.39.172zm.314-5.183v4.984h2.03a4.728 4.728 0 001.266-.161 3.393 3.393 0 001.009-.447 2.21 2.21 0 00.666-.685 1.646 1.646 0 00.241-.87v-.669a1.634 1.634 0 00-.241-.865 2.2 2.2 0 00-.666-.68 3.4 3.4 0 00-1.009-.445 4.731 4.731 0 00-1.266-.161z"/><path data-name="Path 18" d="M90.507 39.621h-.314v-5.383h.314z"/><path data-name="Path 19" d="M103.129 38.013h-4.147l-.942 1.608h-.343l3.169-5.383h.384l3.17 5.383h-.344zm-4.03-.2h3.914l-1.954-3.335z"/></g><g data-name="Group 11"><g data-name="Group 8"><path data-name="Path 20" d="M12.231 8.88a8.707 8.707 0 014.153 3.228 8.508 8.508 0 011.64 5.077 8.418 8.418 0 01-2.652 6.264 9.058 9.058 0 01-12.685.052A8.453 8.453 0 010 17.324h1.8a6.811 6.811 0 002.163 4.9 7.248 7.248 0 0010.138-.053 6.995 6.995 0 000-10.016 6.973 6.973 0 00-5.1-2.094 4.858 4.858 0 01-3.245-1.187q-.192-.174-.262-.244a4.908 4.908 0 010-7A4.775 4.775 0 019.006.192a4.833 4.833 0 013.525 1.448 4.775 4.775 0 011.448 3.507h-1.8a3.187 3.187 0 00-3.173-3.155 3.152 3.152 0 00-2.235.925 3.118 3.118 0 00.065 4.494 3.192 3.192 0 002.207.862 8.63 8.63 0 013.13.587z"/><path data-name="Path 21" d="M47.421 25.683h-2.216L34.265 4.954l-10.87 20.729h-2.321L33.009 2.965v-.017L34.265.61l1.2 2.269z"/><path data-name="Path 22" d="M60.487.644a10.728 10.728 0 014.746 1.169q4.694 2.286 4.694 7.869 0 5.6-4.694 7.887a10.862 10.862 0 01-4.746 1.152h-6.072v6.927h-1.832v-25zm-6.072 1.815v14.465h6.072a8.744 8.744 0 003.874-.96 7.225 7.225 0 00.018-12.563 8.674 8.674 0 00-3.891-.942z"/><path data-name="Path 23" d="M77.251 25.648h-1.832V.627h1.832z"/></g><g data-name="Group 9"><path data-name="Path 24" d="M117.249 8.689a8.709 8.709 0 014.153 3.228 8.518 8.518 0 011.639 5.077 8.419 8.419 0 01-2.652 6.264 9.058 9.058 0 01-12.685.052 8.455 8.455 0 01-2.686-6.177h1.8a6.807 6.807 0 002.163 4.9 7.247 7.247 0 0010.137-.053 6.995 6.995 0 000-10.015 6.975 6.975 0 00-5.1-2.094 4.86 4.86 0 01-3.246-1.187c-.127-.116-.216-.2-.261-.244a4.947 4.947 0 013.507-8.445 4.834 4.834 0 013.524 1.448 4.774 4.774 0 011.449 3.507h-1.8a3.015 3.015 0 00-.941-2.233 3.047 3.047 0 00-2.232-.925 3.156 3.156 0 00-2.234.924 3.119 3.119 0 00.062 4.495 3.2 3.2 0 002.212.863 8.6 8.6 0 013.12.585z"/><path data-name="Path 25" d="M141.394.035a12.868 12.868 0 11-9.09 3.769 12.39 12.39 0 019.09-3.769zm0 23.9a11.02 11.02 0 10-7.817-3.228 10.685 10.685 0 007.817 3.232z"/></g><g data-name="Group 29"><path data-name="Path 38" d="M106.298 13.066a1.7 1.7 0 01-.4 1.27 1.68 1.68 0 01-1.027.358c-1.928.2-4.628-1.088-5.854 1.007a9.524 9.524 0 00-.964 3.053 22.222 22.222 0 01-.8 3.216c-.529 1.494-1.426 3.268-3.155 3.567a4.979 4.979 0 01-1.184.015q-.511-.035-1.018-.112a12.437 12.437 0 01-1.955-.459 12.44 12.44 0 01-1.823-.752 12.508 12.508 0 01-1.666-1.018 12.593 12.593 0 01-1.481-1.257 12.605 12.605 0 01-1.27-1.47 12.551 12.551 0 01-1.032-1.656 12.46 12.46 0 01-.768-1.815 12.439 12.439 0 01-.477-1.948 12.62 12.62 0 01-.159-2 12.469 12.469 0 013.256-8.421 12.5 12.5 0 016.937-3.88 12.593 12.593 0 012.324-.216 12.521 12.521 0 0112.045 9.1 12.512 12.512 0 01.471 3.418z" opacity=".5"/><path data-name="Path 39" d="M106.298 13.096a1.382 1.382 0 01-.4 1.045 2.71 2.71 0 01-1.952.228c-1.094-.109-2.168-.4-3.267-.463a3.228 3.228 0 00-2.225.514 3.756 3.756 0 00-1.1 1.836 33.5 33.5 0 00-.9 5.035c-.213 1.349-.5 3.049-1.775 3.827-1.829 1.121-4.488.127-6.239-.7a12.618 12.618 0 01-5.62-5.279 12.532 12.532 0 01-1.553-6.043 12.455 12.455 0 011.932-6.684 12.519 12.519 0 018.7-5.691A12.606 12.606 0 0193.785.58a12.518 12.518 0 0111.573 7.744 12.507 12.507 0 01.878 3.559 8.244 8.244 0 01.062 1.213z" opacity=".5"/><path data-name="Path 40" d="M106.298 13.096c0 .918-.845 1.153-1.591 1.084a18.465 18.465 0 01-4.438-1.155c-.961-.336-2.229-.762-3.2-.227-1.424.788-1.318 2.855-1.333 4.241-.019 1.779.355 3.729-.018 5.5a3.61 3.61 0 01-2.191 2.887 2.864 2.864 0 01-.851.124 3.527 3.527 0 01-.449-.034 12.529 12.529 0 01-10.171-8.03 12.493 12.493 0 01-.791-4.389 12.466 12.466 0 011.2-5.354A12.519 12.519 0 0193.133.597c.215-.011.431-.016.648-.016a12.5 12.5 0 019.964 4.942 12.458 12.458 0 012.553 7.573z"/></g></g></g></svg>