<svg xmlns="http://www.w3.org/2000/svg" width="466.08" height="121.344"><defs><linearGradient id="a" y1=".75" x2="1" y2=".253" gradientUnits="objectBoundingBox"><stop offset="0" stop-color="#7a0000"/><stop offset="1" stop-color="#c13232"/></linearGradient></defs><path data-name="Path 2945" d="M25.68 14.4a2.957 2.957 0 012.112.768 2.64 2.64 0 01.816 2.016 2.564 2.564 0 01-.816 1.992 3.013 3.013 0 01-2.112.744h-7.536v25.152a2.723 2.723 0 01-.912 2.088 3.2 3.2 0 01-2.256.84 3.036 3.036 0 01-2.208-.84 2.794 2.794 0 01-.864-2.088V19.92H4.368a2.957 2.957 0 01-2.112-.768 2.64 2.64 0 01-.816-2.016 2.547 2.547 0 01.84-1.968 2.978 2.978 0 012.088-.768zm40.128-2.976a7.871 7.871 0 01-1.368 4.608 7.145 7.145 0 01-4.152 2.736v15.888a14.467 14.467 0 01-1.68 7.056 12.12 12.12 0 01-4.7 4.8 13.682 13.682 0 01-6.912 1.728 13.815 13.815 0 01-6.936-1.728 12.075 12.075 0 01-4.728-4.8 14.467 14.467 0 01-1.68-7.056V17.28a2.794 2.794 0 01.864-2.088 3.036 3.036 0 012.208-.84A2.909 2.909 0 0139.6 17.28v17.376a8.255 8.255 0 001.008 4.1 7.033 7.033 0 002.712 2.76 7.359 7.359 0 003.672.96 8.088 8.088 0 003.864-.96 7.34 7.34 0 002.88-2.76 7.82 7.82 0 001.08-4.1V17.28a3.205 3.205 0 01.552-1.92 2.39 2.39 0 011.56-.96h.048a1.932 1.932 0 01.528-.048h.24q3.264-.288 3.264-2.928a2.7 2.7 0 01.648-1.752 2.2 2.2 0 011.8-.792 2.05 2.05 0 011.776.792 2.911 2.911 0 01.576 1.752zm39.648 2.88a2.986 2.986 0 012.088.816 2.578 2.578 0 01.888 1.968 3.284 3.284 0 01-.288 1.3l-11.856 27.74a3.212 3.212 0 01-1.2 1.392 2.753 2.753 0 01-3.144-.024 2.969 2.969 0 01-1.08-1.32l-11.856-27.84a2.672 2.672 0 01-.24-1.2 2.574 2.574 0 01.96-2.088 3.074 3.074 0 011.968-.792 2.72 2.72 0 011.536.48 3.031 3.031 0 011.1 1.392l9.648 22.7 8.832-22.7a3.066 3.066 0 011.1-1.344 2.72 2.72 0 011.544-.484zm32.736 29.952a3.23 3.23 0 01.24 1.152 2.718 2.718 0 01-.816 2.04 2.612 2.612 0 01-1.872.792 2.517 2.517 0 01-1.56-.528 3.431 3.431 0 01-1.08-1.44l-2.5-5.808H116.3l-2.5 5.856a2.953 2.953 0 01-1.032 1.416 2.443 2.443 0 01-4.056-1.992 3.175 3.175 0 01.144-.912l11.952-28.7a3.185 3.185 0 011.152-1.488 2.515 2.515 0 011.728-.432 2.812 2.812 0 011.608.5 2.843 2.843 0 011.08 1.416zm-19.536-9.312h9.6l-4.848-11.232zm11.328-25.1a3.9 3.9 0 01.576.768 1.485 1.485 0 01.144.672 1.1 1.1 0 01-.432.816 1.533 1.533 0 01-1.056.384 2.349 2.349 0 01-.96-.24 16.163 16.163 0 01-1.488-.816l-3.12-1.828-3.12 1.824q-.768.432-1.392.744a2.47 2.47 0 01-1.056.312 1.533 1.533 0 01-1.056-.384 1.1 1.1 0 01-.432-.816 1.485 1.485 0 01.144-.672 3.9 3.9 0 01.576-.768l3.024-3.456a4.285 4.285 0 011.3-1.056 3.619 3.619 0 011.632-.336h.768a3.657 3.657 0 011.608.336 4.175 4.175 0 011.32 1.056zm1.68-1.2a2.152 2.152 0 01-1.464-.48 1.576 1.576 0 01-.552-1.248 1.787 1.787 0 01.672-1.3l4.128-3.648A3.747 3.747 0 01136.8.912a2.678 2.678 0 011.728.672 2.09 2.09 0 01.816 1.68 2.558 2.558 0 01-.456 1.416 3.29 3.29 0 01-1.32 1.128l-4.8 2.544a2.1 2.1 0 01-1.104.288zM168 14.4a2.449 2.449 0 011.872.768 2.7 2.7 0 01.72 1.92v27.984A2.87 2.87 0 01167.664 48a4.149 4.149 0 01-1.32-.216 1.867 1.867 0 01-.936-.6l-17.616-22.368v20.5a2.649 2.649 0 01-.744 1.92A2.585 2.585 0 01145.1 48a2.449 2.449 0 01-1.872-.768 2.7 2.7 0 01-.72-1.92V17.328a2.87 2.87 0 012.932-2.928 3.673 3.673 0 011.416.288 2.279 2.279 0 011.032.768l17.472 22.272v-20.64a2.65 2.65 0 01.744-1.92A2.526 2.526 0 01168 14.4zm46.752 1.632a2.569 2.569 0 011.488 2.448 3.25 3.25 0 01-.72 1.968 2.37 2.37 0 01-1.968 1.008 3.461 3.461 0 01-1.632-.432 11.824 11.824 0 00-5.088-1.1 11.669 11.669 0 00-5.856 1.416 9.6 9.6 0 00-3.84 3.984 12.494 12.494 0 00-1.344 5.88q0 5.664 3.048 8.592a12.336 12.336 0 0013.08 1.824 3.856 3.856 0 011.536-.384 2.635 2.635 0 012.112 1.056 3.115 3.115 0 01.72 1.968 2.6 2.6 0 01-.384 1.392 2.5 2.5 0 01-1.1.96 17.578 17.578 0 01-7.968 1.872 18.857 18.857 0 01-8.64-1.992 15.33 15.33 0 01-6.288-5.88 17.85 17.85 0 01-2.352-9.408 17.323 17.323 0 012.232-8.784 15.845 15.845 0 016.168-6.072 17.99 17.99 0 018.88-2.184 17.093 17.093 0 017.916 1.868zm30.912-1.632a2.92 2.92 0 012.16.816 2.858 2.858 0 01.816 2.112v27.744a2.794 2.794 0 01-.864 2.088 3.036 3.036 0 01-2.208.84 2.857 2.857 0 01-2.064-.84 2.794 2.794 0 01-.864-2.088V33.888h-15.312v11.184a2.723 2.723 0 01-.912 2.088 3.023 3.023 0 01-2.116.84 2.894 2.894 0 01-2.136-.84 2.835 2.835 0 01-.84-2.088V17.328a2.794 2.794 0 01.864-2.088 3.036 3.036 0 012.208-.84 2.857 2.857 0 012.064.84 2.794 2.794 0 01.864 2.088v11.04h15.316v-11.04a2.723 2.723 0 01.912-2.088 3.023 3.023 0 012.112-.84zm16.176 30.672a2.723 2.723 0 01-.912 2.088 3.023 3.023 0 01-2.112.84 2.894 2.894 0 01-2.136-.84 2.835 2.835 0 01-.84-2.088V17.328a2.794 2.794 0 01.864-2.088 3.036 3.036 0 012.208-.84 2.857 2.857 0 012.064.84 2.794 2.794 0 01.864 2.088zm26.208-2.592a2.835 2.835 0 012.088.84 2.669 2.669 0 01.84 1.944 2.547 2.547 0 01-.84 1.968 2.978 2.978 0 01-2.088.768h-16.08a2.87 2.87 0 01-2.928-2.928V17.328a2.87 2.87 0 012.928-2.928h16.08a2.926 2.926 0 012.088.792 2.678 2.678 0 01.84 2.04 2.507 2.507 0 01-.816 1.944 3.013 3.013 0 01-2.112.744H275.04v8.16h10.848a2.926 2.926 0 012.088.792 2.678 2.678 0 01.84 2.04 2.507 2.507 0 01-.816 1.944 3.013 3.013 0 01-2.112.744H275.04v8.88zm-1.632-32.64a3.9 3.9 0 01.576.768 1.485 1.485 0 01.144.672 1.1 1.1 0 01-.432.816 1.533 1.533 0 01-1.056.384 2.349 2.349 0 01-.96-.24 16.163 16.163 0 01-1.488-.816L280.08 9.6l-3.12 1.824q-.768.432-1.392.744a2.47 2.47 0 01-1.056.312 1.533 1.533 0 01-1.056-.384 1.1 1.1 0 01-.432-.816 1.484 1.484 0 01.144-.672 3.9 3.9 0 01.576-.768l3.024-3.456a4.285 4.285 0 011.3-1.056 3.619 3.619 0 011.632-.336h.768a3.657 3.657 0 011.608.336 4.174 4.174 0 011.32 1.056zm2.3-1.008a2.152 2.152 0 01-1.464-.48A1.576 1.576 0 01286.7 7.1a1.787 1.787 0 01.672-1.3l4.128-3.64a3.747 3.747 0 012.356-1.06 2.678 2.678 0 011.728.672 2.09 2.09 0 01.816 1.68 2.558 2.558 0 01-.456 1.416A3.289 3.289 0 01294.624 6l-4.8 2.544a2.1 2.1 0 01-1.104.288zm33.268 5.568a2.449 2.449 0 011.872.768 2.7 2.7 0 01.72 1.92v27.984A2.87 2.87 0 01321.648 48a4.149 4.149 0 01-1.32-.216 1.867 1.867 0 01-.936-.6l-17.616-22.368v20.5a2.65 2.65 0 01-.744 1.92 2.585 2.585 0 01-1.944.768 2.449 2.449 0 01-1.872-.768 2.7 2.7 0 01-.72-1.92V17.328a2.87 2.87 0 012.928-2.928 3.673 3.673 0 011.416.288 2.279 2.279 0 011.032.768l17.472 22.272v-20.64a2.65 2.65 0 01.744-1.92 2.526 2.526 0 011.896-.768zm41.76 27.984a2.926 2.926 0 012.088.792 2.678 2.678 0 01.84 2.04 2.622 2.622 0 01-.84 1.992 2.926 2.926 0 01-2.088.792h-15.6a2.87 2.87 0 01-2.928-2.928V17.328a2.794 2.794 0 01.864-2.088 3.036 3.036 0 012.208-.84 2.857 2.857 0 012.064.84 2.794 2.794 0 01.864 2.088v25.056zm40.608-30.96a7.871 7.871 0 01-1.368 4.608 7.145 7.145 0 01-4.152 2.736v15.888a14.468 14.468 0 01-1.68 7.056 12.12 12.12 0 01-4.7 4.8 14.736 14.736 0 01-13.848 0 12.075 12.075 0 01-4.728-4.8 14.468 14.468 0 01-1.68-7.056V17.28a2.794 2.794 0 01.864-2.088 3.036 3.036 0 012.208-.84 2.909 2.909 0 012.88 2.928v17.376a8.255 8.255 0 001.008 4.1 7.033 7.033 0 002.712 2.76 7.359 7.359 0 003.672.96 8.088 8.088 0 003.864-.96 7.34 7.34 0 002.88-2.76 7.82 7.82 0 001.08-4.1V17.28a3.205 3.205 0 01.552-1.92 2.39 2.39 0 011.56-.96h.048a1.932 1.932 0 01.528-.048h.24q3.264-.288 3.264-2.928a2.7 2.7 0 01.648-1.752A2.2 2.2 0 01402 8.88a2.05 2.05 0 011.776.792 2.911 2.911 0 01.576 1.752zm26.256 5.952a16.128 16.128 0 014.656 5.976 18.43 18.43 0 011.68 7.848 18.22 18.22 0 01-2.112 8.712A16.174 16.174 0 01429 46.176a16.377 16.377 0 01-16.752 0 16 16 0 01-5.808-6.264 18.389 18.389 0 01-2.088-8.712 18.389 18.389 0 012.088-8.712 16 16 0 015.808-6.264 15.583 15.583 0 018.376-2.3 16.71 16.71 0 014.416.576q3.216-.336 3.216-2.928a2.7 2.7 0 01.648-1.752 2.2 2.2 0 011.8-.792 2.05 2.05 0 011.776.792 2.911 2.911 0 01.576 1.752 8.7 8.7 0 01-.6 3.24 6.416 6.416 0 01-1.848 2.564zm-9.984 25.344a9.136 9.136 0 005.184-1.536 10.46 10.46 0 003.6-4.152 12.957 12.957 0 001.3-5.832 12.957 12.957 0 00-1.3-5.832 10.46 10.46 0 00-3.6-4.152 9.62 9.62 0 00-10.392-.024 10.141 10.141 0 00-3.552 4.152 13.315 13.315 0 00-1.272 5.856 13.315 13.315 0 001.272 5.856 10.141 10.141 0 003.552 4.152 9.207 9.207 0 005.208 1.512zm-.048 12.336a3.711 3.711 0 01-2.256-.528 2.255 2.255 0 01-.672-1.872v-.912a2.176 2.176 0 01.72-1.872 3.743 3.743 0 012.208-.528 4.132 4.132 0 012.448.528 2.255 2.255 0 01.672 1.872v.912a2.167 2.167 0 01-.72 1.9 4.32 4.32 0 01-2.4.5zm45.408-39.024a2.569 2.569 0 011.488 2.448 3.249 3.249 0 01-.72 1.968 2.37 2.37 0 01-1.968 1.008 3.461 3.461 0 01-1.632-.432 11.824 11.824 0 00-5.088-1.1 11.669 11.669 0 00-5.856 1.416 9.6 9.6 0 00-3.84 3.984 12.494 12.494 0 00-1.344 5.88q0 5.664 3.048 8.592a12.336 12.336 0 0013.08 1.824 3.857 3.857 0 011.536-.384 2.635 2.635 0 012.112 1.056 3.114 3.114 0 01.72 1.968 2.6 2.6 0 01-.384 1.392 2.5 2.5 0 01-1.1.96 17.578 17.578 0 01-7.968 1.872 18.857 18.857 0 01-8.64-1.992 15.33 15.33 0 01-6.288-5.88 17.85 17.85 0 01-2.352-9.408 17.323 17.323 0 012.232-8.784 15.845 15.845 0 016.168-6.072 17.99 17.99 0 018.88-2.184 17.093 17.093 0 017.916 1.868zM25.68 81.6a2.957 2.957 0 012.112.768 2.64 2.64 0 01.816 2.016 2.564 2.564 0 01-.816 1.992 3.013 3.013 0 01-2.112.744h-7.536v25.152a2.723 2.723 0 01-.912 2.088 3.2 3.2 0 01-2.256.84 3.036 3.036 0 01-2.208-.84 2.794 2.794 0 01-.864-2.088V87.12H4.368a2.957 2.957 0 01-2.112-.768 2.64 2.64 0 01-.816-2.016 2.547 2.547 0 01.84-1.968 2.978 2.978 0 012.088-.768zm32.3 0a2.92 2.92 0 012.16.816 2.858 2.858 0 01.816 2.112v27.744a2.794 2.794 0 01-.864 2.088 3.036 3.036 0 01-2.208.84 2.857 2.857 0 01-2.064-.84 2.794 2.794 0 01-.864-2.088v-11.184H39.648v11.184a2.723 2.723 0 01-.912 2.088 3.023 3.023 0 01-2.112.84 2.894 2.894 0 01-2.136-.84 2.835 2.835 0 01-.84-2.088V84.528a2.794 2.794 0 01.864-2.088 3.036 3.036 0 012.208-.84 2.857 2.857 0 012.064.84 2.794 2.794 0 01.864 2.088v11.04H54.96v-11.04a2.723 2.723 0 01.912-2.088 3.023 3.023 0 012.112-.84zm42.336-2.976a7.871 7.871 0 01-1.368 4.608 7.145 7.145 0 01-4.148 2.736v15.888a14.467 14.467 0 01-1.68 7.056 12.12 12.12 0 01-4.7 4.8 14.736 14.736 0 01-13.848 0 12.075 12.075 0 01-4.728-4.8 14.467 14.467 0 01-1.68-7.056V84.48a2.794 2.794 0 01.864-2.088 3.036 3.036 0 012.208-.84 2.909 2.909 0 012.88 2.928v17.376a8.255 8.255 0 001.008 4.1 7.033 7.033 0 002.712 2.76 7.359 7.359 0 003.672.96 8.088 8.088 0 003.864-.96 7.34 7.34 0 002.88-2.76 7.82 7.82 0 001.08-4.1V84.48a3.205 3.205 0 01.552-1.92 2.39 2.39 0 011.56-.96h.048a1.933 1.933 0 01.528-.048h.24q3.264-.288 3.264-2.928a2.7 2.7 0 01.648-1.752 2.2 2.2 0 011.8-.792 2.05 2.05 0 011.776.792 2.911 2.911 0 01.572 1.752zm26.256 5.952a16.128 16.128 0 014.656 5.976 18.43 18.43 0 011.68 7.848 18.22 18.22 0 01-2.112 8.712 16.175 16.175 0 01-5.832 6.264 16.377 16.377 0 01-16.752 0 16 16 0 01-5.808-6.264 19.219 19.219 0 010-17.424 16 16 0 015.808-6.264 15.583 15.583 0 018.376-2.3 16.71 16.71 0 014.416.576q3.216-.336 3.216-2.928a2.7 2.7 0 01.648-1.752 2.2 2.2 0 011.8-.792 2.05 2.05 0 011.776.792 2.911 2.911 0 01.576 1.752 8.7 8.7 0 01-.6 3.24 6.416 6.416 0 01-1.844 2.564zm-9.984 25.344a9.136 9.136 0 005.184-1.536 10.46 10.46 0 003.6-4.152 13.77 13.77 0 000-11.664 10.46 10.46 0 00-3.6-4.152 9.62 9.62 0 00-10.392-.024 10.141 10.141 0 00-3.552 4.152 14.116 14.116 0 000 11.712 10.141 10.141 0 003.552 4.152 9.207 9.207 0 005.212 1.512zM163.92 81.6a2.449 2.449 0 011.872.768 2.7 2.7 0 01.72 1.92v27.984a2.87 2.87 0 01-2.928 2.928 4.148 4.148 0 01-1.32-.216 1.867 1.867 0 01-.936-.6l-17.616-22.368v20.5a2.65 2.65 0 01-.744 1.92 2.585 2.585 0 01-1.944.768 2.449 2.449 0 01-1.872-.768 2.7 2.7 0 01-.72-1.92V84.528a2.87 2.87 0 012.928-2.928 3.673 3.673 0 011.416.288 2.279 2.279 0 011.032.768l17.472 22.272v-20.64a2.65 2.65 0 01.744-1.92 2.526 2.526 0 011.896-.768zm34.56 15.456a2.756 2.756 0 012.064.84 2.878 2.878 0 01.816 2.088v10.176a2.879 2.879 0 01-1.488 2.592 19.151 19.151 0 01-10.32 2.928 17.262 17.262 0 01-8.784-2.328 17.438 17.438 0 01-6.384-6.288 17.134 17.134 0 010-17.328 17.438 17.438 0 016.384-6.288 17.262 17.262 0 018.784-2.328 16.922 16.922 0 018.256 1.92 2.6 2.6 0 011.44 2.352 3.036 3.036 0 01-.792 2.088 2.505 2.505 0 01-1.944.888 3.938 3.938 0 01-1.584-.384 13.586 13.586 0 00-5.376-1.1 10.782 10.782 0 00-5.664 1.56 11.623 11.623 0 000 19.92 10.782 10.782 0 005.664 1.56 18.711 18.711 0 002.88-.24 16.73 16.73 0 002.688-.624v-6.24h-4.512a2.878 2.878 0 01-2.088-.82 2.956 2.956 0 010-4.128 2.878 2.878 0 012.088-.816zM244.9 81.6a2.92 2.92 0 012.16.816 2.858 2.858 0 01.816 2.112v27.744a2.794 2.794 0 01-.864 2.088 3.036 3.036 0 01-2.208.84 2.857 2.857 0 01-2.064-.84 2.794 2.794 0 01-.864-2.088v-11.184H226.56v11.184a2.723 2.723 0 01-.912 2.088 3.023 3.023 0 01-2.112.84 2.894 2.894 0 01-2.136-.84 2.835 2.835 0 01-.84-2.088V84.528a2.794 2.794 0 01.864-2.088 3.036 3.036 0 012.208-.84 2.858 2.858 0 012.064.84 2.794 2.794 0 01.864 2.088v11.04h15.312v-11.04a2.723 2.723 0 01.912-2.088 3.023 3.023 0 012.116-.84zm16.176 30.672a2.723 2.723 0 01-.912 2.088 3.023 3.023 0 01-2.112.84 2.894 2.894 0 01-2.136-.84 2.835 2.835 0 01-.84-2.088V84.528a2.794 2.794 0 01.864-2.088 3.036 3.036 0 012.208-.84 2.857 2.857 0 012.064.84 2.794 2.794 0 01.864 2.088zm26.208-2.592a2.835 2.835 0 012.088.84 2.669 2.669 0 01.84 1.944 2.547 2.547 0 01-.84 1.968 2.978 2.978 0 01-2.088.768H271.2a2.87 2.87 0 01-2.928-2.928V84.528A2.87 2.87 0 01271.2 81.6h16.08a2.926 2.926 0 012.088.792 2.678 2.678 0 01.84 2.04 2.507 2.507 0 01-.816 1.944 3.013 3.013 0 01-2.112.744h-13.008v8.16h10.848a2.926 2.926 0 012.088.792 2.678 2.678 0 01.84 2.04 2.507 2.507 0 01-.816 1.944 3.013 3.013 0 01-2.112.744h-10.848v8.88zm-8.984 12.576a3.711 3.711 0 01-2.256-.528 2.255 2.255 0 01-.672-1.872v-.912a2.176 2.176 0 01.72-1.872 3.743 3.743 0 012.208-.528 4.132 4.132 0 012.448.528 2.255 2.255 0 01.672 1.872v.912a2.168 2.168 0 01-.72 1.9 4.32 4.32 0 01-2.4.5zm7.344-45.216a3.9 3.9 0 01.576.768 1.484 1.484 0 01.144.672 1.1 1.1 0 01-.432.816 1.533 1.533 0 01-1.056.384 2.349 2.349 0 01-.96-.24 16.158 16.158 0 01-1.488-.816l-3.12-1.824-3.12 1.824q-.768.432-1.392.744a2.47 2.47 0 01-1.056.312 1.533 1.533 0 01-1.056-.384 1.1 1.1 0 01-.432-.816 1.485 1.485 0 01.144-.672 3.9 3.9 0 01.576-.768L276 73.584a4.285 4.285 0 011.3-1.056 3.619 3.619 0 011.632-.336h.768a3.657 3.657 0 011.608.336 4.174 4.174 0 011.32 1.056zm33.936 4.512a2.64 2.64 0 012.016.816 2.957 2.957 0 01.768 2.112v17.376a14.468 14.468 0 01-1.68 7.056 12.12 12.12 0 01-4.7 4.8 14.736 14.736 0 01-13.848 0 12.075 12.075 0 01-4.728-4.8 14.468 14.468 0 01-1.68-7.056V84.48a2.794 2.794 0 01.864-2.088 3.036 3.036 0 012.208-.84 2.909 2.909 0 012.88 2.928v17.376a8.255 8.255 0 001.008 4.1 7.033 7.033 0 002.712 2.76 7.359 7.359 0 003.672.96 8.088 8.088 0 003.864-.96 7.34 7.34 0 002.88-2.76 7.82 7.82 0 001.08-4.1V84.48a3.074 3.074 0 01.72-2.112 2.49 2.49 0 011.968-.816z" transform="translate(-1.44 -.912)" fill="url(#a)"/></svg>