<svg xmlns="http://www.w3.org/2000/svg" width="395.189" height="125.855"><defs><linearGradient id="a" x1=".742" y1="-.288" x2=".036" y2=".5" gradientUnits="objectBoundingBox"><stop offset="0" stop-color="#c13232"/><stop offset="1" stop-color="#7a0000"/></linearGradient></defs><path data-name="Path 2953" d="M26.821-7.442a3.184 3.184 0 012.274.827 2.843 2.843 0 01.879 2.171A2.761 2.761 0 0129.1-2.3a3.244 3.244 0 01-2.274.8h-8.119v27.085a2.932 2.932 0 01-.982 2.248 3.451 3.451 0 01-2.429.9 3.269 3.269 0 01-2.378-.9 3.009 3.009 0 01-.93-2.248V-1.5H3.873A3.184 3.184 0 011.6-2.325 2.843 2.843 0 01.72-4.5a2.743 2.743 0 01.9-2.119 3.207 3.207 0 012.248-.827zm36.956 31.115a3.044 3.044 0 011.06 1.085 2.755 2.755 0 01.388 1.4 2.669 2.669 0 01-.62 1.706 2.919 2.919 0 01-2.378.93 4.641 4.641 0 01-2.274-.569Q56.23 26.1 56.23 19.589a3.752 3.752 0 00-1.215-2.946 5.068 5.068 0 00-3.489-1.085h-9.664v10.027a3.382 3.382 0 01-.749 2.274 2.485 2.485 0 01-1.99.879 4.009 4.009 0 01-2.61-.9 2.789 2.789 0 01-1.113-2.253V-4.289a3.052 3.052 0 01.9-2.248 3.052 3.052 0 012.248-.9h14.891A9.58 9.58 0 0158.5-6a10.681 10.681 0 013.8 3.98 11.414 11.414 0 011.425 5.69 10.078 10.078 0 01-1.4 5.039 11.12 11.12 0 01-3.618 3.9 7.919 7.919 0 013.566 6.1 8.69 8.69 0 01.155 1.6 16.463 16.463 0 00.413 2.3 1.7 1.7 0 00.936 1.064zm-10.6-13.438a2.573 2.573 0 001.809-.879A6.67 6.67 0 0056.437 7a8.752 8.752 0 00.569-3.179 6.2 6.2 0 00-.569-2.662A5.453 5.453 0 0054.99-.775a2.825 2.825 0 00-1.809-.725H41.862v11.734zM96.339-7.494a2.843 2.843 0 012.171.879 3.184 3.184 0 01.827 2.274v18.71a15.578 15.578 0 01-1.809 7.6 13.051 13.051 0 01-5.065 5.169A14.733 14.733 0 0185.019 29a14.876 14.876 0 01-7.469-1.861 13 13 0 01-5.091-5.169 15.578 15.578 0 01-1.809-7.6V-4.341a3.009 3.009 0 01.93-2.248 3.269 3.269 0 012.378-.9 3.017 3.017 0 012.171.9 3.009 3.009 0 01.93 2.248v18.71a8.889 8.889 0 001.085 4.419 7.573 7.573 0 002.92 2.972 7.924 7.924 0 003.954 1.034 8.709 8.709 0 004.162-1.034 7.9 7.9 0 003.1-2.972 8.421 8.421 0 001.163-4.419v-18.71a3.31 3.31 0 01.775-2.274 2.681 2.681 0 012.121-.879zm36.387 3.1a3.452 3.452 0 01-.569 1.912l-10.8 15.454v12.613a3.1 3.1 0 01-.879 2.248 2.847 2.847 0 01-2.119.9 2.991 2.991 0 01-2.2-.9 3.052 3.052 0 01-.9-2.248V12.25L104.5-2.015a4.065 4.065 0 01-.93-2.429 2.839 2.839 0 011.06-2.248 3.414 3.414 0 012.248-.9 3.129 3.129 0 012.533 1.447l9.1 12.56 8.529-12.462a3.123 3.123 0 012.584-1.553 2.975 2.975 0 012.171.93 3.094 3.094 0 01.93 2.277zm25.119 27.187a3.052 3.052 0 012.248.9 2.874 2.874 0 01.9 2.093 2.743 2.743 0 01-.9 2.119 3.207 3.207 0 01-2.248.827H140.53a3.09 3.09 0 01-3.153-3.153V-4.289a3.052 3.052 0 01.9-2.248 3.052 3.052 0 012.248-.9h17.315a3.151 3.151 0 012.248.853 2.884 2.884 0 01.9 2.2 2.7 2.7 0 01-.879 2.093 3.244 3.244 0 01-2.274.8h-13.997v8.779h11.681a3.151 3.151 0 012.248.853 2.884 2.884 0 01.9 2.2 2.7 2.7 0 01-.879 2.093 3.244 3.244 0 01-2.274.8h-11.676v9.562zm-1.757-35.146a4.2 4.2 0 01.62.827 1.6 1.6 0 01.155.724 1.182 1.182 0 01-.465.879 1.65 1.65 0 01-1.137.413 2.53 2.53 0 01-1.034-.258 17.406 17.406 0 01-1.6-.879l-3.36-1.964-3.36 1.964q-.827.465-1.5.8a2.66 2.66 0 01-1.137.336 1.651 1.651 0 01-1.137-.413 1.182 1.182 0 01-.465-.879 1.6 1.6 0 01.155-.724 4.2 4.2 0 01.62-.827l3.256-3.721a4.614 4.614 0 011.4-1.137 3.9 3.9 0 011.757-.362h.827a3.937 3.937 0 011.731.362 4.5 4.5 0 011.421 1.137zm.775-4.238a2.658 2.658 0 01-1.189-.31l-5.169-2.739a4.047 4.047 0 01-1.421-1.24 2.635 2.635 0 01-.491-1.5 2.25 2.25 0 01.879-1.809 2.884 2.884 0 011.861-.724 4.034 4.034 0 012.533 1.137l4.445 3.928a1.924 1.924 0 01.724 1.4 1.7 1.7 0 01-.594 1.344 2.317 2.317 0 01-1.578.513zm37.524 9.148a2.637 2.637 0 012.016.827 2.906 2.906 0 01.775 2.067v30.134a3.09 3.09 0 01-3.153 3.153 4.467 4.467 0 01-1.421-.233 2.01 2.01 0 01-1.008-.646L172.627 3.774v22.07a2.853 2.853 0 01-.8 2.067 2.783 2.783 0 01-2.093.827 2.637 2.637 0 01-2.016-.827 2.906 2.906 0 01-.775-2.067V-4.289a3.052 3.052 0 01.9-2.248 3.052 3.052 0 012.248-.9 3.955 3.955 0 011.525.31 2.454 2.454 0 011.111.827l18.814 23.982v-22.23a2.853 2.853 0 01.8-2.067 2.72 2.72 0 012.045-.827zm48.791 0a3.184 3.184 0 012.274.827 2.843 2.843 0 01.879 2.171 2.761 2.761 0 01-.879 2.145 3.244 3.244 0 01-2.274.8h-8.115v27.085a2.932 2.932 0 01-.982 2.248 3.451 3.451 0 01-2.429.9 3.269 3.269 0 01-2.378-.9 3.009 3.009 0 01-.93-2.248V-1.5h-8.115a3.184 3.184 0 01-2.274-.827 2.843 2.843 0 01-.879-2.171 2.743 2.743 0 01.9-2.119 3.207 3.207 0 012.248-.827zm34.784 0a3.144 3.144 0 012.326.879 3.077 3.077 0 01.879 2.274v29.875a3.009 3.009 0 01-.93 2.248 3.269 3.269 0 01-2.378.9 3.077 3.077 0 01-2.222-.9 3.009 3.009 0 01-.93-2.248V13.542h-16.489v12.043a2.932 2.932 0 01-.982 2.248 3.255 3.255 0 01-2.274.9 3.116 3.116 0 01-2.3-.9 3.052 3.052 0 01-.9-2.248V-4.289a3.009 3.009 0 01.93-2.248 3.269 3.269 0 012.378-.9 3.077 3.077 0 012.222.9 3.009 3.009 0 01.93 2.248V7.6h16.488V-4.289a2.932 2.932 0 01.982-2.248 3.255 3.255 0 012.27-.905zm44.243 18.09a19.62 19.62 0 01-2.274 9.381 17.417 17.417 0 01-6.28 6.745 17.635 17.635 0 01-18.038 0 17.226 17.226 0 01-6.254-6.745 19.8 19.8 0 01-2.248-9.381 19.8 19.8 0 012.248-9.381 17.226 17.226 0 016.254-6.745 17.635 17.635 0 0118.038 0 17.417 17.417 0 016.28 6.745 19.62 19.62 0 012.274 9.382zm-6.719 0a13.951 13.951 0 00-1.4-6.28A11.263 11.263 0 00310.214-.1a10.358 10.358 0 00-11.19-.026 10.92 10.92 0 00-3.824 4.468 14.337 14.337 0 00-1.37 6.306 14.337 14.337 0 001.37 6.306 10.92 10.92 0 003.825 4.471 10.358 10.358 0 0011.19-.026 11.263 11.263 0 003.876-4.471 13.951 13.951 0 001.395-6.28zm-4.031-23a4.2 4.2 0 01.62.827 1.6 1.6 0 01.155.724 1.182 1.182 0 01-.465.879 1.651 1.651 0 01-1.137.413 2.53 2.53 0 01-1.034-.258 17.4 17.4 0 01-1.6-.879l-3.36-1.964-3.36 1.964q-.827.465-1.5.8a2.66 2.66 0 01-1.137.336 1.651 1.651 0 01-1.137-.413 1.182 1.182 0 01-.465-.879 1.6 1.6 0 01.155-.724 4.2 4.2 0 01.62-.827l3.256-3.721a4.615 4.615 0 011.4-1.137 3.9 3.9 0 011.757-.362h.827a3.937 3.937 0 011.731.362 4.5 4.5 0 011.421 1.137zm44.14 4.91a2.637 2.637 0 012.016.827 2.905 2.905 0 01.775 2.067v30.134a3.09 3.09 0 01-3.153 3.153 4.467 4.467 0 01-1.421-.233 2.01 2.01 0 01-1.008-.646L333.835 3.774v22.07a2.853 2.853 0 01-.8 2.067 2.783 2.783 0 01-2.093.827 2.637 2.637 0 01-2.016-.827 2.905 2.905 0 01-.775-2.067V-4.289a3.052 3.052 0 01.9-2.248 3.052 3.052 0 012.248-.9 3.955 3.955 0 011.525.31 2.454 2.454 0 011.111.827l18.814 23.982v-22.23a2.853 2.853 0 01.8-2.067 2.72 2.72 0 012.045-.827zM392.808 9.2a2.967 2.967 0 012.222.9 3.1 3.1 0 01.879 2.248v10.963a3.1 3.1 0 01-1.6 2.791 20.621 20.621 0 01-11.112 3.153 18.587 18.587 0 01-9.458-2.507 18.776 18.776 0 01-6.874-6.771 17.937 17.937 0 01-2.533-9.329 17.937 17.937 0 012.533-9.329 18.777 18.777 0 016.874-6.771 18.588 18.588 0 019.458-2.507 18.221 18.221 0 018.89 2.067 2.844 2.844 0 011.163 1.085 2.847 2.847 0 01.388 1.447 3.269 3.269 0 01-.853 2.248 2.7 2.7 0 01-2.093.956 4.241 4.241 0 01-1.706-.413 14.629 14.629 0 00-5.789-1.189 11.61 11.61 0 00-6.1 1.68 12.452 12.452 0 00-6.047 10.725 12.452 12.452 0 006.05 10.726 11.61 11.61 0 006.1 1.68 20.147 20.147 0 003.1-.258 18.013 18.013 0 002.894-.672V15.4h-4.858a3.1 3.1 0 01-2.248-.879 2.967 2.967 0 01-.9-2.222 2.967 2.967 0 01.9-2.222 3.1 3.1 0 012.248-.879zM26.821 57.165a3.184 3.184 0 012.274.827 2.843 2.843 0 01.879 2.171 2.761 2.761 0 01-.879 2.145 3.244 3.244 0 01-2.274.8h-8.114v27.084a2.932 2.932 0 01-.982 2.248 3.451 3.451 0 01-2.429.9 3.269 3.269 0 01-2.378-.9 3.009 3.009 0 01-.93-2.248V63.109H3.873a3.184 3.184 0 01-2.273-.827 2.843 2.843 0 01-.88-2.171 2.743 2.743 0 01.9-2.119 3.207 3.207 0 012.248-.827zm34.785 0a3.144 3.144 0 012.326.879 3.077 3.077 0 01.879 2.274v29.874a3.009 3.009 0 01-.93 2.248 3.269 3.269 0 01-2.378.9 3.077 3.077 0 01-2.222-.9 3.009 3.009 0 01-.93-2.248V78.149H41.862v12.043a2.932 2.932 0 01-.982 2.248 3.255 3.255 0 01-2.274.9 3.116 3.116 0 01-2.3-.9 3.052 3.052 0 01-.9-2.248V60.318a3.009 3.009 0 01.93-2.248 3.269 3.269 0 012.378-.9 3.077 3.077 0 012.222.9 3.009 3.009 0 01.93 2.248v11.888H58.35V60.318a2.932 2.932 0 01.982-2.248 3.255 3.255 0 012.274-.905zm45.587-3.2a8.475 8.475 0 01-1.473 4.962 7.694 7.694 0 01-4.471 2.946v17.103a15.578 15.578 0 01-1.809 7.6 13.051 13.051 0 01-5.065 5.169 15.868 15.868 0 01-14.911 0 13 13 0 01-5.091-5.169 15.578 15.578 0 01-1.809-7.6v-18.71a3.009 3.009 0 01.93-2.248 3.269 3.269 0 012.378-.9 3.133 3.133 0 013.1 3.153v18.71a8.889 8.889 0 001.086 4.419 7.573 7.573 0 002.92 2.972 7.924 7.924 0 003.954 1.028 8.709 8.709 0 004.161-1.034 7.9 7.9 0 003.1-2.972 8.421 8.421 0 001.163-4.419V60.266a3.452 3.452 0 01.594-2.067 2.573 2.573 0 011.68-1.034h.052a2.08 2.08 0 01.569-.052h.258q3.515-.31 3.515-3.153a2.909 2.909 0 01.7-1.887 2.366 2.366 0 011.938-.853 2.207 2.207 0 011.912.853 3.134 3.134 0 01.619 1.887zm28.272 6.409a17.367 17.367 0 015.014 6.435 19.845 19.845 0 011.809 8.451 19.619 19.619 0 01-2.274 9.381 17.417 17.417 0 01-6.28 6.745 17.635 17.635 0 01-18.038 0 17.226 17.226 0 01-6.254-6.745 20.695 20.695 0 010-18.762 17.227 17.227 0 016.254-6.745 16.779 16.779 0 019.019-2.481 17.993 17.993 0 014.755.62q3.463-.362 3.463-3.153a2.909 2.909 0 01.7-1.887 2.366 2.366 0 011.938-.853 2.207 2.207 0 011.912.853 3.134 3.134 0 01.62 1.887 9.372 9.372 0 01-.646 3.489 6.908 6.908 0 01-1.992 2.76zM124.714 87.66a9.838 9.838 0 005.582-1.654 11.263 11.263 0 003.876-4.471 14.827 14.827 0 000-12.56A11.263 11.263 0 00130.3 64.5a10.358 10.358 0 00-11.19-.026 10.92 10.92 0 00-3.825 4.471 15.2 15.2 0 000 12.611 10.92 10.92 0 003.825 4.471 9.914 9.914 0 005.604 1.633zm50.962-30.495a2.637 2.637 0 012.016.827 2.905 2.905 0 01.775 2.067v30.133a3.09 3.09 0 01-3.153 3.153 4.467 4.467 0 01-1.421-.233 2.01 2.01 0 01-1.008-.646l-18.968-24.085v22.07a2.853 2.853 0 01-.8 2.067 2.783 2.783 0 01-2.093.827 2.637 2.637 0 01-2.016-.827 2.905 2.905 0 01-.775-2.067V60.318a3.09 3.09 0 013.153-3.153 3.955 3.955 0 011.525.31 2.454 2.454 0 011.111.827l18.814 23.982V60.059a2.853 2.853 0 01.8-2.067 2.72 2.72 0 012.04-.827zm37.214 16.643a2.967 2.967 0 012.223.9 3.1 3.1 0 01.879 2.248v10.962a3.1 3.1 0 01-1.6 2.791 20.621 20.621 0 01-11.112 3.153 18.588 18.588 0 01-9.458-2.507 18.776 18.776 0 01-6.874-6.771 18.449 18.449 0 010-18.659 18.777 18.777 0 016.874-6.771 18.587 18.587 0 019.458-2.507 18.221 18.221 0 018.89 2.067 2.8 2.8 0 011.551 2.533 3.269 3.269 0 01-.853 2.248 2.7 2.7 0 01-2.093.956 4.241 4.241 0 01-1.706-.413 14.629 14.629 0 00-5.789-1.189 11.609 11.609 0 00-6.1 1.68 12.516 12.516 0 000 21.45 11.609 11.609 0 006.1 1.68 20.147 20.147 0 003.1-.258 18.013 18.013 0 002.894-.672V80.01h-4.858a3.1 3.1 0 01-2.248-.879 3.183 3.183 0 010-4.445 3.1 3.1 0 012.248-.879zm49.98-16.643a3.144 3.144 0 012.326.879 3.077 3.077 0 01.879 2.274v29.874a3.009 3.009 0 01-.93 2.248 3.269 3.269 0 01-2.378.9 3.077 3.077 0 01-2.222-.9 3.009 3.009 0 01-.93-2.248V78.149h-16.489v12.043a2.932 2.932 0 01-.982 2.248 3.255 3.255 0 01-2.274.9 3.116 3.116 0 01-2.3-.9 3.052 3.052 0 01-.9-2.248V60.318a3.009 3.009 0 01.93-2.248 3.27 3.27 0 012.378-.9 3.077 3.077 0 012.222.9 3.009 3.009 0 01.93 2.248v11.888h16.488V60.318a2.932 2.932 0 01.982-2.248 3.255 3.255 0 012.27-.905zm17.418 33.027a2.932 2.932 0 01-.982 2.248 3.255 3.255 0 01-2.274.9 3.116 3.116 0 01-2.3-.9 3.052 3.052 0 01-.9-2.248V60.318a3.009 3.009 0 01.93-2.248 3.269 3.269 0 012.378-.9 3.077 3.077 0 012.222.9 3.009 3.009 0 01.93 2.248zm28.22-2.791a3.052 3.052 0 012.248.9 2.874 2.874 0 01.9 2.093 2.743 2.743 0 01-.9 2.119 3.207 3.207 0 01-2.248.827h-17.314a3.09 3.09 0 01-3.153-3.153V60.318a3.09 3.09 0 013.153-3.153h17.315a3.151 3.151 0 012.248.853 2.884 2.884 0 01.9 2.2 2.7 2.7 0 01-.879 2.093 3.244 3.244 0 01-2.274.8H294.5V71.9h11.681a3.151 3.151 0 012.248.853 2.884 2.884 0 01.9 2.2 2.7 2.7 0 01-.879 2.093 3.244 3.244 0 01-2.274.8H294.5V87.4zm-9.665 13.542a4 4 0 01-2.429-.569 2.428 2.428 0 01-.724-2.016v-.982a2.343 2.343 0 01.775-2.016 4.03 4.03 0 012.378-.569 4.449 4.449 0 012.636.569 2.428 2.428 0 01.724 2.016v.982a2.334 2.334 0 01-.775 2.042 4.651 4.651 0 01-2.585.543zm7.908-48.688a4.2 4.2 0 01.62.827 1.6 1.6 0 01.155.724 1.182 1.182 0 01-.465.879 1.651 1.651 0 01-1.137.413 2.529 2.529 0 01-1.034-.258 17.4 17.4 0 01-1.6-.879L299.929 52l-3.36 1.964q-.827.465-1.5.8a2.659 2.659 0 01-1.137.336 1.651 1.651 0 01-1.137-.413 1.182 1.182 0 01-.465-.879 1.6 1.6 0 01.155-.724 4.2 4.2 0 01.62-.827l3.256-3.721a4.614 4.614 0 011.4-1.137 3.9 3.9 0 011.757-.362h.827a3.937 3.937 0 011.731.362 4.5 4.5 0 011.421 1.137zm36.542 4.858a2.843 2.843 0 012.171.879 3.184 3.184 0 01.827 2.274v18.71a15.578 15.578 0 01-1.809 7.6 13.051 13.051 0 01-5.065 5.169 15.868 15.868 0 01-14.911 0 13 13 0 01-5.091-5.169 15.578 15.578 0 01-1.809-7.6v-18.71a3.009 3.009 0 01.93-2.248 3.269 3.269 0 012.378-.9 3.133 3.133 0 013.1 3.153v18.71A8.889 8.889 0 00325.1 83.4a7.573 7.573 0 002.92 2.972 7.924 7.924 0 003.954 1.034 8.709 8.709 0 004.161-1.034 7.9 7.9 0 003.1-2.972 8.421 8.421 0 001.163-4.419V60.266a3.31 3.31 0 01.775-2.274 2.681 2.681 0 012.12-.879z" transform="translate(-.72 24.912)" fill="url(#a)"/></svg>