<svg xmlns="http://www.w3.org/2000/svg" width="218.764" height="104.048"><defs><linearGradient id="a" x1=".028" y1="1" x2=".902" y2=".067" gradientUnits="objectBoundingBox"><stop offset="0" stop-color="#c13232"/><stop offset="1" stop-color="#7a0000"/></linearGradient></defs><path data-name="Path 2954" d="M13.91-18.2a1.6 1.6 0 011.144.416 1.43 1.43 0 01.442 1.092 1.389 1.389 0 01-.442 1.079 1.632 1.632 0 01-1.144.4H9.828v13.627a1.475 1.475 0 01-.494 1.131A1.736 1.736 0 018.112 0a1.645 1.645 0 01-1.2-.455 1.514 1.514 0 01-.468-1.131V-15.21H2.366a1.6 1.6 0 01-1.144-.416 1.43 1.43 0 01-.442-1.092 1.38 1.38 0 01.455-1.066 1.613 1.613 0 011.131-.416zM32.5-2.548a1.531 1.531 0 01.533.548 1.386 1.386 0 01.195.7 1.342 1.342 0 01-.312.858 1.468 1.468 0 01-1.2.468 2.334 2.334 0 01-1.14-.286Q28.7-1.326 28.7-4.6a1.887 1.887 0 00-.611-1.482 2.549 2.549 0 00-1.755-.546h-4.858v5.044A1.7 1.7 0 0121.1-.442a1.25 1.25 0 01-1 .442 2.017 2.017 0 01-1.313-.455 1.4 1.4 0 01-.559-1.131v-15.028a1.535 1.535 0 01.455-1.131 1.535 1.535 0 011.131-.455H27.3a4.819 4.819 0 012.548.728 5.373 5.373 0 011.911 2 5.742 5.742 0 01.715 2.86 5.07 5.07 0 01-.7 2.535 5.594 5.594 0 01-1.82 1.963 3.984 3.984 0 011.794 3.068 4.371 4.371 0 01.078.806 8.282 8.282 0 00.208 1.157.857.857 0 00.466.535zm-5.33-6.76a1.294 1.294 0 00.91-.442 3.355 3.355 0 00.728-1.183 4.4 4.4 0 00.286-1.6 3.119 3.119 0 00-.286-1.339 2.743 2.743 0 00-.728-.975 1.421 1.421 0 00-.91-.364h-5.694v5.9zm21.71-8.918a1.43 1.43 0 011.092.442 1.6 1.6 0 01.416 1.144v9.412a7.837 7.837 0 01-.91 3.822 6.565 6.565 0 01-2.548 2.6 7.411 7.411 0 01-3.744.936 7.483 7.483 0 01-3.757-.936 6.541 6.541 0 01-2.561-2.6 7.837 7.837 0 01-.91-3.822v-9.412a1.514 1.514 0 01.468-1.131 1.645 1.645 0 011.2-.455 1.518 1.518 0 011.092.455 1.514 1.514 0 01.468 1.131v9.412a4.471 4.471 0 00.546 2.223A3.809 3.809 0 0041.2-3.51a3.986 3.986 0 001.989.52 4.381 4.381 0 002.093-.52 3.976 3.976 0 001.56-1.495 4.236 4.236 0 00.585-2.223v-9.412a1.665 1.665 0 01.39-1.144 1.349 1.349 0 011.063-.442zm18.3 1.56a1.736 1.736 0 01-.286.962l-5.43 7.774v6.344a1.559 1.559 0 01-.442 1.131A1.432 1.432 0 0159.956 0a1.5 1.5 0 01-1.1-.455 1.535 1.535 0 01-.456-1.131v-6.708l-5.412-7.176a2.045 2.045 0 01-.468-1.222 1.428 1.428 0 01.533-1.131 1.717 1.717 0 011.131-.455 1.574 1.574 0 011.274.728l4.576 6.318 4.29-6.266a1.571 1.571 0 011.3-.78 1.5 1.5 0 011.092.468 1.556 1.556 0 01.468 1.144zM79.82-2.99a1.535 1.535 0 011.131.455 1.446 1.446 0 01.455 1.053 1.38 1.38 0 01-.455 1.066A1.613 1.613 0 0179.82 0h-8.71a1.535 1.535 0 01-1.131-.455 1.535 1.535 0 01-.455-1.131v-15.028a1.535 1.535 0 01.455-1.131 1.535 1.535 0 011.131-.455h8.71a1.585 1.585 0 011.131.429 1.451 1.451 0 01.455 1.105 1.358 1.358 0 01-.442 1.053 1.632 1.632 0 01-1.144.4h-7.046v4.42h5.876a1.585 1.585 0 011.131.429 1.451 1.451 0 01.455 1.105 1.358 1.358 0 01-.442 1.059 1.632 1.632 0 01-1.144.4h-5.876v4.81zm-.884-17.68a2.113 2.113 0 01.312.416.8.8 0 01.078.364.6.6 0 01-.234.442.83.83 0 01-.572.208 1.272 1.272 0 01-.52-.13 8.755 8.755 0 01-.806-.442L75.5-20.8l-1.69.988q-.416.234-.754.4a1.338 1.338 0 01-.572.169.83.83 0 01-.572-.208.6.6 0 01-.234-.442.8.8 0 01.078-.364 2.113 2.113 0 01.312-.416l1.638-1.872a2.321 2.321 0 01.7-.572 1.96 1.96 0 01.894-.183h.416a1.981 1.981 0 01.871.182 2.261 2.261 0 01.715.572zm.39-2.132a1.337 1.337 0 01-.6-.156l-2.6-1.378a2.036 2.036 0 01-.715-.624 1.325 1.325 0 01-.247-.754 1.132 1.132 0 01.442-.91 1.451 1.451 0 01.936-.364 2.029 2.029 0 011.274.572l2.236 1.976a.968.968 0 01.364.7.854.854 0 01-.3.676 1.166 1.166 0 01-.79.264zM98.2-18.2a1.326 1.326 0 011.014.416 1.462 1.462 0 01.39 1.04v15.158a1.535 1.535 0 01-.455 1.131A1.535 1.535 0 0198.02 0a2.247 2.247 0 01-.715-.117 1.011 1.011 0 01-.505-.325l-9.544-12.116v11.1a1.435 1.435 0 01-.4 1.04A1.4 1.4 0 0185.8 0a1.326 1.326 0 01-1.014-.416 1.462 1.462 0 01-.39-1.04v-15.158a1.535 1.535 0 01.455-1.131 1.535 1.535 0 011.131-.455 1.99 1.99 0 01.767.156 1.234 1.234 0 01.559.416l9.464 12.064v-11.18a1.435 1.435 0 01.4-1.04A1.368 1.368 0 0198.2-18.2zm24.544 0a1.6 1.6 0 011.144.416 1.43 1.43 0 01.442 1.092 1.389 1.389 0 01-.442 1.079 1.632 1.632 0 01-1.144.4h-4.082v13.627a1.475 1.475 0 01-.494 1.131 1.736 1.736 0 01-1.22.455 1.645 1.645 0 01-1.2-.455 1.514 1.514 0 01-.468-1.131V-15.21h-4.08a1.6 1.6 0 01-1.144-.416 1.43 1.43 0 01-.442-1.092 1.38 1.38 0 01.455-1.066 1.613 1.613 0 011.131-.416zm17.5 0a1.582 1.582 0 011.17.442 1.548 1.548 0 01.442 1.144v15.028a1.514 1.514 0 01-.468 1.131 1.645 1.645 0 01-1.2.455 1.548 1.548 0 01-1.118-.455 1.514 1.514 0 01-.468-1.131v-6.058h-8.294v6.058a1.475 1.475 0 01-.494 1.131 1.637 1.637 0 01-1.14.455 1.567 1.567 0 01-1.157-.455 1.535 1.535 0 01-.455-1.131v-15.028a1.514 1.514 0 01.468-1.131 1.645 1.645 0 011.2-.455 1.548 1.548 0 011.118.455 1.514 1.514 0 01.468 1.131v5.98h8.294v-5.98a1.475 1.475 0 01.494-1.131 1.637 1.637 0 011.14-.455zM162.5-9.1a9.869 9.869 0 01-1.144 4.719A8.761 8.761 0 01158.2-.988 8.441 8.441 0 01153.66.26a8.441 8.441 0 01-4.537-1.248 8.666 8.666 0 01-3.146-3.393 9.96 9.96 0 01-1.131-4.719 9.96 9.96 0 011.131-4.719 8.666 8.666 0 013.146-3.393 8.441 8.441 0 014.537-1.248 8.441 8.441 0 014.537 1.248 8.761 8.761 0 013.159 3.393A9.869 9.869 0 01162.5-9.1zm-3.38 0a7.018 7.018 0 00-.7-3.159 5.666 5.666 0 00-1.95-2.249 4.949 4.949 0 00-2.808-.832 4.987 4.987 0 00-2.821.819 5.493 5.493 0 00-1.924 2.249 7.212 7.212 0 00-.689 3.172 7.212 7.212 0 00.689 3.172 5.493 5.493 0 001.924 2.249 4.987 4.987 0 002.821.819 4.949 4.949 0 002.808-.832 5.666 5.666 0 001.95-2.249 7.018 7.018 0 00.7-3.159zm-2.028-11.57a2.112 2.112 0 01.312.416.8.8 0 01.078.364.6.6 0 01-.234.442.83.83 0 01-.572.208 1.272 1.272 0 01-.52-.13 8.754 8.754 0 01-.806-.442l-1.69-.988-1.69.988q-.416.234-.754.4a1.338 1.338 0 01-.572.169.83.83 0 01-.572-.208.6.6 0 01-.234-.442.8.8 0 01.078-.364 2.113 2.113 0 01.312-.416l1.638-1.872a2.321 2.321 0 01.7-.572 1.961 1.961 0 01.884-.182h.416a1.981 1.981 0 01.871.182 2.261 2.261 0 01.715.572zm22.2 2.47a1.326 1.326 0 011.014.416 1.462 1.462 0 01.39 1.04v15.158a1.535 1.535 0 01-.455 1.131 1.535 1.535 0 01-1.127.455 2.247 2.247 0 01-.715-.117 1.011 1.011 0 01-.507-.325l-9.542-12.116v11.1a1.435 1.435 0 01-.4 1.04 1.4 1.4 0 01-1.056.418 1.326 1.326 0 01-1.014-.416 1.462 1.462 0 01-.39-1.04v-15.158a1.535 1.535 0 01.455-1.131 1.535 1.535 0 011.131-.455 1.99 1.99 0 01.767.156 1.234 1.234 0 01.559.416l9.464 12.064v-11.18a1.435 1.435 0 01.4-1.04 1.368 1.368 0 011.034-.416zm18.72 8.372a1.493 1.493 0 011.118.455 1.559 1.559 0 01.442 1.131v5.512a1.559 1.559 0 01-.806 1.4A10.373 10.373 0 01193.18.26 9.35 9.35 0 01188.422-1a9.445 9.445 0 01-3.458-3.406A9.023 9.023 0 01183.69-9.1a9.023 9.023 0 011.274-4.693 9.445 9.445 0 013.458-3.406 9.35 9.35 0 014.758-1.261 9.166 9.166 0 014.472 1.04 1.431 1.431 0 01.585.546 1.433 1.433 0 01.195.728 1.644 1.644 0 01-.432 1.131 1.357 1.357 0 01-1.053.481 2.133 2.133 0 01-.858-.208 7.359 7.359 0 00-2.912-.6 5.84 5.84 0 00-3.068.845 6.218 6.218 0 00-2.223 2.275 6.169 6.169 0 00-.819 3.12 6.169 6.169 0 00.819 3.12 6.218 6.218 0 002.223 2.275 5.84 5.84 0 003.068.845 10.135 10.135 0 001.56-.13 9.062 9.062 0 001.456-.338v-3.38h-2.444a1.559 1.559 0 01-1.131-.442 1.493 1.493 0 01-.455-1.118 1.493 1.493 0 01.455-1.118 1.559 1.559 0 011.131-.442zM13.91 20.2a1.6 1.6 0 011.144.416 1.43 1.43 0 01.442 1.092 1.389 1.389 0 01-.442 1.079 1.632 1.632 0 01-1.144.4H9.828v13.627a1.475 1.475 0 01-.494 1.131 1.736 1.736 0 01-1.222.455 1.645 1.645 0 01-1.2-.455 1.514 1.514 0 01-.468-1.131V23.19H2.366a1.6 1.6 0 01-1.144-.416 1.43 1.43 0 01-.442-1.092 1.38 1.38 0 01.455-1.066 1.613 1.613 0 011.131-.416zm17.5 0a1.582 1.582 0 011.17.442 1.548 1.548 0 01.442 1.144v15.028a1.514 1.514 0 01-.468 1.131 1.645 1.645 0 01-1.2.455 1.548 1.548 0 01-1.118-.455 1.514 1.514 0 01-.468-1.131v-6.058h-8.292v6.058a1.475 1.475 0 01-.494 1.131 1.637 1.637 0 01-1.144.455 1.567 1.567 0 01-1.157-.455 1.535 1.535 0 01-.455-1.131V21.786a1.514 1.514 0 01.468-1.131 1.645 1.645 0 011.2-.455 1.548 1.548 0 011.118.455 1.514 1.514 0 01.468 1.131v5.98h8.29v-5.98a1.475 1.475 0 01.494-1.131 1.637 1.637 0 011.144-.455zm22.93-1.612a4.263 4.263 0 01-.741 2.5 3.87 3.87 0 01-2.249 1.482v8.606a7.837 7.837 0 01-.91 3.822 6.565 6.565 0 01-2.548 2.6 7.982 7.982 0 01-7.5 0 6.541 6.541 0 01-2.561-2.6 7.837 7.837 0 01-.91-3.822V21.76a1.514 1.514 0 01.468-1.131 1.645 1.645 0 011.2-.455 1.576 1.576 0 011.56 1.586v9.412a4.471 4.471 0 00.541 2.228 3.809 3.809 0 001.469 1.495 3.986 3.986 0 001.989.52 4.381 4.381 0 002.093-.52A3.976 3.976 0 0047.8 33.4a4.236 4.236 0 00.585-2.223V21.76a1.736 1.736 0 01.3-1.04 1.294 1.294 0 01.845-.52h.026a1.047 1.047 0 01.286-.026h.13q1.768-.156 1.768-1.586a1.464 1.464 0 01.351-.949 1.19 1.19 0 01.975-.429 1.11 1.11 0 01.962.429 1.577 1.577 0 01.312.949zm14.222 3.224a8.736 8.736 0 012.522 3.237 9.983 9.983 0 01.91 4.251 9.869 9.869 0 01-1.144 4.719 8.761 8.761 0 01-3.159 3.393 8.871 8.871 0 01-9.074 0 8.666 8.666 0 01-3.146-3.393 10.41 10.41 0 010-9.438 8.666 8.666 0 013.146-3.393 8.441 8.441 0 014.537-1.248 9.051 9.051 0 012.392.312q1.742-.182 1.742-1.586a1.464 1.464 0 01.351-.949 1.19 1.19 0 01.975-.429 1.11 1.11 0 01.962.429 1.577 1.577 0 01.312.949 4.714 4.714 0 01-.325 1.755 3.475 3.475 0 01-1.001 1.391zM63.154 35.54a4.949 4.949 0 002.808-.832 5.666 5.666 0 001.95-2.249 7.459 7.459 0 000-6.318 5.666 5.666 0 00-1.95-2.249 5.211 5.211 0 00-5.629-.013 5.493 5.493 0 00-1.924 2.249 7.646 7.646 0 000 6.344 5.493 5.493 0 001.924 2.249 4.987 4.987 0 002.821.819zM88.79 20.2a1.326 1.326 0 011.014.416 1.462 1.462 0 01.39 1.04v15.158a1.555 1.555 0 01-1.586 1.586 2.247 2.247 0 01-.715-.117 1.011 1.011 0 01-.507-.325l-9.542-12.116v11.1a1.435 1.435 0 01-.4 1.04 1.4 1.4 0 01-1.053.416 1.326 1.326 0 01-1.014-.416 1.462 1.462 0 01-.39-1.04V21.786A1.555 1.555 0 0176.57 20.2a1.99 1.99 0 01.767.156 1.234 1.234 0 01.559.416l9.464 12.064v-11.18a1.435 1.435 0 01.4-1.04 1.368 1.368 0 011.03-.416zm18.72 8.372a1.493 1.493 0 011.118.455 1.559 1.559 0 01.442 1.131v5.512a1.559 1.559 0 01-.806 1.4 10.373 10.373 0 01-5.59 1.586 9.35 9.35 0 01-4.758-1.256 9.445 9.445 0 01-3.458-3.406 9.281 9.281 0 010-9.386 9.445 9.445 0 013.458-3.408 9.35 9.35 0 014.758-1.261 9.166 9.166 0 014.472 1.04 1.41 1.41 0 01.78 1.274 1.644 1.644 0 01-.429 1.131 1.357 1.357 0 01-1.053.481 2.133 2.133 0 01-.858-.208 7.359 7.359 0 00-2.912-.6 5.84 5.84 0 00-3.068.845 6.3 6.3 0 000 10.79 5.84 5.84 0 003.068.845 10.135 10.135 0 001.56-.13 9.061 9.061 0 001.456-.338v-3.38h-2.444a1.559 1.559 0 01-1.131-.442 1.6 1.6 0 010-2.236 1.559 1.559 0 011.131-.442zm25.142-8.372a1.582 1.582 0 011.17.442 1.548 1.548 0 01.442 1.144v15.028a1.514 1.514 0 01-.468 1.131 1.645 1.645 0 01-1.2.455 1.548 1.548 0 01-1.118-.455 1.514 1.514 0 01-.468-1.131v-6.058h-8.29v6.058a1.475 1.475 0 01-.494 1.131 1.637 1.637 0 01-1.144.455 1.567 1.567 0 01-1.157-.455 1.535 1.535 0 01-.455-1.131V21.786a1.514 1.514 0 01.468-1.131 1.645 1.645 0 011.2-.455 1.548 1.548 0 011.118.455 1.514 1.514 0 01.468 1.131v5.98h8.294v-5.98a1.475 1.475 0 01.494-1.131 1.637 1.637 0 011.14-.455zm8.762 16.614a1.475 1.475 0 01-.494 1.131 1.637 1.637 0 01-1.144.455 1.567 1.567 0 01-1.157-.455 1.535 1.535 0 01-.455-1.131V21.786a1.514 1.514 0 01.468-1.131 1.645 1.645 0 011.2-.455 1.548 1.548 0 011.118.455 1.514 1.514 0 01.468 1.131zm14.2-1.4a1.535 1.535 0 011.131.455 1.446 1.446 0 01.455 1.053 1.38 1.38 0 01-.455 1.066 1.613 1.613 0 01-1.131.416H146.9a1.555 1.555 0 01-1.586-1.586V21.786A1.555 1.555 0 01146.9 20.2h8.71a1.585 1.585 0 011.131.429 1.451 1.451 0 01.455 1.105 1.358 1.358 0 01-.442 1.053 1.632 1.632 0 01-1.144.4h-7.046v4.42h5.876a1.585 1.585 0 011.131.429 1.451 1.451 0 01.455 1.1 1.358 1.358 0 01-.442 1.053 1.632 1.632 0 01-1.144.4h-5.876v4.81zm-4.862 6.812a2.01 2.01 0 01-1.222-.286 1.222 1.222 0 01-.364-1.014v-.494a1.179 1.179 0 01.39-1.014 2.027 2.027 0 011.2-.286 2.238 2.238 0 011.326.286 1.222 1.222 0 01.364 1.014v.494a1.174 1.174 0 01-.39 1.027 2.34 2.34 0 01-1.308.269zm3.978-24.492a2.113 2.113 0 01.312.416.8.8 0 01.078.364.6.6 0 01-.234.442.83.83 0 01-.572.208 1.273 1.273 0 01-.52-.13 8.756 8.756 0 01-.806-.442l-1.69-.988-1.69.988q-.416.234-.754.4a1.338 1.338 0 01-.572.169.83.83 0 01-.572-.208.6.6 0 01-.234-.442.8.8 0 01.078-.364 2.112 2.112 0 01.312-.416l1.638-1.872a2.321 2.321 0 01.7-.572 1.96 1.96 0 01.884-.182h.416a1.981 1.981 0 01.871.182 2.261 2.261 0 01.715.572zm18.382 2.444a1.43 1.43 0 011.092.442 1.6 1.6 0 01.416 1.144v9.412a7.836 7.836 0 01-.91 3.822 6.565 6.565 0 01-2.548 2.6 7.982 7.982 0 01-7.5 0 6.541 6.541 0 01-2.561-2.6 7.836 7.836 0 01-.91-3.822V21.76a1.514 1.514 0 01.468-1.131 1.645 1.645 0 011.2-.455 1.576 1.576 0 011.56 1.586v9.412a4.471 4.471 0 00.546 2.223 3.809 3.809 0 001.469 1.495 3.986 3.986 0 001.989.52 4.381 4.381 0 002.093-.52 3.976 3.976 0 001.56-1.495 4.236 4.236 0 00.585-2.223V21.76a1.665 1.665 0 01.39-1.144 1.349 1.349 0 011.057-.442zM13.91 58.6a1.6 1.6 0 011.144.416 1.43 1.43 0 01.442 1.092 1.389 1.389 0 01-.442 1.079 1.632 1.632 0 01-1.144.4H9.828v13.627a1.475 1.475 0 01-.494 1.131 1.736 1.736 0 01-1.222.455 1.645 1.645 0 01-1.2-.455 1.514 1.514 0 01-.468-1.131V61.59H2.366a1.6 1.6 0 01-1.144-.416 1.43 1.43 0 01-.442-1.092 1.38 1.38 0 01.455-1.066 1.613 1.613 0 011.131-.416zm17.5 0a1.582 1.582 0 011.17.442 1.548 1.548 0 01.442 1.144v15.028a1.514 1.514 0 01-.468 1.131 1.645 1.645 0 01-1.2.455 1.548 1.548 0 01-1.118-.455 1.514 1.514 0 01-.468-1.131v-6.058h-8.292v6.058a1.475 1.475 0 01-.494 1.131 1.637 1.637 0 01-1.144.455 1.567 1.567 0 01-1.157-.455 1.535 1.535 0 01-.455-1.131V60.186a1.514 1.514 0 01.468-1.131 1.645 1.645 0 011.2-.455 1.548 1.548 0 011.118.455 1.514 1.514 0 01.468 1.131v5.98h8.29v-5.98a1.475 1.475 0 01.494-1.131 1.637 1.637 0 011.144-.455zm15.806 15.21a1.535 1.535 0 011.131.455 1.446 1.446 0 01.455 1.053 1.38 1.38 0 01-.455 1.066 1.613 1.613 0 01-1.131.416h-8.71a1.555 1.555 0 01-1.586-1.586V60.186a1.555 1.555 0 011.586-1.586h8.71a1.585 1.585 0 011.131.429 1.451 1.451 0 01.455 1.105 1.358 1.358 0 01-.442 1.053 1.632 1.632 0 01-1.144.4H40.17v4.42h5.876a1.585 1.585 0 011.131.429 1.451 1.451 0 01.455 1.105 1.358 1.358 0 01-.442 1.059 1.632 1.632 0 01-1.144.4H40.17v4.81zm22.776-7.1a5.234 5.234 0 012.249 1.664 4.559 4.559 0 01.871 2.886q0 3.094-1.768 4.316a7.223 7.223 0 01-4.212 1.224h-6.474a1.555 1.555 0 01-1.586-1.586V60.186a1.555 1.555 0 011.586-1.586h6.552q4.94 0 4.94 4.628a3.826 3.826 0 01-.559 2.067 3.869 3.869 0 01-1.599 1.417zM68.77 63.8a2.172 2.172 0 00-.533-1.6 2.021 2.021 0 00-1.495-.533h-4.29v4.056h4.368a1.99 1.99 0 001.365-.52 1.784 1.784 0 00.585-1.403zm-1.638 10.01a2.674 2.674 0 001.911-.65 2.486 2.486 0 00.689-1.9 2.131 2.131 0 00-.806-2 3.877 3.877 0 00-1.976-.468h-4.5v5.018zm23.244.962a1.75 1.75 0 01.13.624 1.472 1.472 0 01-.442 1.1 1.415 1.415 0 01-1.014.429 1.364 1.364 0 01-.845-.286 1.859 1.859 0 01-.585-.78l-1.352-3.146H78.52l-1.352 3.177a1.6 1.6 0 01-.559.767 1.324 1.324 0 01-2.2-1.079 1.72 1.72 0 01.078-.494l6.474-15.548a1.725 1.725 0 01.624-.806 1.362 1.362 0 01.936-.234 1.523 1.523 0 01.871.273 1.54 1.54 0 01.585.767zm-10.582-5.044h5.2l-2.626-6.084zm25.532-10.244a1.392 1.392 0 01.806 1.326 1.76 1.76 0 01-.39 1.066 1.284 1.284 0 01-1.066.546 1.875 1.875 0 01-.884-.234 6.4 6.4 0 00-2.756-.6 6.321 6.321 0 00-3.172.767 5.2 5.2 0 00-2.08 2.158 6.767 6.767 0 00-.728 3.185 6.16 6.16 0 001.651 4.654 6.682 6.682 0 007.085.988 2.089 2.089 0 01.832-.208 1.428 1.428 0 011.144.572 1.687 1.687 0 01.39 1.066 1.41 1.41 0 01-.208.754 1.353 1.353 0 01-.6.52 9.521 9.521 0 01-4.316 1.014 10.214 10.214 0 01-4.68-1.079A8.3 8.3 0 0192.95 72.8a9.669 9.669 0 01-1.274-5.1 9.383 9.383 0 011.209-4.758 8.583 8.583 0 013.341-3.289 9.745 9.745 0 014.81-1.183 9.259 9.259 0 014.29 1.014zm16.744-.884a1.582 1.582 0 011.17.442 1.548 1.548 0 01.442 1.144v15.028a1.514 1.514 0 01-.468 1.131 1.645 1.645 0 01-1.2.455 1.548 1.548 0 01-1.118-.455 1.514 1.514 0 01-.468-1.131v-6.058h-8.294v6.058a1.475 1.475 0 01-.494 1.131 1.637 1.637 0 01-1.144.455 1.567 1.567 0 01-1.157-.455 1.535 1.535 0 01-.455-1.131V60.186a1.514 1.514 0 01.468-1.131 1.645 1.645 0 011.2-.455 1.548 1.548 0 011.118.455 1.514 1.514 0 01.468 1.131v5.98h8.294v-5.98a1.475 1.475 0 01.494-1.131 1.637 1.637 0 011.144-.455zm18.642 18.46a10.868 10.868 0 01-3.328-.468 7.7 7.7 0 01-2.73-1.586 1.826 1.826 0 01-.7-1.378 1.466 1.466 0 01.442-1.053 1.432 1.432 0 011.066-.455 1.377 1.377 0 01.884.312 7.654 7.654 0 002.028 1.248 6.361 6.361 0 002.34.39 4.682 4.682 0 002.509-.65 1.883 1.883 0 001.053-1.612 2.067 2.067 0 00-1.04-1.833 8.814 8.814 0 00-3.3-1q-5.694-.832-5.694-5.3a4.791 4.791 0 01.858-2.847 5.418 5.418 0 012.34-1.846 8.279 8.279 0 013.3-.637 9.448 9.448 0 013.081.494 7.471 7.471 0 012.4 1.3 1.735 1.735 0 01.754 1.378 1.466 1.466 0 01-.442 1.053 1.4 1.4 0 01-1.04.455 1.141 1.141 0 01-.7-.234 6.867 6.867 0 00-1.885-1 6.248 6.248 0 00-2.171-.455 4.473 4.473 0 00-2.535.611 1.941 1.941 0 00.026 3.289 8.756 8.756 0 002.9.936 15.037 15.037 0 013.575 1 4.562 4.562 0 012.015 1.664 5.112 5.112 0 01.676 2.795 4.668 4.668 0 01-.923 2.873 5.934 5.934 0 01-2.457 1.9 8.233 8.233 0 01-3.302.656zm22.594-18.486a1.43 1.43 0 011.092.442 1.6 1.6 0 01.416 1.144v9.412a7.836 7.836 0 01-.91 3.822 6.565 6.565 0 01-2.548 2.6 7.982 7.982 0 01-7.5 0 6.541 6.541 0 01-2.561-2.6 7.836 7.836 0 01-.91-3.822V60.16a1.514 1.514 0 01.468-1.131 1.645 1.645 0 011.2-.455 1.576 1.576 0 011.56 1.586v9.412a4.471 4.471 0 00.546 2.223 3.809 3.809 0 001.469 1.495 3.986 3.986 0 001.989.52 4.381 4.381 0 002.093-.52 3.976 3.976 0 001.56-1.495 4.236 4.236 0 00.585-2.223V60.16a1.665 1.665 0 01.39-1.144 1.349 1.349 0 011.061-.442zm8.658 16.64a1.475 1.475 0 01-.494 1.131 1.637 1.637 0 01-1.144.455 1.567 1.567 0 01-1.157-.455 1.535 1.535 0 01-.455-1.131V60.186a1.514 1.514 0 01.468-1.131 1.645 1.645 0 011.2-.455 1.548 1.548 0 011.118.455 1.514 1.514 0 01.468 1.131zm15.86-16.614a1.6 1.6 0 011.144.416 1.43 1.43 0 01.442 1.092 1.389 1.389 0 01-.442 1.079 1.632 1.632 0 01-1.144.4h-4.082v13.627a1.475 1.475 0 01-.494 1.131 1.736 1.736 0 01-1.222.455 1.645 1.645 0 01-1.2-.455 1.514 1.514 0 01-.468-1.131V61.59h-4.078a1.6 1.6 0 01-1.144-.416 1.43 1.43 0 01-.442-1.092 1.38 1.38 0 01.455-1.066 1.613 1.613 0 011.131-.416zm14.612 15.21a1.535 1.535 0 011.131.455 1.446 1.446 0 01.455 1.053 1.38 1.38 0 01-.455 1.066 1.613 1.613 0 01-1.131.416h-8.71a1.555 1.555 0 01-1.586-1.586V60.186a1.555 1.555 0 011.586-1.586h8.71a1.585 1.585 0 011.131.429 1.451 1.451 0 01.455 1.105 1.358 1.358 0 01-.442 1.053 1.632 1.632 0 01-1.144.4h-7.046v4.42h5.876a1.585 1.585 0 011.131.429 1.451 1.451 0 01.455 1.105 1.358 1.358 0 01-.442 1.053 1.632 1.632 0 01-1.144.4h-5.876v4.81zm10.426 3.25a10.868 10.868 0 01-3.328-.468 7.7 7.7 0 01-2.73-1.586 1.826 1.826 0 01-.7-1.378 1.466 1.466 0 01.442-1.053 1.432 1.432 0 011.066-.455 1.377 1.377 0 01.884.312 7.654 7.654 0 002.028 1.248 6.361 6.361 0 002.34.39 4.682 4.682 0 002.509-.65 1.883 1.883 0 001.053-1.612 2.067 2.067 0 00-1.04-1.833 8.814 8.814 0 00-3.3-1q-5.694-.832-5.694-5.3a4.791 4.791 0 01.858-2.847 5.418 5.418 0 012.34-1.846 8.279 8.279 0 013.3-.637 9.448 9.448 0 013.081.494 7.471 7.471 0 012.4 1.3 1.735 1.735 0 01.754 1.378 1.466 1.466 0 01-.442 1.053 1.4 1.4 0 01-1.04.455 1.141 1.141 0 01-.7-.234 6.867 6.867 0 00-1.885-1 6.248 6.248 0 00-2.171-.455 4.473 4.473 0 00-2.535.611 1.941 1.941 0 00.026 3.289 8.756 8.756 0 002.9.936 15.037 15.037 0 013.575 1 4.562 4.562 0 012.015 1.664 5.112 5.112 0 01.676 2.795 4.668 4.668 0 01-.923 2.873 5.934 5.934 0 01-2.457 1.9 8.233 8.233 0 01-3.302.656z" transform="translate(-.78 26.988)" fill="url(#a)"/></svg>