<svg xmlns="http://www.w3.org/2000/svg" width="418.992" height="114.576"><defs><linearGradient id="a" x1=".027" y1="1" x2=".957" y2=".201" gradientUnits="objectBoundingBox"><stop offset="0" stop-color="#7a0000"/><stop offset="1" stop-color="#c13232"/></linearGradient></defs><path data-name="Path 2946" d="M25.68 14.4a2.957 2.957 0 012.112.768 2.64 2.64 0 01.816 2.016 2.564 2.564 0 01-.816 1.992 3.013 3.013 0 01-2.112.744h-7.536v25.152a2.723 2.723 0 01-.912 2.088 3.2 3.2 0 01-2.256.84 3.036 3.036 0 01-2.208-.84 2.794 2.794 0 01-.864-2.088V19.92H4.368a2.957 2.957 0 01-2.112-.768 2.64 2.64 0 01-.816-2.016 2.547 2.547 0 01.84-1.968 2.978 2.978 0 012.088-.768zm32.3 0a2.92 2.92 0 012.16.816 2.858 2.858 0 01.816 2.112v27.744a2.794 2.794 0 01-.856 2.088 3.036 3.036 0 01-2.208.84 2.857 2.857 0 01-2.064-.84 2.794 2.794 0 01-.864-2.088V33.888H39.648v11.184a2.723 2.723 0 01-.912 2.088 3.023 3.023 0 01-2.112.84 2.894 2.894 0 01-2.136-.84 2.835 2.835 0 01-.84-2.088V17.328a2.794 2.794 0 01.864-2.088 3.036 3.036 0 012.208-.84 2.857 2.857 0 012.064.84 2.794 2.794 0 01.864 2.088v11.04H54.96v-11.04a2.723 2.723 0 01.912-2.088 3.023 3.023 0 012.112-.84zm16.18 30.672a2.723 2.723 0 01-.912 2.088 3.023 3.023 0 01-2.112.84A2.894 2.894 0 0169 47.16a2.835 2.835 0 01-.84-2.088V17.328a2.794 2.794 0 01.864-2.088 3.036 3.036 0 012.208-.84 2.857 2.857 0 012.064.84 2.794 2.794 0 01.864 2.088zm26.208-2.592a2.835 2.835 0 012.088.84 2.669 2.669 0 01.84 1.944 2.547 2.547 0 01-.84 1.968 2.978 2.978 0 01-2.088.768h-16.08a2.87 2.87 0 01-2.928-2.928V17.328a2.87 2.87 0 012.928-2.928h16.08a2.926 2.926 0 012.088.792 2.678 2.678 0 01.84 2.04 2.507 2.507 0 01-.816 1.944 3.013 3.013 0 01-2.112.744H87.36v8.16h10.848a2.926 2.926 0 012.088.792 2.678 2.678 0 01.84 2.04 2.507 2.507 0 01-.816 1.944 3.013 3.013 0 01-2.112.744H87.36v8.88zM98.736 9.84a3.9 3.9 0 01.576.768 1.485 1.485 0 01.144.672 1.1 1.1 0 01-.432.816 1.533 1.533 0 01-1.056.384 2.349 2.349 0 01-.96-.24 16.164 16.164 0 01-1.488-.816L92.4 9.6l-3.12 1.824q-.768.432-1.392.744a2.47 2.47 0 01-1.056.312 1.533 1.533 0 01-1.056-.384 1.1 1.1 0 01-.432-.816 1.485 1.485 0 01.144-.672 3.9 3.9 0 01.576-.768l3.024-3.456a4.285 4.285 0 011.3-1.056 3.619 3.619 0 011.632-.336h.768a3.657 3.657 0 011.608.336 4.174 4.174 0 011.32 1.056zm2.3-1.008a2.152 2.152 0 01-1.464-.48 1.576 1.576 0 01-.548-1.252 1.787 1.787 0 01.672-1.3l4.128-3.648a3.747 3.747 0 012.352-1.052 2.678 2.678 0 011.728.672 2.09 2.09 0 01.816 1.68 2.558 2.558 0 01-.456 1.416A3.29 3.29 0 01106.944 6l-4.8 2.544a2.1 2.1 0 01-1.104.288zM130.9 14.4a2.957 2.957 0 012.112.768 2.64 2.64 0 01.816 2.016 2.564 2.564 0 01-.816 1.992 3.013 3.013 0 01-2.112.744h-7.54v25.152a2.723 2.723 0 01-.912 2.088 3.2 3.2 0 01-2.256.84 3.036 3.036 0 01-2.208-.84 2.794 2.794 0 01-.864-2.088V19.92h-7.536a2.957 2.957 0 01-2.112-.768 2.64 2.64 0 01-.816-2.016 2.547 2.547 0 01.84-1.968 2.978 2.978 0 012.088-.768zm47.136 28.608a3.425 3.425 0 01.48.936 3.152 3.152 0 01.192 1.032 2.756 2.756 0 01-.984 2.16 3.351 3.351 0 01-2.28.864 2.651 2.651 0 01-1.2-.288 2.622 2.622 0 01-.96-.816l-10.42-13.728-4.56 4.368v7.536a2.814 2.814 0 01-.84 2.112 3 3 0 01-2.184.816 2.894 2.894 0 01-2.136-.84 2.835 2.835 0 01-.84-2.088V17.328a2.794 2.794 0 01.864-2.088 3.036 3.036 0 012.208-.84 2.8 2.8 0 012.928 2.928v13.056l15.36-15.12a3.3 3.3 0 012.352-1.1 2.362 2.362 0 011.872.912 2.943 2.943 0 01.768 1.92 2.614 2.614 0 01-.864 1.872l-10.464 9.984zm24.72-.528a2.835 2.835 0 012.088.84 2.669 2.669 0 01.84 1.944 2.547 2.547 0 01-.84 1.968 2.978 2.978 0 01-2.088.768h-16.08a2.87 2.87 0 01-2.928-2.928V17.328a2.87 2.87 0 012.928-2.928h16.08a2.926 2.926 0 012.088.792 2.678 2.678 0 01.84 2.04 2.507 2.507 0 01-.816 1.944 3.013 3.013 0 01-2.112.744h-13.012v8.16h10.848a2.926 2.926 0 012.088.792 2.678 2.678 0 01.84 2.04 2.507 2.507 0 01-.816 1.944 3.013 3.013 0 01-2.112.744h-10.848v8.88zM201.12 9.84a3.9 3.9 0 01.576.768 1.485 1.485 0 01.144.672 1.1 1.1 0 01-.432.816 1.533 1.533 0 01-1.056.384 2.349 2.349 0 01-.96-.24 16.163 16.163 0 01-1.488-.816l-3.12-1.824-3.12 1.824q-.768.432-1.392.744a2.47 2.47 0 01-1.056.312 1.533 1.533 0 01-1.056-.384 1.1 1.1 0 01-.432-.816 1.485 1.485 0 01.144-.672 3.9 3.9 0 01.576-.768l3.024-3.456a4.285 4.285 0 011.3-1.056 3.619 3.619 0 011.632-.336h.768a3.657 3.657 0 011.608.336 4.174 4.174 0 011.32 1.056zm2.3-1.008a2.152 2.152 0 01-1.464-.48 1.576 1.576 0 01-.552-1.248 1.787 1.787 0 01.672-1.3l4.128-3.648A3.747 3.747 0 01208.56 1.1a2.678 2.678 0 011.728.672 2.09 2.09 0 01.816 1.68 2.558 2.558 0 01-.456 1.416A3.29 3.29 0 01209.328 6l-4.8 2.544a2.1 2.1 0 01-1.104.288zm45.748 5.468a2.986 2.986 0 012.088.816 2.578 2.578 0 01.888 1.968 3.284 3.284 0 01-.288 1.3L240 46.128a3.212 3.212 0 01-1.2 1.392 2.753 2.753 0 01-3.144-.024 2.969 2.969 0 01-1.08-1.32l-11.856-27.84a2.672 2.672 0 01-.24-1.2 2.574 2.574 0 01.96-2.088 3.074 3.074 0 011.968-.792 2.72 2.72 0 011.536.48 3.031 3.031 0 011.1 1.392l9.648 22.7 8.832-22.7a3.066 3.066 0 011.1-1.344 2.72 2.72 0 011.544-.484zm34.368 29.952a3.231 3.231 0 01.24 1.152 2.718 2.718 0 01-.816 2.04 2.612 2.612 0 01-1.872.792 2.517 2.517 0 01-1.56-.528 3.431 3.431 0 01-1.08-1.44l-2.5-5.808h-14.3l-2.5 5.856a2.953 2.953 0 01-1.032 1.416 2.443 2.443 0 01-4.056-1.992 3.176 3.176 0 01.144-.912l11.952-28.7a3.186 3.186 0 011.152-1.488 2.515 2.515 0 011.728-.432 2.812 2.812 0 011.608.5 2.843 2.843 0 011.08 1.416zM264 34.944h9.6l-4.848-11.232zm4.944-22.56a2.469 2.469 0 01-1.1-.288l-4.8-2.544A3.759 3.759 0 01261.72 8.4a2.447 2.447 0 01-.456-1.392 2.09 2.09 0 01.816-1.68 2.678 2.678 0 011.728-.672 3.747 3.747 0 012.352 1.056l4.128 3.648a1.787 1.787 0 01.672 1.3 1.576 1.576 0 01-.552 1.248 2.152 2.152 0 01-1.464.476zm46.224 2.016a8.29 8.29 0 014.656 1.464 10.835 10.835 0 013.552 3.936 11.472 11.472 0 010 10.776 10.783 10.783 0 01-3.552 3.96A8.29 8.29 0 01315.168 36h-8.352v9.072a2.957 2.957 0 01-.768 2.112 2.64 2.64 0 01-2.016.816 2.547 2.547 0 01-1.968-.84 2.978 2.978 0 01-.768-2.088V17.328a2.87 2.87 0 012.928-2.928zm0 16.128a2.752 2.752 0 001.8-.768 5.661 5.661 0 001.44-1.992 6.249 6.249 0 000-5.136 5.423 5.423 0 00-1.44-1.968 2.8 2.8 0 00-1.8-.744h-8.352v10.608zM354.576 14.4a2.92 2.92 0 012.16.816 2.858 2.858 0 01.816 2.112v27.744a2.794 2.794 0 01-.864 2.088 3.036 3.036 0 01-2.208.84 2.857 2.857 0 01-2.064-.84 2.794 2.794 0 01-.864-2.088V33.888H336.24v11.184a2.723 2.723 0 01-.912 2.088 3.023 3.023 0 01-2.112.84 2.894 2.894 0 01-2.136-.84 2.835 2.835 0 01-.84-2.088V17.328a2.794 2.794 0 01.864-2.088 3.036 3.036 0 012.208-.84 2.857 2.857 0 012.064.84 2.794 2.794 0 01.864 2.088v11.04h15.312v-11.04a2.723 2.723 0 01.912-2.088 3.023 3.023 0 012.112-.84zM391.1 44.256a3.231 3.231 0 01.24 1.152 2.718 2.718 0 01-.816 2.04 2.612 2.612 0 01-1.872.792 2.517 2.517 0 01-1.56-.528 3.431 3.431 0 01-1.08-1.44l-2.5-5.808h-14.3l-2.5 5.856a2.953 2.953 0 01-1.032 1.416 2.443 2.443 0 01-4.056-1.992 3.176 3.176 0 01.144-.912l11.952-28.7a3.186 3.186 0 011.152-1.488 2.515 2.515 0 011.728-.432 2.812 2.812 0 011.608.5 2.843 2.843 0 011.08 1.416zm-19.536-9.312h9.6l-4.844-11.232zm5.088-22.368a2.152 2.152 0 01-1.464-.48 1.576 1.576 0 01-.552-1.248 1.787 1.787 0 01.672-1.3L379.44 5.9a3.747 3.747 0 012.352-1.056 2.678 2.678 0 011.728.672 2.09 2.09 0 01.816 1.68 2.558 2.558 0 01-.456 1.416 3.289 3.289 0 01-1.32 1.128l-4.8 2.544a2.1 2.1 0 01-1.104.292zM417.5 14.4a2.957 2.957 0 012.112.768 2.64 2.64 0 01.816 2.016 2.564 2.564 0 01-.816 1.992 3.013 3.013 0 01-2.112.744h-7.536v25.152a2.723 2.723 0 01-.912 2.088 3.2 3.2 0 01-2.252.84 3.036 3.036 0 01-2.208-.84 2.794 2.794 0 01-.864-2.088V19.92h-7.536a2.957 2.957 0 01-2.112-.768 2.64 2.64 0 01-.816-2.016 2.547 2.547 0 01.84-1.968 2.978 2.978 0 012.088-.768zM25.68 81.6a2.957 2.957 0 012.112.768 2.64 2.64 0 01.816 2.016 2.564 2.564 0 01-.816 1.992 3.013 3.013 0 01-2.112.744h-7.536v25.152a2.723 2.723 0 01-.912 2.088 3.2 3.2 0 01-2.256.84 3.036 3.036 0 01-2.208-.84 2.794 2.794 0 01-.864-2.088V87.12H4.368a2.957 2.957 0 01-2.112-.768 2.64 2.64 0 01-.816-2.016 2.547 2.547 0 01.84-1.968 2.978 2.978 0 012.088-.768zM60 110.5a2.827 2.827 0 01.984 1.008 2.559 2.559 0 01.36 1.3 2.478 2.478 0 01-.576 1.584 2.711 2.711 0 01-2.208.864 4.31 4.31 0 01-2.112-.528q-3.456-1.968-3.456-8.016a3.484 3.484 0 00-1.128-2.736 4.707 4.707 0 00-3.24-1.008h-8.976v9.312a3.141 3.141 0 01-.7 2.112 2.308 2.308 0 01-1.848.816 3.723 3.723 0 01-2.424-.84 2.59 2.59 0 01-1.032-2.088V84.528a2.87 2.87 0 012.932-2.928H50.4a8.9 8.9 0 014.7 1.344 9.92 9.92 0 013.528 3.7 10.6 10.6 0 011.32 5.28 9.36 9.36 0 01-1.3 4.68 10.327 10.327 0 01-3.36 3.624 7.354 7.354 0 013.312 5.664 8.071 8.071 0 01.144 1.488 15.289 15.289 0 00.384 2.136 1.583 1.583 0 00.872.984zm-9.84-12.48a2.39 2.39 0 001.68-.816 6.194 6.194 0 001.344-2.184 8.128 8.128 0 00.528-2.952 5.758 5.758 0 00-.528-2.472 5.064 5.064 0 00-1.344-1.8 2.623 2.623 0 00-1.68-.672H39.648v10.9zm22.464 14.256a2.723 2.723 0 01-.912 2.088 3.023 3.023 0 01-2.112.84 2.894 2.894 0 01-2.136-.84 2.835 2.835 0 01-.84-2.088V84.528a2.794 2.794 0 01.864-2.088 3.036 3.036 0 012.212-.84 2.857 2.857 0 012.064.84 2.794 2.794 0 01.864 2.088zm26.208-2.592a2.835 2.835 0 012.088.84 2.669 2.669 0 01.84 1.944 2.547 2.547 0 01-.84 1.968 2.978 2.978 0 01-2.088.768h-16.08a2.87 2.87 0 01-2.928-2.928V84.528a2.87 2.87 0 012.928-2.928h16.08a2.926 2.926 0 012.088.792 2.678 2.678 0 01.84 2.04 2.507 2.507 0 01-.816 1.944 3.013 3.013 0 01-2.112.744H85.824v8.16h10.848a2.926 2.926 0 012.088.792 2.678 2.678 0 01.84 2.04 2.507 2.507 0 01-.816 1.944 3.013 3.013 0 01-2.112.744H85.824v8.88zM97.2 77.04a3.9 3.9 0 01.576.768 1.485 1.485 0 01.144.672 1.1 1.1 0 01-.432.816 1.533 1.533 0 01-1.056.384 2.349 2.349 0 01-.96-.24 16.163 16.163 0 01-1.488-.816l-3.12-1.824-3.12 1.824q-.768.432-1.392.744a2.47 2.47 0 01-1.056.312 1.533 1.533 0 01-1.056-.38 1.1 1.1 0 01-.432-.816 1.485 1.485 0 01.144-.672 3.9 3.9 0 01.576-.768l3.024-3.456a4.285 4.285 0 011.3-1.056 3.619 3.619 0 011.632-.336h.768a3.657 3.657 0 011.608.336 4.175 4.175 0 011.32 1.056zM86.256 59.808a7.583 7.583 0 011.728-1.032 5.352 5.352 0 012.064-.36 4.893 4.893 0 013.816 1.272 4.254 4.254 0 011.128 2.9 4.024 4.024 0 01-.216 1.368 4.569 4.569 0 01-.7 1.224q-.1.144-.456.576a5.636 5.636 0 00-.528.72 1.065 1.065 0 00-.168.528.879.879 0 01-.528.84 3.127 3.127 0 01-1.392.264 1.685 1.685 0 01-.936-.264.927.927 0 01-.408-.84 3.171 3.171 0 01.768-1.872 4.718 4.718 0 001.1-2.064 1.118 1.118 0 00-.48-.936 1.865 1.865 0 00-1.152-.36 2.116 2.116 0 00-.96.216q-.432.216-1.056.6a1.641 1.641 0 01-.768.288 1.764 1.764 0 01-1.2-.624 1.382 1.382 0 01-.432-1.008 1.921 1.921 0 01.776-1.436zM132.768 81.6a2.449 2.449 0 011.872.768 2.7 2.7 0 01.72 1.92v27.984a2.87 2.87 0 01-2.928 2.928 4.148 4.148 0 01-1.32-.216 1.867 1.867 0 01-.936-.6L112.56 92.016v20.5a2.65 2.65 0 01-.744 1.92 2.585 2.585 0 01-1.944.768 2.449 2.449 0 01-1.872-.768 2.7 2.7 0 01-.72-1.92V84.528a2.87 2.87 0 012.928-2.928 3.673 3.673 0 011.416.288 2.279 2.279 0 011.032.768l17.472 22.272v-20.64a2.65 2.65 0 01.744-1.92 2.526 2.526 0 011.896-.768zm61.008-.144a3.131 3.131 0 012.136.888 2.879 2.879 0 01.984 2.232 3.679 3.679 0 01-.144.96l-9.456 27.84a2.531 2.531 0 01-1.008 1.3 3.118 3.118 0 01-1.584.528 3.028 3.028 0 01-1.632-.48 3.212 3.212 0 01-1.2-1.392l-6.816-15.5-6.864 15.5a3.212 3.212 0 01-1.2 1.392 3.028 3.028 0 01-1.632.48 3.118 3.118 0 01-1.584-.528 2.531 2.531 0 01-1.008-1.3l-9.456-27.84a3.679 3.679 0 01-.144-.96 2.879 2.879 0 01.984-2.232 3.185 3.185 0 012.184-.888 3.08 3.08 0 011.728.5 2.564 2.564 0 011.056 1.368l7.152 21.7 6.24-14.976a3.229 3.229 0 011.1-1.368 2.534 2.534 0 011.632-.456 2.441 2.441 0 011.608.456 3.3 3.3 0 011.08 1.368l5.9 14.832 7.1-21.552a2.532 2.532 0 011.08-1.368 3.2 3.2 0 011.764-.504zm26.5 28.224a2.835 2.835 0 012.088.84 2.669 2.669 0 01.84 1.944 2.547 2.547 0 01-.84 1.968 2.978 2.978 0 01-2.088.768h-16.08a2.87 2.87 0 01-2.928-2.928V84.528a2.87 2.87 0 012.928-2.928h16.08a2.926 2.926 0 012.088.792 2.678 2.678 0 01.84 2.04 2.507 2.507 0 01-.816 1.944 3.013 3.013 0 01-2.112.744h-13.012v8.16h10.848a2.926 2.926 0 012.088.792 2.678 2.678 0 01.84 2.04 2.507 2.507 0 01-.816 1.944 3.013 3.013 0 01-2.112.744h-10.848v8.88zm28.608-13.1a9.664 9.664 0 014.152 3.072 8.417 8.417 0 011.608 5.328q0 5.712-3.264 7.968a13.335 13.335 0 01-7.78 2.252h-11.952a2.87 2.87 0 01-2.928-2.928V84.528a2.87 2.87 0 012.928-2.928h12.1q9.12 0 9.12 8.544a7.064 7.064 0 01-1.032 3.816 7.143 7.143 0 01-2.956 2.616zm-2.26-5.38a4.009 4.009 0 00-.984-2.952 3.731 3.731 0 00-2.76-.984h-7.92v7.488h8.064a3.675 3.675 0 002.52-.96 3.294 3.294 0 001.08-2.592zm-3.024 18.48a4.937 4.937 0 003.528-1.2 4.589 4.589 0 001.272-3.5q0-2.832-1.488-3.7a7.158 7.158 0 00-3.648-.864h-8.3v9.264zm27.36 6a20.064 20.064 0 01-6.144-.864 14.222 14.222 0 01-5.04-2.928 3.371 3.371 0 01-1.3-2.544 2.707 2.707 0 01.816-1.944 2.644 2.644 0 011.968-.84 2.543 2.543 0 011.632.576 14.13 14.13 0 003.744 2.3 11.744 11.744 0 004.32.72 8.644 8.644 0 004.632-1.2 3.477 3.477 0 001.944-2.976 3.816 3.816 0 00-1.92-3.384 16.272 16.272 0 00-6.1-1.848Q259 99.212 259 90.956a8.846 8.846 0 011.584-5.256 10 10 0 014.32-3.408 15.285 15.285 0 016.1-1.176 17.443 17.443 0 015.688.912 13.793 13.793 0 014.44 2.4 3.2 3.2 0 011.392 2.544 2.707 2.707 0 01-.816 1.944 2.591 2.591 0 01-1.92.84 2.106 2.106 0 01-1.3-.432 12.678 12.678 0 00-3.48-1.848 11.535 11.535 0 00-4.008-.84 8.258 8.258 0 00-4.68 1.128 3.583 3.583 0 00.048 6.072 16.164 16.164 0 005.352 1.728 27.761 27.761 0 016.6 1.848 8.423 8.423 0 013.72 3.072 9.438 9.438 0 011.248 5.16 8.618 8.618 0 01-1.7 5.3 10.956 10.956 0 01-4.536 3.5 15.2 15.2 0 01-6.092 1.236zm23.856-3.408a2.723 2.723 0 01-.912 2.088 3.023 3.023 0 01-2.112.84 2.894 2.894 0 01-2.136-.84 2.835 2.835 0 01-.84-2.088V84.528a2.794 2.794 0 01.864-2.088 3.036 3.036 0 012.208-.84 2.857 2.857 0 012.064.84 2.794 2.794 0 01.864 2.088zM324.1 81.6a2.957 2.957 0 012.112.768 2.64 2.64 0 01.816 2.016 2.564 2.564 0 01-.816 1.992 3.013 3.013 0 01-2.112.744h-7.54v25.152a2.723 2.723 0 01-.912 2.088 3.2 3.2 0 01-2.256.84 3.036 3.036 0 01-2.208-.84 2.794 2.794 0 01-.864-2.088V87.12h-7.536a2.957 2.957 0 01-2.112-.768 2.64 2.64 0 01-.816-2.016 2.547 2.547 0 01.84-1.968 2.978 2.978 0 012.088-.768zm26.976 28.08a2.835 2.835 0 012.088.84 2.669 2.669 0 01.84 1.944 2.547 2.547 0 01-.84 1.968 2.978 2.978 0 01-2.088.768h-16.08a2.87 2.87 0 01-2.928-2.928V84.528a2.87 2.87 0 012.928-2.928h16.08a2.926 2.926 0 012.088.792 2.678 2.678 0 01.84 2.04 2.507 2.507 0 01-.816 1.944 3.013 3.013 0 01-2.112.744h-13.012v8.16h10.848a2.926 2.926 0 012.088.792 2.678 2.678 0 01.84 2.04 2.507 2.507 0 01-.816 1.944 3.013 3.013 0 01-2.112.744h-10.848v8.88z" transform="translate(-1.44 -1.104)" fill="url(#a)"/></svg>